<?xml version="1.0" standalone="no"?>
<!DOCTYPE svg PUBLIC "-//W3C//DTD SVG 20010904//EN"
 "http://www.w3.org/TR/2001/REC-SVG-20010904/DTD/svg10.dtd">
<svg version="1.0" xmlns="http://www.w3.org/2000/svg"
 width="1024.000000pt" height="1024.000000pt" viewBox="0 0 1024.000000 1024.000000"
 preserveAspectRatio="xMidYMid meet">
<metadata>
Created by potrace 1.16, written by Peter Selinger 2001-2019
</metadata>
<g transform="translate(0.000000,1024.000000) scale(0.100000,-0.100000)"
fill="gray" stroke="none">
<path d="M10040 9970 c0 -5 -9 -10 -20 -10 -16 0 -20 -7 -21 -37 -1 -21 -3
-30 -6 -20 -5 18 -43 24 -43 7 0 -6 7 -22 16 -36 9 -13 14 -27 10 -31 -3 -3
-28 -7 -56 -8 -55 -2 -83 -15 -32 -15 18 0 32 -4 32 -10 0 -5 -8 -10 -17 -10
-13 0 -14 -3 -5 -12 9 -9 18 -7 39 8 31 23 63 36 63 27 0 -9 -31 -32 -57 -43
-13 -5 -23 -14 -23 -19 0 -17 31 -21 46 -6 18 18 30 19 40 3 4 -6 3 -8 -3 -5
-6 4 -18 0 -28 -7 -18 -13 -17 -14 5 -26 18 -10 20 -14 9 -21 -22 -14 -29 -11
-29 11 0 22 -1 23 -24 14 -21 -8 -20 -31 2 -37 15 -4 15 -5 -2 -6 -17 -1 -18
-7 -11 -80 l7 -78 -46 -7 c-46 -7 -65 -26 -26 -26 11 0 20 -4 20 -10 0 -6 24
-7 63 -4 45 4 58 3 47 -5 -8 -6 -28 -11 -45 -11 -24 0 -27 -2 -15 -11 12 -8
10 -9 -7 -4 -12 3 -32 3 -46 0 -23 -6 -26 -12 -32 -86 -6 -68 -10 -79 -26 -79
-15 0 -19 7 -19 40 0 36 -3 40 -24 40 -14 0 -28 -4 -31 -10 -3 -5 -1 -10 4
-10 6 0 11 -4 11 -10 0 -5 -13 -10 -30 -10 -16 0 -30 -4 -30 -10 0 -5 12 -10
26 -10 14 0 23 -4 19 -10 -4 -6 7 -10 24 -10 29 0 31 -2 31 -40 0 -34 -3 -40
-22 -41 -17 -1 -19 -2 -5 -6 21 -5 23 -23 2 -23 -8 0 -15 -4 -15 -10 0 -5 7
-10 15 -10 21 0 19 -18 -2 -23 -17 -4 -17 -5 0 -6 9 0 17 -5 17 -11 0 -5 7
-10 15 -10 8 0 15 -9 15 -20 0 -11 -7 -20 -15 -20 -8 0 -15 -4 -15 -10 0 -5
-7 -10 -15 -10 -8 0 -15 -4 -15 -10 0 -14 22 -12 44 5 25 19 36 19 36 0 0 -8
-9 -15 -20 -15 -17 0 -20 -7 -21 -47 -1 -27 -3 -40 -6 -30 -3 13 -14 17 -41
16 -23 -1 -29 -3 -14 -6 12 -2 22 -10 22 -18 0 -7 -10 -16 -22 -19 l-23 -7 22
-11 c16 -8 22 -21 25 -54 l3 -44 -42 0 c-37 0 -43 3 -43 21 0 14 -5 19 -17 17
-26 -5 -29 -38 -4 -38 18 0 21 -6 21 -42 0 -43 0 -43 -37 -43 -37 0 -38 -1
-38 -38 0 -29 -4 -37 -17 -37 -24 0 -26 -75 -3 -84 8 -3 15 -15 15 -26 0 -11
-7 -20 -15 -20 -21 0 -19 -18 3 -23 16 -4 16 -5 0 -6 -14 -1 -18 -10 -18 -42
l0 -41 53 2 c28 2 61 2 72 1 19 -2 19 -2 3 -15 -22 -16 -23 -42 -3 -50 8 -3
15 -10 15 -17 0 -13 -103 -2 -108 12 -2 5 -11 9 -20 9 -15 1 -15 2 1 14 9 7
17 18 17 23 0 12 -34 23 -65 22 -18 0 -18 -1 3 -10 24 -9 22 -29 -4 -29 -30 0
-13 -28 22 -35 46 -8 68 -27 51 -44 -9 -10 -8 -16 7 -27 19 -13 17 -14 -17
-14 -36 0 -37 -1 -37 -39 0 -31 -4 -41 -21 -46 -15 -5 -19 -13 -16 -27 9 -33
-3 -48 -39 -48 -26 0 -32 -3 -28 -15 4 -8 1 -15 -5 -15 -6 0 -11 -19 -11 -44
0 -25 -4 -48 -10 -51 -23 -14 -9 -35 23 -35 22 -1 27 -3 17 -9 -8 -4 -37 -5
-65 -2 l-50 6 -3 43 c-4 53 -22 55 -22 2 0 -22 -4 -40 -9 -40 -5 0 -11 -9 -14
-20 -4 -17 -11 -19 -31 -14 -14 3 -37 0 -55 -9 -27 -14 -30 -13 -34 4 -6 23
-27 26 -27 4 0 -8 -4 -15 -10 -15 -14 0 -13 23 2 38 9 9 8 12 -6 12 -9 0 -14
-4 -11 -10 3 -5 1 -10 -4 -10 -6 0 -11 -12 -12 -27 -1 -26 -1 -26 -11 7 -7 24
-6 36 1 38 13 4 15 32 2 32 -5 0 -12 -11 -15 -25 -4 -16 -11 -23 -18 -19 -8 5
-9 9 -1 11 15 5 4 42 -19 65 -18 18 -19 18 -22 -4 0 -6 -8 -13 -16 -15 -12 -4
-12 -3 -1 5 11 8 10 12 -5 22 -16 9 -16 11 -2 6 10 -3 20 -1 23 4 4 6 -10 10
-32 10 -21 0 -68 11 -105 24 l-68 23 56 -1 c30 0 47 -3 38 -6 -17 -6 -17 -7 0
-13 24 -9 28 -9 21 3 -3 6 -1 10 5 10 7 0 10 -6 7 -13 -3 -9 6 -11 35 -8 22 2
43 -1 47 -6 3 -6 29 -13 58 -16 50 -6 51 -5 34 12 -12 12 -47 22 -102 30 -46
6 -95 13 -109 15 -14 3 -29 5 -34 5 -6 1 -1 8 10 16 10 8 15 15 11 15 -5 0 -1
10 7 22 20 28 20 38 1 38 -8 0 -15 -9 -15 -20 0 -11 -4 -20 -10 -20 -5 0 -10
6 -10 13 0 8 -18 22 -40 33 -39 19 -66 49 -32 37 16 -6 9 3 -70 87 -13 14 -30
30 -39 35 -91 57 -98 64 -104 109 -4 25 -4 49 0 55 3 6 1 11 -4 11 -6 0 -11
-4 -11 -9 0 -6 -18 -20 -40 -32 -22 -13 -40 -27 -40 -31 0 -5 -4 -7 -9 -4 -11
7 -37 -22 -46 -53 -5 -16 -4 -21 4 -17 18 11 13 -9 -6 -26 -10 -8 -27 -18 -38
-23 -19 -7 -19 -7 3 -18 12 -5 22 -15 22 -22 0 -17 -23 -43 -40 -45 -34 -5
-52 2 -117 46 -37 25 -72 48 -77 51 -5 4 -6 -6 -2 -21 4 -16 3 -25 -3 -22 -5
3 -9 -4 -10 -17 -1 -46 -5 -56 -29 -67 -22 -10 -24 -9 -19 10 3 11 1 17 -5 14
-18 -11 -56 6 -62 28 -7 22 -8 22 -21 -7 -8 -16 -14 -24 -15 -16 0 8 -7 11
-20 8 -11 -3 -20 -1 -20 4 0 5 9 9 20 9 11 0 20 5 20 10 0 6 -7 10 -15 10 -8
0 -15 9 -15 20 0 11 4 20 9 20 5 0 15 16 22 35 7 19 16 35 20 35 17 0 18 68 3
115 -27 81 -33 89 -82 120 -26 16 -86 55 -133 86 -104 69 -348 219 -356 219
-3 0 -21 11 -39 25 -18 14 -36 25 -41 25 -4 0 -32 16 -61 35 -52 32 -89 37
-78 9 3 -7 1 -16 -4 -19 -4 -3 -10 1 -12 7 -3 8 -9 4 -17 -10 -8 -15 -9 -28
-1 -41 14 -27 13 -51 -1 -31 -8 12 -9 10 -4 -8 5 -16 3 -22 -7 -20 -7 2 -16 7
-19 11 -3 4 -19 -23 -35 -60 l-29 -68 -5 87 c-4 66 -10 94 -26 114 -30 41 -42
40 -42 -5 -1 -49 -30 -118 -63 -148 -61 -55 -171 -92 -275 -93 -74 0 -96 14
-97 63 0 20 -4 33 -7 27 -3 -5 -18 -16 -34 -24 -32 -16 -52 -11 -93 27 -33 30
-28 7 9 -44 32 -44 43 -69 29 -69 -4 0 -13 6 -19 12 -10 10 -15 10 -22 -2 -7
-11 2 -25 35 -56 25 -22 45 -44 45 -48 0 -14 -65 28 -112 72 -49 45 -49 46
-42 17 12 -51 30 -89 60 -124 24 -29 25 -32 6 -22 -12 6 -33 28 -48 49 -14 20
-23 28 -20 17 3 -11 8 -38 12 -60 3 -22 13 -51 22 -65 l15 -25 -27 24 -26 24
-1 -39 c0 -21 -2 -73 -3 -114 -3 -73 0 -87 33 -160 8 -19 15 -37 16 -40 2 -21
39 -80 50 -80 20 0 30 -21 14 -31 -10 -6 -8 -9 10 -9 20 0 23 -4 19 -25 -3
-14 -1 -28 5 -32 6 -3 7 -1 3 5 -4 7 -1 12 7 12 18 0 41 -44 34 -64 -11 -29
-35 -19 -29 12 5 24 4 26 -11 13 -16 -13 -22 -8 -18 13 1 5 -4 4 -12 -2 -10
-9 -17 -9 -27 1 -10 10 -12 9 -7 -6 6 -15 4 -16 -13 -7 -13 7 -20 7 -20 1 0
-6 -7 -8 -15 -5 -8 4 -13 10 -10 14 3 5 -4 6 -15 3 -11 -3 -20 -13 -20 -21 0
-10 -15 1 -40 28 -22 24 -40 50 -40 56 0 7 -6 15 -12 17 -10 4 -10 6 0 6 14 1
17 37 3 46 -5 3 -12 1 -15 -4 -4 -5 0 -12 6 -14 7 -3 1 -6 -14 -6 -16 -1 -28
4 -28 10 0 5 -4 8 -8 5 -5 -3 -9 10 -9 28 0 25 4 32 18 31 10 -1 21 -4 25 -8
14 -13 34 23 34 61 0 35 2 39 20 35 14 -4 20 0 20 11 0 9 5 16 10 16 6 0 10 5
10 11 0 8 -5 7 -15 -1 -25 -20 -43 4 -21 26 11 10 15 25 12 38 -3 12 -6 29 -6
39 0 9 -6 17 -14 17 -10 0 -13 11 -12 40 1 22 -1 40 -6 40 -4 0 -5 6 -2 14 3
7 -2 16 -11 20 -9 3 -14 10 -11 15 3 4 1 23 -5 42 -5 19 -10 50 -10 69 -1 19
-10 50 -20 68 -11 18 -19 42 -19 53 0 10 -4 19 -9 19 -6 0 -10 8 -9 18 0 29
-23 304 -30 363 -6 43 -19 74 -59 135 -82 126 -81 124 -116 124 -26 -1 -49
-16 -127 -91 l-95 -90 -3 -617 c-1 -339 -6 -620 -10 -624 -4 -4 -8 44 -10 105
-5 156 -31 337 -53 363 -6 8 -8 14 -4 14 5 0 1 8 -7 18 -9 9 -18 34 -22 54 -5
30 -2 44 16 68 18 24 22 45 24 107 1 43 -2 86 -8 96 -5 10 -11 42 -13 70 -1
29 -4 54 -5 57 -1 3 -1 15 -1 26 1 12 -4 28 -12 36 -8 7 -17 41 -20 73 -7 64
-20 129 -31 157 -9 20 -36 28 -98 28 l-48 0 0 115 c0 128 -12 198 -40 235
l-19 25 -198 2 c-109 0 -187 -1 -173 -3 14 -2 40 -7 59 -10 25 -4 31 -8 21
-14 -9 -6 -17 -4 -22 3 -6 9 -12 7 -22 -5 -7 -10 -26 -19 -42 -20 -16 -1 -33
-4 -39 -7 -17 -10 -189 -9 -202 1 -16 13 -123 19 -123 7 0 -6 4 -8 9 -5 4 3
43 -12 86 -34 59 -30 91 -40 127 -40 57 0 61 -9 54 -115 -2 -38 -5 -89 -5
-112 l-1 -42 -60 -7 c-97 -11 -91 5 -89 -269 1 -132 2 -266 3 -297 l1 -58 77
0 c72 0 77 1 81 23 l4 22 2 -22 c1 -22 5 -23 76 -23 43 0 75 4 75 10 0 6 5 10
11 10 5 0 7 -4 4 -10 -4 -6 25 -10 79 -10 84 0 86 0 86 24 0 35 18 42 22 9 3
-26 7 -28 51 -31 41 -3 47 -1 47 17 0 11 5 23 10 26 6 4 10 -5 10 -19 0 -25 2
-26 63 -26 34 0 69 -5 77 -10 10 -6 -132 -10 -410 -10 -234 0 -435 -3 -447 -6
-15 -4 -26 -18 -33 -43 -6 -22 -10 -245 -10 -581 0 -356 -4 -540 -10 -530 -6
9 -10 188 -10 453 0 409 -1 439 -17 444 -17 4 -74 70 -100 117 -16 26 -16 3
-18 -494 -1 -195 -2 -392 -3 -437 l-2 -83 -335 0 -335 0 0 560 0 559 23 12
c12 7 25 17 29 23 8 11 0 315 -9 329 -2 4 -13 7 -23 7 -18 0 -20 -10 -23 -157
-2 -110 -3 -77 -5 107 -1 146 -6 271 -11 279 -8 12 -19 7 -58 -24 -26 -22 -49
-43 -51 -47 -6 -14 -30 -8 -77 17 -25 14 -50 23 -55 20 -6 -3 -10 -39 -10 -80
0 -54 -4 -74 -14 -78 -31 -12 -47 -65 -47 -158 0 -103 -6 -94 100 -156 99 -59
111 -78 109 -176 l-2 -82 -5 85 -6 85 -50 32 c-27 17 -88 57 -134 90 -46 32
-91 63 -100 68 -9 6 -18 13 -21 16 -11 12 -95 67 -104 67 -5 0 -13 6 -17 14
-7 10 -9 9 -9 -4 0 -10 4 -18 8 -18 5 0 24 -14 43 -31 19 -17 44 -35 56 -40
13 -5 23 -14 23 -21 0 -9 -3 -8 -10 2 -7 11 -10 12 -10 2 0 -10 -4 -9 -16 3
-9 9 -23 14 -31 11 -8 -3 -12 -2 -10 2 3 4 -8 20 -24 37 l-28 29 6 -120 c4
-77 2 -123 -4 -127 -7 -4 -11 41 -12 126 -2 129 -7 192 -20 212 -14 24 -19
-71 -20 -392 0 -189 -5 -343 -9 -343 -4 0 -36 18 -70 40 l-62 41 0 244 c0 211
-2 245 -15 245 -8 0 -15 -8 -15 -17 0 -15 -2 -14 -15 3 -13 17 -14 -8 -15
-220 0 -227 -1 -238 -17 -224 -21 19 -98 58 -113 58 -5 0 -10 -8 -10 -19 0
-11 21 -33 55 -56 30 -21 55 -40 55 -42 0 -5 -59 29 -102 59 l-28 19 0 159 c0
102 -4 161 -11 165 -6 4 -12 5 -14 4 -1 -2 -5 -70 -6 -151 -2 -82 -6 -148 -10
-148 -3 0 -10 5 -16 11 -6 6 -35 23 -65 38 -52 26 -53 28 -58 76 -5 47 -30 78
-30 36 0 -12 -5 -21 -10 -21 -18 0 -150 93 -150 105 0 7 9 24 20 38 23 29 25
44 8 49 -13 5 -139 -57 -187 -91 -16 -12 -34 -21 -41 -21 -6 0 -45 25 -86 56
-98 72 -118 79 -80 29 26 -34 28 -39 13 -50 -14 -10 -12 -18 24 -65 60 -80 94
-106 211 -163 49 -23 88 -48 88 -56 0 -8 3 -11 6 -8 4 4 19 -20 34 -52 28 -58
76 -101 114 -101 21 0 135 -73 225 -144 36 -28 80 -60 96 -71 35 -22 220 -170
286 -229 92 -82 119 -103 125 -97 3 3 5 1 4 -4 -5 -25 1 -37 16 -31 8 3 12 2
9 -4 -5 -9 33 -36 47 -32 4 1 5 -8 2 -21 -9 -41 -11 -66 -5 -63 3 2 12 -3 20
-11 12 -13 11 -14 -7 -9 -11 4 -23 2 -27 -4 -8 -13 -26 -13 -23 -1 2 5 -5 16
-16 24 -20 14 -40 2 -434 -266 -62 -42 -119 -77 -126 -77 -7 0 -36 26 -63 57
-72 83 -161 171 -184 183 -11 6 -17 15 -14 20 3 5 0 12 -6 16 -8 5 -9 3 -4 -6
5 -9 4 -11 -4 -6 -6 4 -10 13 -9 20 3 11 -101 126 -114 126 -3 0 10 -16 28
-36 19 -19 33 -38 32 -42 -4 -22 28 -66 83 -113 34 -30 87 -79 118 -109 31
-30 36 -37 11 -14 -25 22 -70 58 -100 79 -60 43 -71 51 -235 181 -60 48 -114
92 -120 98 -9 10 -55 46 -175 136 -120 90 -47 11 88 -95 141 -110 170 -135
115 -98 -107 73 -245 178 -250 190 -3 7 -9 11 -13 8 -5 -3 -11 -1 -15 5 -4 6
-11 8 -17 4 -14 -9 34 -57 122 -122 41 -31 77 -58 80 -62 9 -10 65 -45 70 -43
3 1 16 -7 29 -16 18 -14 21 -20 11 -26 -8 -5 -11 -4 -7 2 6 9 -13 24 -34 27
-11 2 -144 90 -147 98 -2 4 -9 5 -14 2 -6 -4 -8 -2 -4 4 3 6 -6 13 -23 17 -16
3 -35 13 -42 21 -14 17 -62 44 -79 44 -27 0 6 -113 49 -164 9 -11 10 -16 4
-12 -8 4 -11 2 -8 -6 3 -7 54 -46 113 -87 59 -40 136 -94 172 -119 235 -165
378 -266 400 -283 71 -54 271 -185 327 -215 35 -18 72 -41 81 -50 31 -32 224
-154 233 -149 5 4 9 0 9 -7 0 -12 242 -178 280 -192 20 -8 115 147 114 185 0
15 8 32 18 38 10 6 18 7 18 2 0 -5 -6 -11 -12 -14 -7 -2 -10 -8 -6 -12 9 -9
40 14 34 24 -3 4 0 13 6 21 8 12 9 12 4 -2 -3 -10 -1 -18 4 -18 4 0 10 34 12
76 3 79 -14 126 -58 159 -21 15 -16 26 12 26 38 1 69 -11 86 -33 10 -13 23
-29 29 -36 6 -7 13 -28 16 -47 l6 -35 61 53 c33 29 78 66 100 82 l38 29 -4 72
c-3 48 -10 78 -21 88 -8 9 -17 16 -19 16 -2 0 -2 -45 0 -100 2 -63 0 -100 -7
-100 -6 0 -9 36 -8 93 2 76 -1 92 -13 92 -12 0 -16 -20 -18 -112 -1 -62 -6
-113 -10 -113 -4 0 -6 51 -4 114 l4 113 -39 24 c-31 19 -77 52 -168 122 -5 4
-30 22 -54 39 -24 18 -39 34 -33 36 14 4 99 -55 152 -105 33 -31 58 -44 45
-23 -3 6 1 7 10 3 12 -4 13 -8 5 -13 -18 -11 6 -23 30 -15 11 4 20 2 20 -3 0
-6 -5 -12 -10 -14 -6 -2 0 -9 12 -17 21 -13 22 -13 9 2 -17 21 -3 22 29 1 14
-8 8 -1 -14 17 -21 18 -62 47 -90 64 -28 16 -51 37 -51 45 0 8 -28 34 -63 58
-34 24 -59 48 -56 53 4 6 13 4 23 -5 10 -9 20 -14 22 -11 3 2 50 -31 105 -75
99 -80 114 -89 114 -70 0 6 -3 10 -7 10 -5 0 -32 23 -62 50 -30 28 -59 50 -64
50 -5 0 -24 13 -42 29 -18 16 -39 31 -47 33 -7 3 -10 8 -6 12 8 10 44 -9 90
-48 20 -17 63 -44 95 -61 62 -32 135 -90 125 -99 -3 -3 2 -6 12 -6 9 0 15 -4
12 -9 -3 -5 -15 -7 -25 -4 -10 3 -22 0 -25 -5 -4 -6 2 -8 14 -5 22 6 28 -12 8
-20 -7 -3 1 -4 17 -4 29 2 30 1 27 -36 -2 -24 1 -36 7 -33 5 4 14 -2 20 -11
10 -17 10 -17 11 0 0 24 15 21 34 -7 11 -18 13 -27 4 -32 -7 -4 -8 -3 -4 4 9
15 -6 16 -20 2 -8 -8 -15 -6 -24 5 -21 25 -28 18 -32 -34 -3 -43 -1 -48 12
-38 22 18 29 29 24 42 -3 8 4 12 18 11 27 -1 148 53 148 67 0 16 -56 62 -159
130 -108 72 -124 91 -119 139 4 46 25 46 37 1 11 -40 14 -43 161 -146 30 -22
72 -55 92 -75 34 -32 40 -34 63 -24 14 6 25 18 25 25 0 7 -34 32 -76 56 -128
73 -171 126 -148 185 11 28 34 18 34 -13 0 -18 10 -41 25 -58 14 -15 23 -21
19 -12 -6 19 17 31 36 19 7 -4 9 -14 6 -21 -4 -8 -1 -6 7 4 27 32 106 22 225
-30 35 -15 102 -14 114 2 4 6 24 5 53 -3 26 -7 51 -9 57 -6 7 4 8 2 4 -5 -6
-9 0 -11 21 -9 34 4 43 14 43 53 0 23 -10 39 -46 70 -36 31 -45 46 -40 61 5
18 12 14 61 -32 51 -49 55 -55 55 -99 l0 -47 49 7 c27 4 70 7 95 7 33 0 46 4
49 16 4 15 5 15 6 0 1 -14 10 -18 36 -18 l35 0 0 95 c0 77 3 95 15 95 11 0 15
-19 17 -92 3 -77 6 -93 20 -96 9 -2 18 5 21 15 4 17 5 17 6 -1 1 -14 7 -17 26
-14 14 3 25 1 25 -4 0 -6 11 -7 24 -4 14 3 28 2 31 -4 14 -23 60 -7 152 53 98
63 159 94 168 85 8 -7 -68 -65 -141 -107 l-66 -38 46 -12 c45 -11 46 -11 77
21 27 28 30 30 25 11 -7 -22 -7 -22 28 -8 46 19 46 13 1 -14 -19 -11 -35 -24
-35 -28 0 -4 42 -21 93 -38 50 -16 127 -46 170 -67 l77 -37 1 77 c1 111 13
145 22 63 4 -35 7 -85 7 -110 0 -44 2 -47 40 -63 38 -15 41 -15 49 0 5 10 7
38 4 64 -4 35 -1 55 12 74 17 26 101 71 112 60 4 -3 1 -6 -5 -6 -7 0 -11 -3
-10 -7 4 -15 -24 -54 -35 -50 -35 13 -63 -43 -36 -70 14 -14 4 -47 -11 -38 -5
3 -10 2 -10 -4 0 -5 5 -13 10 -16 6 -3 10 -17 10 -31 0 -23 48 -84 66 -84 5 0
21 -13 36 -30 14 -16 22 -30 18 -30 -5 0 -15 8 -22 18 -20 27 -64 52 -74 42
-5 -5 -15 -5 -24 1 -12 9 -11 10 4 5 16 -6 17 -4 6 9 -7 8 -18 14 -24 13 -13
-3 -103 40 -112 53 -8 13 -2 11 50 -16 26 -14 45 -21 42 -16 -3 5 -28 20 -55
35 -35 18 -52 22 -57 14 -5 -7 -3 -8 6 -3 8 5 11 4 6 -3 -4 -6 -12 -9 -20 -6
-7 3 -25 0 -39 -5 -15 -6 -27 -7 -27 -2 0 5 -22 20 -50 33 -27 14 -46 28 -42
33 4 4 -4 4 -18 1 -25 -7 -25 -7 -5 10 19 16 15 16 -28 -1 -14 -6 -16 -3 -11
11 6 16 5 17 -7 7 -7 -7 -18 -13 -24 -13 -5 0 -3 5 5 10 8 5 11 10 5 10 -9 0
-58 8 -160 27 -16 2 -35 9 -41 14 -5 4 -20 6 -31 3 -12 -3 -37 -1 -55 4 -25 8
-256 25 -333 25 -105 -1 -419 -62 -465 -91 -14 -9 -36 -17 -49 -18 -38 -4
-239 -107 -346 -178 -172 -114 -327 -266 -432 -427 -60 -91 -137 -241 -155
-301 -6 -21 -15 -38 -20 -38 -5 0 -7 -4 -4 -9 3 -5 -3 -35 -13 -67 -20 -65
-46 -175 -43 -186 1 -4 -14 -10 -33 -14 -35 -6 -35 -7 -35 -59 l0 -54 -38 6
c-48 8 -101 34 -131 67 -32 34 -20 43 22 17 19 -11 53 -27 76 -36 l41 -14 0
37 c-1 32 -6 40 -42 62 -22 14 -57 38 -77 54 -31 24 -32 27 -11 21 14 -4 47
-19 74 -32 51 -26 60 -24 69 18 6 22 1 29 -31 47 -50 29 -100 71 -84 72 15 0
87 -44 97 -60 3 -5 11 -10 17 -10 7 0 -1 13 -16 29 -36 38 -117 96 -111 79 3
-8 -8 -17 -30 -24 -20 -6 -33 -9 -30 -6 2 3 -3 11 -13 19 -15 13 -15 13 6 3
12 -6 22 -7 22 -2 0 16 -29 35 -43 29 -8 -3 -14 1 -14 9 0 7 5 10 10 7 6 -3 7
-1 3 6 -4 6 -16 9 -27 6 -11 -4 -19 -2 -19 5 0 6 5 8 10 5 6 -4 10 -3 9 2 -3
18 1 28 9 18 12 -18 73 -58 78 -52 3 3 -15 19 -40 37 -25 17 -46 27 -46 23 0
-4 -4 -2 -9 5 -6 10 -10 10 -21 -3 -11 -13 -10 -15 6 -9 16 5 17 4 3 -5 -16
-10 -56 -8 -68 5 -3 3 3 4 13 2 15 -2 20 3 21 24 1 15 -2 25 -7 22 -4 -3 -6
-10 -3 -15 3 -5 -1 -6 -10 -2 -13 4 -14 8 -4 13 9 6 8 12 -4 25 -10 9 -17 13
-17 9 0 -4 -9 1 -20 11 -11 10 -20 15 -20 10 0 -4 -9 3 -20 16 -10 13 -19 19
-20 12 0 -6 6 -14 13 -17 6 -3 -1 -3 -18 0 l-30 6 23 -17 c13 -9 32 -15 42
-12 13 3 17 0 13 -9 -3 -8 1 -14 11 -14 14 0 14 -3 4 -20 -11 -17 -10 -22 0
-29 10 -6 8 -10 -9 -14 -17 -5 -21 -9 -13 -17 6 -6 18 -13 25 -14 8 -2 22 -6
31 -10 16 -7 16 -9 2 -23 -12 -13 -13 -18 -3 -24 11 -6 10 -9 -1 -13 -22 -8
-50 -1 -61 15 -8 12 -11 11 -23 -3 -12 -16 -14 -16 -37 -1 -31 21 -40 35 -34
51 2 6 -2 12 -10 12 -15 0 -47 15 -75 36 -8 6 -30 11 -48 11 -25 0 -29 -3 -18
-9 9 -5 16 -14 16 -19 0 -6 -5 -7 -12 -3 -6 4 -8 3 -5 -3 3 -5 20 -8 37 -5 19
3 30 0 30 -8 0 -7 -7 -10 -15 -6 -8 3 -14 0 -12 -6 1 -7 -6 -14 -15 -16 -21
-4 -130 66 -122 79 3 5 -3 6 -12 2 -12 -4 -15 -3 -10 5 4 7 1 12 -9 12 -10 0
-36 14 -59 32 -48 37 -68 55 -47 43 9 -5 12 -4 7 3 -4 6 -13 9 -20 6 -7 -3
-27 8 -44 24 -17 16 -34 27 -37 24 -3 -3 -5 -1 -5 4 0 19 25 34 57 34 25 0 41
8 63 33 43 46 44 61 16 123 -18 38 -26 74 -26 110 l0 53 -62 51 c-35 27 -82
59 -105 70 -23 11 -52 30 -64 42 -12 13 -19 18 -16 12 4 -7 0 -15 -9 -18 -22
-8 -6 -28 17 -21 14 5 17 3 13 -9 -5 -12 -2 -15 12 -9 13 5 16 3 11 -10 -4
-11 -2 -14 9 -10 7 3 14 1 15 -3 0 -5 2 -19 5 -32 2 -13 0 -21 -5 -17 -12 7
-51 -33 -51 -52 0 -8 -4 -12 -9 -8 -5 3 -12 1 -15 -4 -8 -12 10 -9 52 8 23 10
36 11 44 3 11 -11 2 -35 -11 -27 -5 2 -17 -5 -27 -16 -16 -17 -16 -22 -4 -29
8 -6 10 -10 4 -10 -5 0 -14 4 -20 10 -12 12 -75 -24 -72 -41 2 -6 -4 -14 -12
-16 -11 -3 -11 -2 -3 4 9 6 7 12 -8 22 -12 7 -18 8 -14 2 10 -17 0 -14 -60 19
-52 28 -84 32 -70 9 4 -5 1 -9 -4 -9 -6 0 -11 5 -11 10 0 6 -3 9 -7 8 -14 -4
-113 55 -113 67 0 12 67 65 157 124 61 40 103 77 103 89 0 10 -29 51 -51 73
-26 26 -226 159 -239 159 -7 0 -5 -6 4 -15 8 -8 19 -15 25 -15 6 0 11 -4 11
-9 0 -5 20 -21 45 -36 25 -14 43 -30 40 -36 -4 -5 -1 -9 5 -9 15 0 40 -25 40
-40 0 -17 36 -61 44 -53 3 3 6 1 6 -5 0 -16 -15 -15 -32 1 -7 6 -21 13 -31 15
-15 3 -18 -2 -15 -22 2 -14 -1 -25 -7 -26 -5 0 -10 4 -10 9 0 21 -11 18 -22
-5 -10 -21 -9 -23 1 -14 10 8 15 6 20 -7 4 -10 4 -14 0 -10 -4 4 -18 0 -31 -8
-13 -9 -35 -20 -50 -26 -24 -9 -25 -8 -12 8 13 17 13 17 -13 0 -20 -13 -33
-15 -52 -7 -31 11 -55 50 -31 50 8 0 15 -5 15 -12 0 -6 2 -9 5 -6 3 3 3 12 -1
21 -6 16 -28 18 -51 4 -7 -4 -18 2 -27 15 -9 12 -16 17 -16 11 0 -6 24 -32 53
-57 56 -47 67 -72 35 -72 -19 0 -19 1 -1 14 17 13 17 14 -4 8 -12 -4 -24 -2
-28 4 -3 5 -1 10 5 10 7 0 5 6 -4 15 -8 8 -17 15 -21 15 -3 0 -16 11 -29 25
-13 14 -30 25 -38 25 -24 0 -43 27 -29 43 6 8 8 17 4 20 -3 4 -1 7 5 7 7 0 12
-8 13 -17 0 -15 2 -15 8 2 12 30 2 48 -16 29 -9 -8 -21 -13 -28 -10 -7 2 -21
-2 -32 -9 -10 -8 -13 -15 -6 -15 6 0 14 4 18 10 3 5 12 7 21 3 12 -4 12 -7 -3
-18 -17 -13 -16 -15 11 -43 15 -17 25 -35 22 -41 -4 -6 -3 -11 2 -11 14 0 23
28 11 34 -5 2 -4 3 3 1 7 -1 12 -7 11 -13 -2 -6 5 -9 15 -6 9 3 7 -1 -6 -8
-21 -13 -21 -15 -5 -32 24 -25 7 -15 -89 53 -42 30 -75 58 -72 62 2 5 44 36
92 70 124 88 172 129 172 142 -1 15 -131 120 -139 111 -3 -3 5 -15 19 -25 56
-44 61 -50 54 -62 -5 -8 -2 -7 9 2 11 9 17 10 17 2 0 -6 -3 -11 -8 -11 -7 0
-48 -29 -157 -109 -22 -17 -57 -46 -77 -67 -27 -26 -38 -32 -38 -20 0 9 -6 16
-14 14 -7 -2 -49 20 -92 48 -170 111 -192 124 -196 111 -3 -7 -2 -76 2 -154 6
-132 8 -145 37 -200 16 -32 44 -68 61 -79 17 -12 28 -24 25 -28 -4 -3 4 -6 17
-6 13 0 21 -3 17 -6 -3 -3 3 -15 14 -27 10 -11 19 -30 19 -41 0 -16 2 -18 9
-7 7 11 9 11 14 0 4 -10 6 -10 6 -1 1 12 99 -61 169 -126 30 -27 34 -35 22
-43 -11 -7 -6 -8 14 -3 23 6 28 4 24 -7 -4 -10 1 -15 13 -16 13 -1 17 2 12 10
-4 7 5 4 20 -6 14 -9 35 -17 46 -17 28 0 52 -11 45 -21 -3 -5 2 -9 11 -9 13 0
14 -4 4 -22 -11 -21 -11 -22 4 -9 10 7 17 9 17 3 0 -5 -60 -67 -134 -136 -108
-102 -136 -134 -143 -164 l-9 -37 -99 -1 c-55 0 -102 -1 -105 -3 -12 -8 -301
-8 -306 0 -3 5 -49 9 -102 9 -129 1 -131 1 -125 18 6 14 -78 274 -85 267 -5
-5 17 -99 36 -154 12 -34 13 -46 4 -49 -7 -2 -12 -8 -12 -14 0 -6 6 -8 13 -5
7 3 13 -6 14 -24 1 -16 7 -38 13 -49 10 -19 20 -20 351 -20 l339 0 -16 -25
-16 -25 -307 -2 c-260 -3 -291 -4 -203 -12 56 -5 101 -11 98 -13 -2 -3 -64 -7
-138 -9 -73 -3 -138 -6 -145 -9 -19 -6 -5 -54 27 -95 16 -21 26 -41 22 -45 -4
-5 -1 -5 6 -1 7 5 34 -6 64 -26 49 -31 59 -33 155 -36 68 -3 103 -8 103 -16 0
-7 3 -8 8 0 4 6 32 27 63 47 l56 37 243 1 c134 0 247 -4 252 -9 4 -4 38 -5 76
-1 37 5 91 8 120 8 28 1 52 4 52 7 0 3 -8 18 -18 32 -32 47 -34 52 -17 52 9 0
14 -4 11 -9 -4 -5 11 -23 33 -40 40 -32 61 -39 61 -21 0 6 9 20 19 31 19 21
19 21 32 -15 l13 -36 183 0 c176 0 183 -1 183 -20 0 -11 -5 -20 -12 -20 -6 0
-3 -7 8 -15 19 -14 19 -14 -1 -9 -18 4 -185 10 -490 17 -66 2 -129 8 -140 14
-30 16 -353 12 -360 -4 -3 -9 9 -13 43 -14 26 0 70 -4 97 -9 l50 -7 -41 -2
c-38 -1 -41 -3 -39 -26 2 -14 -1 -25 -7 -25 -6 0 -8 13 -6 30 l5 30 -81 -1
c-45 -1 -73 -3 -63 -6 9 -2 14 -9 11 -15 -4 -6 1 -6 14 1 11 6 29 11 39 10 15
0 14 -2 -4 -11 -23 -11 -31 -28 -13 -28 6 0 10 4 10 9 0 5 9 11 21 14 16 4 18
3 9 -8 -9 -11 -7 -12 9 -8 12 3 18 9 15 14 -3 5 0 9 5 9 22 0 7 -33 -19 -43
-12 -4 -12 -6 2 -6 19 -1 34 -42 23 -60 -3 -6 -19 -11 -35 -11 -30 0 -42 18
-36 53 1 12 1 16 -1 10 -7 -20 -22 -15 -17 5 3 11 -5 23 -26 34 -17 10 -28 13
-25 8 3 -6 1 -10 -4 -10 -6 0 -11 4 -11 8 0 9 -51 9 -66 -1 -6 -3 -14 -3 -18
0 -15 15 -32 9 -33 -11 -2 -19 -1 -20 8 -3 11 18 11 18 28 0 22 -22 16 -46
-10 -38 -11 4 -19 2 -19 -4 0 -17 31 -13 54 7 16 13 18 13 8 1 -6 -9 -9 -19
-6 -22 9 -9 54 23 54 38 0 7 7 15 15 19 8 3 15 1 15 -4 0 -6 -6 -10 -12 -10
-9 0 -8 -3 2 -10 9 -6 17 -5 23 3 6 8 7 6 3 -6 -3 -10 -6 -30 -6 -44 0 -24 -2
-25 -42 -19 -23 4 -47 14 -53 23 -11 15 -14 14 -30 -10 -14 -22 -21 -25 -36
-17 -11 7 -16 16 -12 27 4 11 3 14 -5 9 -7 -4 -12 -2 -12 3 0 6 7 11 15 11 18
0 20 16 3 26 -6 4 -8 3 -5 -3 4 -6 -5 -15 -19 -21 -13 -7 -30 -24 -36 -39 -9
-22 -12 -24 -15 -10 -3 9 -12 17 -21 16 -11 0 -12 -2 -4 -6 6 -2 12 -9 12 -14
0 -5 -10 -4 -22 3 -13 7 -27 12 -33 13 -5 0 -15 20 -21 45 -11 44 -12 44 -19
17 -6 -22 -12 -27 -26 -24 -11 3 -19 1 -19 -5 0 -5 -3 -7 -8 -4 -4 2 -16 -2
-27 -10 -22 -17 -16 -18 21 -4 21 8 31 7 44 -5 40 -37 24 -79 -32 -87 -18 -2
-36 6 -57 25 -27 23 -70 47 -87 47 -12 0 -1 -20 26 -46 42 -41 37 -49 -13 -19
-51 29 -57 30 -57 10 0 -9 24 -40 53 -69 84 -87 151 -167 164 -198 7 -15 18
-28 24 -28 7 0 21 -7 31 -16 22 -20 24 -15 37 76 10 64 9 65 -20 91 -16 14
-26 28 -23 32 9 9 44 -16 44 -31 0 -9 11 -4 31 12 l31 27 465 -3 465 -3 20
-27 c19 -28 21 -28 135 -28 111 0 118 -1 170 -31 50 -29 58 -31 93 -20 20 6
99 11 174 11 103 0 145 4 169 15 23 12 27 12 15 2 -10 -8 -15 -17 -11 -20 3
-4 0 -7 -7 -7 -7 0 -18 -7 -24 -16 -9 -12 -36 -16 -128 -18 -77 -2 -122 -7
-132 -15 -22 -18 -123 0 -173 32 -56 35 -61 36 -159 28 l-89 -8 -57 39 -57 38
-321 0 c-232 0 -319 -3 -314 -11 4 -8 -9 -10 -45 -8 -28 2 -51 1 -51 -3 0 -5
15 -8 33 -9 28 -1 27 -2 -13 -10 -25 -5 -51 -7 -58 -4 -7 3 -11 1 -7 -4 3 -5
-1 -12 -7 -14 -7 -3 46 -3 118 0 96 4 133 3 138 -6 4 -6 4 -81 1 -166 l-8
-155 -118 0 -119 0 0 -25 0 -25 120 0 121 0 -3 -152 -3 -153 -128 -3 c-116 -2
-127 -1 -127 15 -2 62 -11 118 -20 121 -5 2 -10 8 -10 13 0 4 7 6 15 3 11 -5
15 1 15 24 0 17 -4 32 -8 34 -15 5 -24 58 -10 54 7 -1 10 -1 6 1 -5 3 -8 13
-8 24 0 10 -5 19 -12 19 -9 0 -9 3 0 12 14 14 16 38 2 38 -5 0 -7 -8 -4 -17 5
-15 4 -15 -5 -3 -7 11 -5 19 7 33 23 26 42 161 28 199 -14 37 -22 35 -30 -7
-4 -19 -11 -35 -17 -35 -6 0 -8 -4 -5 -8 3 -5 -7 -21 -22 -35 -49 -47 -267
-197 -279 -192 -7 2 -10 -2 -6 -11 3 -7 2 -21 -1 -30 -6 -15 -8 -15 -31 0 -34
22 -48 20 -103 -14 -46 -28 -56 -40 -80 -102 -10 -25 -14 -26 -39 -17 -15 5
-71 41 -123 79 -97 72 -106 77 -95 60 3 -5 1 -10 -6 -10 -8 0 -10 -16 -6 -56
4 -41 15 -71 44 -114 21 -33 41 -59 45 -60 4 0 30 -22 58 -50 34 -34 50 -58
50 -75 0 -15 4 -24 9 -21 5 3 12 -1 15 -10 9 -23 7 -31 -3 -15 -5 7 -14 10
-20 7 -6 -4 -9 -12 -6 -17 4 -5 1 -9 -4 -9 -6 0 -11 -6 -11 -14 0 -12 -43 -32
-61 -28 -4 1 -33 4 -65 7 -33 3 -67 8 -76 11 -10 3 -18 1 -18 -5 0 -5 12 -11
28 -13 15 -2 26 -8 24 -16 -1 -6 2 -12 8 -12 5 0 10 -9 10 -20 0 -14 9 -21 37
-25 21 -4 47 -9 58 -12 17 -4 18 -2 5 7 -12 9 -10 11 13 7 15 -2 27 0 27 4 0
5 6 9 13 9 13 1 47 62 47 86 0 10 7 13 23 9 36 -8 149 -36 187 -45 19 -5 40
-17 47 -26 7 -10 13 -14 13 -10 0 5 6 3 14 -3 7 -6 35 -13 60 -15 48 -3 86
-30 78 -54 -2 -8 3 -10 15 -6 15 5 16 4 3 -5 -13 -10 -13 -13 2 -25 10 -7 14
-16 10 -21 -4 -4 4 -4 18 -1 18 5 21 4 11 -2 -12 -9 -12 -13 2 -27 15 -15 15
-18 2 -31 -17 -18 -19 -30 -5 -39 6 -4 7 1 3 12 -4 11 -2 15 3 10 5 -5 10 -23
12 -40 5 -63 8 -83 16 -96 4 -7 6 -13 5 -14 -2 -1 -27 -23 -56 -49 l-51 -47
26 -17 c20 -13 23 -19 12 -22 -8 -3 -30 -18 -48 -33 -38 -33 -88 -39 -95 -11
-4 16 -5 16 -6 -1 -1 -13 -7 -16 -26 -11 -18 4 -25 2 -25 -8 0 -7 -12 -22 -27
-33 -15 -11 -38 -31 -50 -44 l-23 -24 -42 29 c-24 16 -101 72 -173 124 -71 53
-135 99 -141 103 -7 4 -10 -14 -9 -58 2 -51 8 -73 31 -109 16 -25 32 -46 37
-46 4 0 7 -5 7 -11 0 -6 11 -20 25 -31 14 -11 25 -26 25 -33 0 -8 15 -21 33
-30 17 -8 50 -31 72 -50 22 -19 45 -35 52 -35 6 0 18 -6 25 -13 7 -7 28 -23
45 -36 29 -20 33 -20 33 -5 0 16 1 16 18 1 10 -10 23 -17 29 -17 6 0 14 -6 17
-12 5 -10 7 -10 12 0 3 6 11 9 17 5 6 -4 8 0 4 10 -3 10 -2 17 2 17 5 0 11 -5
13 -12 3 -8 12 -4 25 9 l21 21 -2 -38 c-1 -32 -4 -37 -18 -29 -32 17 -40 -45
-12 -89 11 -17 12 -27 4 -37 -8 -10 -4 -18 17 -35 21 -16 24 -23 14 -29 -8 -5
-9 -11 -3 -15 5 -3 13 2 16 11 11 28 30 -2 28 -43 -2 -21 1 -33 7 -30 5 4 13
1 17 -5 4 -8 3 -9 -4 -5 -7 4 -12 2 -12 -3 0 -6 5 -11 10 -11 6 0 10 -5 10
-11 0 -24 42 -99 60 -109 11 -6 18 -15 15 -19 -2 -5 2 -14 10 -21 8 -7 15 -9
15 -5 0 16 38 -27 50 -56 7 -16 18 -29 24 -29 12 0 44 -32 62 -64 7 -11 25
-20 44 -23 18 -2 38 -8 45 -13 7 -5 16 -6 20 -2 5 4 5 -1 2 -10 -4 -12 -2 -15
9 -11 19 7 64 -23 64 -43 0 -8 5 -12 10 -9 5 3 10 1 10 -4 0 -6 7 -11 16 -11
8 0 12 -4 9 -10 -3 -5 3 -10 15 -10 12 0 19 -4 16 -8 -2 -4 10 -9 27 -10 24
-2 28 0 17 8 -10 6 -11 10 -3 10 7 0 12 10 12 23 -1 12 2 30 6 40 4 10 3 17
-4 17 -6 0 -11 -4 -11 -10 0 -5 -12 -10 -27 -10 -36 1 -78 32 -70 53 8 20 67
33 77 17 4 -7 13 -9 20 -5 9 5 10 1 6 -16 -3 -13 -3 -18 0 -11 8 16 28 16 21
-1 -3 -7 1 -21 9 -32 12 -17 14 -17 14 -2 0 9 5 17 10 17 6 0 10 -4 10 -10 0
-5 7 -10 15 -10 8 0 15 -9 15 -20 0 -11 8 -28 18 -38 66 -71 92 -101 92 -110
0 -5 12 -17 26 -27 19 -12 23 -19 14 -25 -9 -6 -9 -9 0 -15 6 -4 15 -17 20
-29 8 -19 9 -18 10 9 0 23 3 27 10 15 5 -8 10 -25 10 -37 0 -13 5 -23 10 -23
6 0 8 -11 4 -26 -6 -24 -4 -26 24 -23 35 4 72 -27 72 -59 0 -13 9 -21 25 -24
28 -6 29 -4 14 24 -6 11 -9 22 -6 24 10 10 57 -9 57 -22 0 -19 -16 -18 -24 1
-3 8 -11 15 -17 15 -7 0 -5 -8 6 -20 16 -17 16 -21 2 -35 -9 -9 -20 -17 -24
-18 -4 -1 -7 -6 -5 -12 1 -5 -4 -1 -13 9 -8 11 -18 17 -22 13 -3 -4 2 -16 12
-27 24 -26 11 -26 -15 0 -27 27 -65 26 -84 -2 -9 -12 -16 -17 -16 -10 0 28
-29 -16 -32 -49 -3 -29 -5 -25 -12 24 -6 38 -13 57 -22 57 -8 0 -14 7 -14 15
0 7 -6 18 -13 22 -7 4 -18 24 -24 43 l-11 35 -1 -45 c-2 -69 -18 -114 -60
-167 -68 -87 -216 -143 -335 -128 -57 8 -144 44 -192 80 -17 13 -35 21 -39 17
-5 -4 -5 -2 -1 5 3 6 0 15 -8 20 -7 4 -23 24 -35 43 l-20 34 3 -35 c2 -20 5
-40 8 -45 7 -11 4 -52 -5 -60 -3 -3 -4 8 -2 25 2 17 2 31 1 31 -2 0 -18 -13
-35 -29 -40 -38 -41 -55 -1 -46 18 4 30 3 30 -4 0 -5 -26 -11 -57 -13 -46 -2
-59 -7 -61 -20 -3 -14 3 -18 23 -18 15 0 24 4 20 10 -4 6 7 10 25 10 18 0 29
-4 25 -10 -3 -6 4 -11 17 -11 15 -1 11 -4 -12 -8 -23 -4 -36 -12 -38 -25 -4
-17 1 -18 37 -13 61 8 74 -18 55 -115 -4 -20 -10 -26 -26 -23 -16 4 -19 0 -16
-18 8 -39 -37 -66 -98 -59 -30 4 -34 7 -28 26 6 19 5 20 -7 3 -13 -16 -14 -15
-15 13 -1 19 4 30 12 30 8 0 14 4 14 10 0 5 -6 7 -14 4 -10 -4 -13 0 -10 13 2
10 0 25 -5 33 -9 13 -12 12 -24 -4 -8 -11 -19 -16 -25 -12 -18 11 -14 23 10
30 20 6 18 9 -24 28 -48 22 -62 38 -33 38 8 0 15 5 15 10 0 6 -7 10 -15 10
-21 0 -19 17 2 24 10 3 -1 4 -25 2 l-42 -4 0 47 c0 26 -5 52 -11 58 -8 8 -8
13 0 17 18 11 13 34 -9 41 -10 3 -37 1 -60 -6 -33 -10 -40 -16 -40 -38 0 -15
-9 -33 -20 -41 -11 -8 -20 -21 -20 -29 0 -19 39 -51 62 -51 10 0 18 -4 18 -10
0 -13 -37 -13 -42 1 -2 6 -29 12 -61 13 l-57 4 -2 -42 -1 -41 -4 40 c-3 22
-10 43 -16 47 -8 5 -6 8 6 8 9 0 17 7 17 15 0 8 -7 15 -16 15 -27 0 -9 24 27
38 l34 13 -34 -6 c-18 -3 -39 -5 -45 -5 -6 0 -20 -7 -30 -15 -20 -15 -20 -15
0 -30 19 -15 8 -20 -20 -9 -20 8 -21 28 -2 43 14 12 11 51 -4 51 -5 0 -6 -9
-3 -20 4 -14 0 -20 -11 -20 -9 0 -16 7 -16 15 0 18 -16 20 -26 4 -3 -6 -1 -15
6 -19 9 -6 7 -11 -9 -20 -19 -9 -26 -9 -40 4 -24 21 -50 21 -46 -1 1 -10 0
-13 -2 -6 -2 6 -14 14 -26 16 l-22 4 23 2 c36 2 29 37 -9 45 -47 9 -49 8 -49
-19 0 -17 -6 -25 -17 -26 -10 -1 -27 -3 -38 -4 -11 -1 -39 -2 -62 -3 -59 -3
-54 -22 5 -24 38 -1 41 -2 13 -5 -19 -3 -45 -2 -58 2 -20 5 -22 9 -13 20 9 11
7 14 -12 18 -13 2 5 1 40 -1 59 -5 62 -4 62 18 0 22 -2 23 -65 16 -42 -4 -65
-3 -65 4 0 5 11 10 25 10 34 0 32 18 -2 23 l-28 4 28 2 c15 0 27 5 27 10 0 5
3 18 6 28 4 13 3 15 -4 5 -14 -20 -47 -10 -50 16 -2 12 -9 22 -17 22 -7 0 -15
6 -18 13 -4 10 -7 10 -18 0 -7 -7 -23 -13 -36 -13 l-23 0 0 -1120 0 -1120 891
0 c838 0 893 1 905 18 13 16 13 16 14 0 0 -13 8 -18 26 -18 19 0 25 4 21 14
-4 10 -1 13 9 9 7 -3 14 1 14 7 0 17 63 112 86 131 17 13 -2 -24 -43 -86 -7
-11 -13 -24 -13 -29 0 -5 28 32 62 83 51 76 60 94 48 103 -12 8 -12 9 2 4 20
-6 53 46 44 70 -3 8 0 13 7 11 7 -1 11 6 11 15 -1 10 2 16 6 13 9 -5 42 29 39
41 -4 21 2 34 21 44 17 9 19 8 13 -7 -3 -10 4 -6 16 9 12 15 19 33 15 39 -4 7
-3 9 3 6 10 -6 46 36 49 58 0 6 2 14 2 18 1 4 10 3 20 -2 12 -6 23 -6 33 1 11
8 10 9 -5 4 -15 -5 -17 -4 -7 8 9 10 9 15 0 18 -7 2 -4 13 10 28 11 14 34 42
51 64 42 54 38 30 -5 -30 -41 -58 -46 -82 -7 -38 30 34 67 95 64 107 -1 4 2 7
6 7 33 0 57 145 28 170 -9 7 -14 16 -11 20 3 5 -4 12 -16 15 -15 5 -25 2 -32
-10 -18 -33 -47 -55 -72 -55 -28 0 -75 19 -75 31 0 5 -11 14 -24 21 -14 7 -40
33 -59 58 -33 44 -34 47 -20 74 18 34 14 40 -23 26 -15 -6 -38 -9 -50 -6 -13
4 -26 2 -29 -4 -8 -13 -45 -13 -45 0 0 6 4 10 9 10 21 0 75 57 92 98 19 43 19
46 2 65 -18 19 -18 19 18 -1 19 -11 49 -23 67 -26 21 -5 29 -12 25 -22 -3 -10
2 -14 18 -14 19 0 21 -2 9 -10 -8 -5 -11 -12 -7 -16 3 -4 13 -1 22 6 12 10 16
9 21 -3 5 -13 18 -18 82 -32 16 -4 62 -52 62 -66 0 -5 18 -9 40 -9 33 0 40 -3
40 -20 0 -17 7 -20 40 -20 45 0 51 6 18 20 -22 8 -22 9 4 9 14 1 28 6 30 13 7
21 29 -3 23 -25 -5 -20 -5 -20 5 -4 6 10 12 38 13 63 1 25 6 43 12 40 6 -2 9
14 6 42 -2 29 0 42 7 38 6 -3 12 -1 15 6 2 7 3 3 1 -9 -2 -11 -7 -29 -11 -39
-4 -10 -2 -15 3 -11 5 3 25 48 44 101 23 64 37 90 41 78 20 -54 22 249 3 346
l-6 32 -20 -25 c-30 -38 -73 -56 -136 -57 -65 -1 -102 15 -146 61 -36 38 -48
117 -22 155 21 33 22 53 1 36 -9 -7 -15 -8 -15 -2 0 15 95 71 143 83 31 9 56
9 100 0 31 -7 57 -16 57 -21 0 -4 -9 -6 -19 -3 -11 3 -28 0 -38 -7 -16 -10
-15 -11 10 -7 15 2 27 0 27 -5 0 -5 5 -6 10 -3 6 3 10 -1 10 -9 0 -9 4 -16 8
-16 5 0 9 37 9 83 1 78 13 168 29 212 5 16 0 13 -27 -11 -37 -34 -116 -89
-165 -116 -56 -30 -163 -115 -156 -123 4 -5 2 -5 -5 -2 -14 9 -45 -2 -38 -13
5 -7 -22 -20 -55 -25 -8 -2 -27 -6 -42 -10 -18 -5 -28 -3 -28 4 0 6 12 11 28
11 25 0 23 4 -38 59 -36 32 -70 56 -76 54 -19 -7 -25 14 -9 30 8 9 15 20 15
26 0 6 5 11 11 11 5 0 7 -5 3 -12 -4 -7 -3 -8 5 -4 6 4 8 12 5 18 -4 6 -3 9 2
5 5 -3 18 1 29 9 10 8 13 14 6 14 -7 0 -9 6 -6 13 4 6 0 4 -8 -5 -8 -10 -18
-18 -23 -18 -15 0 -80 -83 -78 -100 0 -8 2 -23 2 -32 2 -12 8 -16 20 -12 11 4
8 -1 -8 -15 -14 -11 -33 -21 -42 -21 -15 0 -17 -7 -11 -47 7 -60 22 -91 33
-73 5 8 10 1 15 -21 11 -51 60 -108 87 -101 16 4 19 2 13 -8 -6 -10 -4 -12 9
-7 10 4 16 2 15 -6 -4 -23 12 -46 28 -40 11 4 14 2 9 -5 -7 -12 5 -16 31 -13
8 1 10 -5 6 -15 -5 -13 -3 -16 10 -11 11 4 14 2 10 -9 -3 -9 0 -14 8 -12 7 2
14 -6 15 -17 1 -11 3 -25 5 -31 2 -6 -10 -22 -27 -37 -27 -23 -31 -24 -41 -9
-5 9 -48 44 -94 76 -46 33 -129 94 -183 135 -97 73 -155 96 -152 63 1 -21 -30
-23 -46 -4 -11 13 -11 15 2 7 12 -7 13 -6 2 6 -7 8 -18 14 -25 14 -7 0 -11 13
-10 30 l2 30 -28 -33 c-15 -17 -31 -29 -34 -25 -11 11 -8 25 4 17 7 -4 10 4 8
22 -3 45 12 124 25 125 6 0 47 6 91 13 44 7 82 10 85 5 6 -9 32 -13 63 -11 13
2 17 11 17 42 0 22 6 49 12 60 10 15 10 24 1 39 -10 16 -8 20 10 30 l22 12
-23 -5 c-24 -4 -27 1 -13 23 6 8 14 10 22 5 8 -5 19 -9 24 -10 6 -1 19 -5 30
-9 16 -6 17 -5 5 4 -13 9 -13 11 1 11 9 0 32 2 50 5 l34 6 -30 -15 -30 -14 28
1 c25 1 32 9 28 31 -1 5 5 6 14 2 10 -3 13 -2 10 5 -4 5 -16 7 -27 3 -15 -4
-18 -3 -13 6 4 6 18 10 31 7 13 -2 22 1 21 7 -1 6 9 12 21 14 18 3 23 9 19 22
-3 13 0 17 9 13 9 -3 12 -14 8 -32 -11 -49 -13 -53 -34 -46 -11 3 -20 2 -20
-3 0 -20 39 -6 92 33 31 24 55 45 53 47 -2 2 5 4 16 5 11 1 64 31 117 67 103
69 177 106 170 85 -2 -7 -35 -30 -73 -51 -39 -22 -80 -50 -91 -64 -12 -13 -26
-24 -33 -24 -6 0 -11 -5 -11 -11 0 -5 5 -7 12 -3 6 4 8 3 5 -3 -3 -5 12 -25
35 -43 56 -47 70 -61 64 -68 -3 -3 -16 3 -28 14 -18 15 -20 16 -9 2 12 -16 10
-18 -19 -18 -33 0 -33 0 -14 -21 19 -22 19 -22 -3 -10 -28 14 -68 54 -76 75
-4 9 -13 16 -22 16 -8 0 -15 6 -15 13 -1 6 -9 2 -20 -11 -11 -13 -24 -21 -30
-17 -5 3 -10 1 -10 -6 0 -13 89 -99 103 -99 12 0 -21 58 -40 69 -16 9 -16 10
3 11 18 0 47 -38 46 -60 -1 -12 33 -40 44 -36 11 4 252 171 267 185 6 6 35
133 41 181 1 9 5 20 8 26 4 5 18 73 32 151 31 176 48 243 85 329 16 38 43 110
61 159 18 50 38 96 44 104 8 10 8 13 0 8 -6 -3 -25 10 -42 29 -27 30 -30 39
-21 57 10 21 9 21 -5 3 -14 -17 -17 -16 -58 22 -83 78 -112 100 -122 95 -5 -4
0 -13 12 -21 12 -8 22 -19 22 -24 0 -6 -16 4 -35 21 -20 17 -42 31 -50 31 -18
0 -19 12 -2 29 17 17 -19 4 -55 -21 -14 -10 -30 -18 -36 -18 -5 0 -15 -7 -22
-15 -7 -8 -16 -12 -21 -9 -5 3 -14 0 -21 -6 -22 -18 -192 -126 -228 -145 -19
-10 -37 -21 -40 -25 -7 -10 -53 -34 -65 -35 -5 0 -39 -22 -75 -48 -36 -27 -92
-63 -124 -80 -65 -35 -84 -60 -43 -55 14 2 80 40 148 84 68 44 189 122 269
173 80 50 174 110 209 133 76 50 57 58 241 -101 109 -94 129 -116 118 -127 -7
-7 -69 -50 -138 -96 -69 -46 -216 -146 -328 -221 -151 -102 -210 -137 -233
-137 -32 0 -45 10 -258 215 -46 44 -80 73 -75 65 7 -13 5 -13 -9 -1 -9 7 -17
17 -17 21 0 9 114 85 465 310 132 84 242 157 243 162 2 4 8 6 13 2 5 -3 9 -1
9 4 0 5 11 14 24 20 21 9 27 8 40 -11 13 -17 12 -14 -2 15 -16 36 -32 49 -32
28 0 -23 -20 -7 -32 26 -9 26 -14 31 -18 18 -4 -11 -19 -17 -47 -18 -35 -2
-43 2 -57 25 -9 15 -16 38 -16 52 0 16 -10 31 -27 42 -14 10 -36 28 -48 41
l-22 24 -10 -23 c-6 -12 -75 -67 -154 -123 -79 -55 -243 -170 -364 -256 -274
-193 -258 -184 -293 -159 -131 98 -457 369 -457 381 0 14 46 51 178 145 37 26
52 42 44 47 -9 6 -9 8 1 8 8 0 11 10 6 33 -3 17 -7 55 -9 82 -7 80 -9 89 -27
109 -10 11 -15 22 -12 25 3 3 13 -4 21 -17 9 -12 25 -23 37 -23 17 -1 17 -2 4
-6 -10 -2 -18 -9 -18 -14 0 -4 12 -3 26 3 15 7 21 14 15 16 -20 7 -12 22 12
22 12 0 28 4 36 9 9 6 19 5 26 -2 15 -14 8 -37 -11 -37 -8 0 -14 -4 -14 -10 0
-14 26 -12 42 3 15 14 123 24 115 10 -3 -5 13 -8 36 -7 23 1 43 7 45 13 2 6 8
9 13 6 5 -3 32 10 61 29 29 20 76 51 104 70 89 60 102 58 203 -24 35 -28 60
-46 56 -38 -3 7 1 4 10 -7 17 -21 77 -30 105 -15 26 14 90 21 90 10 0 -6 5
-10 10 -10 7 0 7 8 -1 23 -6 12 -9 19 -5 16 3 -3 21 8 40 25 29 27 189 131
254 165 27 14 61 -4 172 -90 36 -27 98 -76 139 -107 113 -88 165 -133 172
-150 17 -45 -74 -126 -180 -161 -99 -32 -104 -31 -211 54 -36 29 -117 89 -180
135 -63 45 -130 96 -148 113 -22 21 -32 26 -34 16 0 -7 -2 -19 -2 -25 -1 -6
-8 -20 -16 -30 -8 -10 -10 -15 -4 -11 6 3 18 -7 28 -24 9 -16 14 -29 10 -29
-3 0 -1 -6 5 -13 6 -8 8 -17 4 -20 -3 -4 -1 -7 5 -7 7 0 20 -8 30 -18 10 -10
35 -28 55 -41 24 -14 36 -29 33 -37 -4 -10 2 -14 19 -14 29 0 34 -16 8 -23
-14 -4 -12 -5 5 -6 13 -1 22 -7 22 -17 0 -8 4 -13 9 -10 10 6 61 -16 61 -26 0
-5 9 -8 20 -8 11 0 20 -5 20 -11 0 -6 7 -8 16 -5 11 4 15 2 11 -8 -3 -8 1 -17
9 -20 24 -9 31 -7 14 4 -13 8 -12 10 3 10 14 0 17 -5 12 -20 -4 -12 -2 -20 5
-20 6 0 10 -5 8 -11 -4 -13 -23 -13 -23 0 0 18 -13 22 -19 6 -3 -9 1 -18 9
-21 8 -4 13 -10 10 -14 -3 -5 4 -6 14 -3 13 3 25 -3 36 -21 11 -17 24 -25 34
-21 10 3 23 -3 31 -15 8 -11 22 -20 32 -20 10 0 18 -7 18 -15 0 -11 11 -15 40
-15 33 0 40 -3 40 -20 0 -23 37 -36 71 -25 13 5 19 3 15 -3 -3 -6 -3 -17 0
-26 11 -28 30 5 37 61 4 40 14 61 37 87 58 63 117 79 193 52 l38 -14 -3 475
-2 475 34 28 c49 40 217 140 235 140 12 0 11 10 -10 49 -31 62 -16 77 20 21
14 -22 36 -51 48 -63 12 -12 39 -42 61 -67 63 -74 198 -212 246 -253 81 -70
88 -75 117 -91 15 -8 24 -15 19 -16 -5 0 9 -13 32 -29 22 -16 43 -34 47 -40 3
-6 16 -11 28 -11 13 0 36 -12 53 -27 18 -16 37 -29 45 -31 7 -2 20 -7 29 -12
13 -8 13 -9 0 -10 -13 0 -13 -1 0 -10 19 -12 33 -13 26 -1 -4 5 3 7 13 4 11
-3 19 -13 18 -23 -1 -21 -32 -16 -62 10 -19 17 -59 35 -61 28 -1 -2 -10 4 -20
12 -11 9 -39 26 -64 40 -147 78 -356 257 -478 408 l-78 98 -25 -17 c-13 -9
-64 -43 -113 -75 -139 -93 -126 -34 -126 -562 l0 -456 25 -26 c31 -32 69 -160
85 -283 13 -99 12 -117 -24 -241 -8 -28 -17 -62 -19 -76 -3 -14 -8 -41 -12
-61 -4 -23 -2 -46 5 -59 7 -13 8 -20 2 -16 -15 9 -2 -268 14 -309 11 -28 79
-128 97 -144 9 -7 13 -20 10 -29 -4 -13 -3 -14 5 -4 13 19 157 -159 202 -248
28 -55 30 -65 17 -75 -12 -9 -14 -29 -10 -115 5 -94 3 -109 -16 -143 -11 -20
-23 -56 -26 -80 -3 -23 -10 -43 -15 -45 -5 -2 -12 -19 -16 -38 -3 -19 -10 -37
-15 -40 -5 -3 -9 -16 -9 -28 0 -38 -25 -88 -64 -128 -20 -20 -36 -42 -36 -47
0 -6 -6 -14 -13 -18 -7 -4 -18 -21 -25 -37 -7 -16 -15 -26 -19 -23 -3 3 -19
-11 -37 -31 -17 -21 -53 -58 -81 -82 -65 -59 -65 -58 -125 -177 -29 -56 -76
-138 -106 -184 -30 -45 -54 -86 -54 -91 0 -4 -3 -8 -7 -8 -5 0 -19 -17 -33
-37 -14 -21 -32 -44 -40 -53 -9 -9 -28 -32 -44 -52 -15 -21 -36 -40 -47 -43
-10 -4 -19 -12 -19 -20 0 -7 -11 -16 -25 -19 -14 -4 -25 -11 -25 -16 0 -5 -11
-20 -24 -33 -12 -13 -25 -30 -28 -38 -4 -12 -7 -12 -22 0 -9 8 -19 11 -23 7
-3 -3 -1 -6 5 -6 7 0 12 -10 11 -22 0 -13 -3 -17 -6 -10 -6 16 -23 15 -23 -2
0 -8 -12 -17 -26 -20 -18 -5 -24 -12 -20 -22 3 -8 2 -13 -3 -10 -12 8 -53 -44
-47 -59 3 -9 0 -12 -9 -9 -8 4 -15 -5 -20 -25 -4 -17 -14 -39 -23 -48 -16 -16
-16 -16 0 -11 20 8 32 -27 17 -53 -5 -10 -9 -20 -9 -23 0 -3 1712 -6 3805 -6
l3805 0 0 4936 0 4935 -35 15 c-45 19 -45 19 -45 -15 0 -25 -5 -30 -32 -36
-18 -4 -36 -12 -39 -17 -3 -5 -7 17 -8 49 -1 41 -6 62 -18 71 -16 11 -16 12 0
12 9 0 17 7 17 15 0 8 -9 15 -20 15 -11 0 -20 -4 -20 -10z m-4792 -430 l193 0
-3 -22 c-3 -23 -5 -23 -177 -26 -133 -2 -176 1 -183 10 -6 10 -8 10 -8 1 0 -8
-15 -13 -39 -13 -30 0 -40 4 -44 20 -6 24 19 42 48 35 11 -3 107 -5 213 -5z
m-20 -104 c111 -3 207 -8 212 -11 6 -3 10 -13 10 -21 0 -15 -40 -18 -250 -19
-94 0 -106 2 -117 20 -11 18 -12 18 -13 3 0 -14 -9 -18 -43 -18 -43 0 -43 1
-39 30 3 23 9 29 21 25 9 -2 107 -7 219 -9z m181 -102 c25 -5 31 -12 31 -31
l0 -25 -180 4 -180 3 0 28 0 27 149 0 c82 0 163 -3 180 -6z m3 -127 c4 -6 2
-19 -3 -29 -8 -15 -22 -18 -79 -18 -66 0 -70 1 -71 23 l0 22 -11 -22 c-11 -23
-13 -23 -215 -23 -169 0 -203 2 -203 14 0 44 -3 43 293 43 190 1 284 -3 289
-10z m694 -89 c-3 -13 -6 -40 -6 -60 0 -21 -4 -38 -10 -38 -5 0 -10 12 -10 28
0 26 -1 26 -22 -11 -23 -40 -60 -57 -86 -40 -20 12 -48 68 -56 111 l-5 32 100
0 c100 0 101 0 95 -22z m-1065 -20 c0 -10 2 -10 6 0 3 9 60 12 234 12 l229 0
0 -25 0 -25 -236 0 c-185 0 -234 3 -229 13 4 6 0 4 -8 -5 -12 -15 -31 -18
-106 -18 l-91 0 0 30 0 30 100 0 c73 0 100 -3 101 -12z m-98 -97 c9 -1 17 -8
17 -16 0 -8 5 -15 10 -15 6 0 10 7 10 15 0 13 32 15 228 14 125 0 235 -4 245
-7 16 -7 16 -10 3 -27 -13 -19 -29 -20 -242 -23 -178 -2 -229 0 -235 10 -6 8
-9 9 -9 2 0 -8 -22 -11 -62 -10 -60 1 -63 2 -66 28 -3 21 2 27 20 31 13 2 32
3 43 1 11 -1 28 -3 38 -3z m2577 -246 c124 -79 260 -165 303 -191 65 -41 77
-52 77 -75 0 -25 -100 -229 -402 -819 -136 -266 -176 -337 -194 -344 -7 -3
-95 50 -196 117 -101 67 -224 148 -274 179 -146 93 -145 58 -9 340 219 454
458 938 464 938 3 0 107 -65 231 -145z m-1963 119 c14 -36 -10 -39 -280 -36
-144 2 -265 6 -269 8 -5 3 -8 14 -8 25 0 18 9 19 275 19 241 0 276 -2 282 -16z
m-2037 -219 c0 -43 9 -56 31 -42 16 10 26 8 57 -8 29 -16 37 -26 36 -48 0 -15
-1 -151 -2 -304 -1 -152 -5 -273 -9 -269 -8 8 -10 13 -12 43 0 9 -4 13 -8 10
-4 -4 -19 4 -34 19 -33 31 -65 29 -62 -4 2 -14 -1 -21 -7 -17 -6 3 -10 3 -10
-1 0 -7 70 -78 80 -80 33 -9 50 -19 50 -30 0 -8 -3 -14 -7 -14 -14 0 -121 76
-133 94 -8 12 -11 79 -10 220 0 158 -2 205 -13 220 -13 17 -15 2 -20 -125 -3
-79 -8 -162 -10 -184 -2 -22 0 -50 4 -62 12 -34 -8 -29 -64 15 l-48 37 -3 190
c-3 203 0 232 26 248 24 15 72 -9 100 -49 13 -19 26 -34 30 -34 12 0 20 45 21
128 1 44 5 78 10 75 4 -2 7 -15 7 -28z m2579 -102 c-1 -65 -4 -104 -6 -88 -7
56 -10 58 -43 35 -16 -12 -29 -26 -27 -33 1 -8 -9 -11 -28 -10 -45 3 -85 53
-85 104 l0 41 88 -4 c84 -3 87 -2 90 20 3 21 1 22 -92 22 -79 0 -96 3 -96 15
0 12 18 15 100 15 l100 0 -1 -117z m-685 -203 c5 -5 6 -16 3 -24 -6 -14 -44
-16 -337 -16 l-331 1 3 22 c2 17 11 23 38 27 58 8 614 -1 624 -10z m684 -25
c1 -1 4 -21 6 -44 3 -35 1 -41 -14 -39 -10 2 -29 -11 -44 -29 -34 -40 -54 -41
-88 -5 -50 53 -62 103 -30 121 14 8 159 5 170 -4z m-1044 -61 c9 -3 16 -17 16
-30 l0 -24 -160 0 c-153 0 -160 1 -160 20 0 26 19 29 165 33 66 1 121 4 122 5
1 1 8 -1 17 -4z m401 -29 c0 -19 -8 -20 -187 -23 -151 -2 -188 0 -188 11 0 34
22 37 200 35 167 -3 175 -4 175 -23z m606 -209 c26 -43 24 -61 -10 -85 -78
-56 -160 14 -120 103 21 46 97 36 130 -18z m-761 -70 l0 -25 -222 -3 c-123 -2
-224 -3 -225 -3 -1 0 1 12 4 28 l5 27 219 0 219 0 0 -24z m2932 17 l57 10 68
-44 c37 -24 76 -51 86 -60 24 -22 57 -31 57 -16 0 6 6 3 13 -8 13 -19 22 -75
12 -75 -14 0 -95 57 -95 67 0 7 -7 13 -16 13 -9 0 -41 18 -73 40 -31 22 -64
40 -74 40 -14 0 -269 -150 -367 -216 -38 -26 -60 -31 -60 -12 0 6 3 9 6 5 3
-3 16 5 28 18 11 13 71 57 133 98 61 42 109 78 106 80 -2 3 3 4 13 4 12 -2 20
9 26 32 5 19 13 30 16 24 5 -7 24 -8 64 0z m670 -15 c54 -16 90 -60 86 -106
-2 -27 -12 -42 -41 -66 -36 -29 -45 -31 -117 -31 -91 0 -126 18 -148 78 -19
48 -1 83 57 114 49 25 103 29 163 11z m-3432 -113 l0 -25 -175 0 -175 0 0 25
0 25 175 0 175 0 0 -25z m3859 -11 c36 -8 41 -29 9 -38 l-23 -7 23 -11 c12 -6
22 -15 22 -19 0 -4 9 -6 21 -4 14 3 19 0 16 -8 -3 -7 3 -14 14 -14 21 -2 26
13 7 20 -10 4 -10 6 -1 6 23 2 24 -20 1 -47 -14 -17 -31 -26 -43 -24 -16 3
-17 1 -5 -7 10 -7 11 -11 3 -11 -7 0 -13 -7 -13 -15 0 -8 -6 -15 -14 -15 -23
0 -28 18 -9 29 15 9 12 10 -17 11 -27 0 -38 6 -47 25 -6 14 -7 25 -2 25 5 0 9
6 9 14 0 8 8 17 18 19 9 2 2 2 -16 0 -28 -4 -33 -1 -30 14 2 10 12 19 23 21
46 7 51 13 25 27 -28 16 -19 18 29 9z m-2905 -95 c19 20 56 29 56 13 0 -12 69
-44 80 -37 17 10 25 -25 34 -135 1 -14 5 -31 10 -38 4 -7 5 -16 2 -19 -3 -3 5
-14 17 -25 22 -19 22 -19 -11 -3 -19 9 -30 20 -26 27 4 6 3 8 -3 5 -6 -4 -29
2 -51 13 -23 11 -50 20 -60 20 -11 0 -22 7 -26 15 -3 8 -11 15 -17 15 -8 0 -8
-4 1 -15 10 -13 9 -15 -10 -15 -17 0 -21 5 -17 19 2 11 -3 25 -14 35 -23 19
-25 44 -4 52 8 4 12 10 9 15 -11 18 -15 61 -7 82 6 19 8 18 13 -12 l5 -33 19
21z m1930 -108 c-2 -3 -9 0 -15 6 -9 9 -23 6 -55 -9 -41 -20 -53 -43 -16 -32
14 5 14 4 2 -4 -8 -6 -26 -9 -40 -6 -20 4 -29 -2 -47 -30 -16 -25 -28 -34 -39
-29 -12 4 -15 2 -12 -8 3 -8 -13 -25 -39 -42 -24 -16 -43 -35 -43 -44 0 -9 -8
-13 -22 -11 -18 2 -23 -2 -25 -27 -1 -19 5 -36 18 -48 17 -16 18 -21 7 -35
-20 -27 -22 -28 -15 -9 4 10 2 17 -5 17 -6 0 -8 3 -5 7 4 3 -9 17 -28 30 -36
25 -50 29 -40 13 9 -14 -8 -13 -23 2 -19 19 -14 -3 6 -25 16 -19 16 -20 0 -14
-24 8 -23 -6 2 -28 11 -10 26 -15 35 -11 9 3 22 0 30 -7 11 -11 10 -16 -6 -26
-17 -10 -24 -8 -48 16 -16 15 -42 40 -59 55 l-31 27 -16 -21 c-8 -13 -15 -18
-15 -13 0 6 -7 1 -15 -9 -8 -11 -15 -14 -15 -7 0 7 -5 9 -12 5 -6 -4 -8 -3 -5
3 4 6 0 16 -8 23 -14 11 -14 15 2 33 29 32 142 109 151 103 9 -6 217 123 284
175 20 16 51 36 70 44 33 14 33 13 65 -23 17 -20 29 -39 27 -41z m-2359 -21
c8 -7 15 -21 15 -31 0 -17 -2 -17 -44 -2 -42 16 -44 16 -75 -6 -61 -44 -49
-118 22 -135 37 -10 49 -32 22 -42 -42 -16 -115 39 -130 99 -16 64 65 142 138
133 21 -2 44 -10 52 -16z m3112 -41 c33 -12 43 -26 43 -58 0 -38 -27 -61 -74
-61 -48 0 -86 23 -86 51 0 24 52 79 74 79 8 0 27 -5 43 -11z m-647 -43 c0 -46
8 -54 51 -49 36 5 69 -8 69 -27 0 -4 -23 -22 -50 -41 -28 -19 -59 -47 -69 -64
-10 -16 -45 -45 -77 -64 -32 -19 -82 -54 -111 -78 -28 -24 -54 -43 -57 -43 -3
0 -113 -76 -243 -168 -256 -181 -465 -322 -477 -322 -4 0 -82 -51 -174 -114
-259 -175 -271 -181 -312 -130 -14 16 -13 17 10 10 59 -18 66 -16 147 37 45
29 102 70 127 91 25 20 89 66 143 102 95 64 125 91 100 91 -13 0 -223 148
-232 164 -4 5 7 17 24 27 17 9 31 21 31 25 0 5 4 6 9 2 6 -3 25 7 43 23 55 47
138 106 253 182 61 40 112 76 115 80 8 11 38 19 45 12 4 -4 10 -7 13 -7 4 0
21 -10 38 -22 66 -47 79 -47 142 -3 70 50 158 114 195 143 16 12 39 28 52 37
134 90 170 116 173 123 8 16 22 5 22 -17z m-1761 -63 l22 -18 -31 -37 c-33
-40 -62 -56 -152 -83 -60 -17 -75 -17 -70 1 1 6 -9 16 -22 24 -32 17 -40 47
-15 61 15 7 27 6 49 -8 17 -9 30 -22 30 -28 0 -7 7 -12 15 -12 8 0 15 4 15 9
0 4 5 8 11 8 21 0 119 75 114 88 -6 17 9 15 34 -5z m2701 -48 c0 -9 -12 -28
-26 -42 -20 -20 -23 -28 -13 -37 6 -6 10 -6 7 -1 -3 6 5 21 18 35 13 13 24 19
24 13 0 -7 -4 -15 -10 -18 -5 -3 -10 -12 -10 -18 0 -9 3 -8 8 1 11 16 72 12
72 -5 0 -7 -17 -15 -37 -19 -31 -6 -34 -8 -18 -14 11 -4 25 -3 32 2 6 5 3 -13
-8 -41 -10 -28 -16 -51 -11 -51 4 0 2 -4 -5 -8 -6 -4 -20 -30 -30 -57 -10 -28
-23 -48 -28 -45 -11 5 -11 11 0 66 l6 37 -32 -19 c-23 -14 -37 -33 -48 -66 -9
-26 -22 -53 -28 -60 -16 -15 -17 -5 -2 63 10 45 9 53 -6 68 -10 9 -15 10 -11
4 4 -7 3 -13 -1 -13 -5 0 -9 -10 -10 -22 -2 -110 -3 -118 -18 -118 -12 0 -15
15 -15 75 0 60 -3 75 -15 75 -12 0 -15 -16 -15 -80 0 -61 -3 -80 -14 -80 -18
0 -26 31 -26 108 0 49 -5 70 -20 89 -21 27 -26 45 -11 41 5 -2 19 4 32 12 28
18 89 74 72 65 -9 -4 -13 2 -13 19 0 20 4 24 18 19 15 -6 16 -5 2 13 -14 17
-14 18 2 6 10 -8 26 -11 38 -7 27 8 70 -2 70 -16 0 -7 -10 -9 -24 -5 -14 3
-37 1 -51 -6 l-26 -12 28 -11 c24 -11 34 -8 78 16 28 16 54 35 60 44 12 19 15
19 15 0z m-2460 -10 c-1 -10 -130 -95 -327 -216 -56 -35 -99 -67 -96 -73 3 -5
1 -6 -5 -3 -5 4 -23 -7 -39 -23 -37 -40 -106 -81 -145 -86 -17 -2 -38 -10 -48
-19 -9 -8 -20 -15 -23 -15 -28 0 25 40 246 186 138 91 266 176 282 187 86 61
158 89 155 62z m-3297 -201 c86 -60 100 -75 103 -111 0 -12 7 -29 14 -38 7 -8
9 -15 4 -15 -5 0 -25 -14 -44 -32 -19 -17 -57 -41 -84 -53 -45 -22 -47 -24
-27 -34 27 -15 30 -64 4 -59 -10 2 -17 9 -16 16 2 6 -3 9 -10 6 -7 -2 -34 9
-60 26 -25 18 -51 29 -56 25 -6 -3 -10 -31 -10 -63 1 -64 14 -86 66 -107 31
-13 52 -39 40 -51 -7 -8 -146 -21 -155 -15 -15 11 -52 64 -52 74 0 6 7 2 15
-9 13 -18 14 -17 11 16 -2 19 -1 27 1 18 10 -41 20 -12 31 90 7 59 12 127 13
152 0 25 3 39 6 33 6 -16 55 -17 70 -2 8 8 17 8 32 -1 12 -6 32 -11 44 -10 12
1 25 2 30 1 4 -1 10 -1 13 0 4 0 10 -5 14 -11 6 -9 16 -8 43 5 40 19 77 54 44
42 -13 -5 -43 12 -105 60 -48 36 -88 67 -90 68 -6 4 11 35 19 35 5 0 46 -25
92 -56z m3346 6 c12 0 21 -5 21 -10 0 -6 11 -8 24 -6 18 3 23 1 19 -10 -3 -8
-9 -11 -14 -8 -5 3 -6 -1 -3 -9 3 -9 -17 -28 -58 -54 -35 -23 -92 -61 -128
-86 -36 -24 -130 -88 -210 -141 -164 -109 -200 -135 -183 -136 24 0 70 23 138
69 39 26 147 96 241 155 95 58 195 129 223 157 43 43 54 48 71 39 32 -17 72
-62 63 -70 -13 -13 -380 -261 -470 -319 -48 -30 -80 -57 -76 -64 3 -5 2 -7 -4
-4 -6 4 -63 -25 -127 -64 -65 -38 -123 -71 -129 -72 -7 -1 -12 9 -12 23 0 14
-19 52 -42 86 l-42 61 286 189 c158 104 300 198 317 209 17 12 32 30 32 40 1
11 2 26 3 33 1 9 6 10 20 2 11 -5 29 -10 40 -10z m1362 -270 c-7 -3 22 -33 68
-69 87 -68 113 -94 91 -89 -8 2 -14 -2 -15 -9 0 -6 -4 -15 -9 -20 -5 -4 -6 -3
-2 4 17 30 -16 17 -84 -33 -41 -30 -81 -52 -88 -49 -7 3 -11 1 -8 -4 6 -10
-15 -29 -61 -54 -38 -21 -54 -22 -47 -2 4 9 0 15 -10 15 -18 0 -22 -15 -6 -25
19 -12 10 -22 -71 -79 l-81 -57 -34 36 c-18 20 -38 34 -44 30 -12 -7 42 -65
60 -65 6 0 9 -4 6 -9 -4 -5 0 -11 6 -14 10 -3 10 -8 -1 -18 -9 -9 -11 -9 -7
-1 4 7 2 12 -5 12 -7 0 -28 14 -46 32 -18 18 -33 29 -33 25 0 -3 12 -18 28
-32 l27 -25 -22 -6 c-13 -4 -20 -10 -17 -15 3 -5 13 -5 24 1 34 18 36 10 2
-10 -36 -22 -52 -25 -52 -10 0 5 8 7 18 4 14 -5 15 -4 2 5 -11 7 -20 5 -36
-10 -19 -17 -22 -18 -34 -4 -7 8 -16 12 -21 9 -5 -3 -6 2 -3 11 4 10 2 15 -7
13 -9 -2 -13 4 -11 16 2 12 -1 16 -9 10 -8 -5 -10 -3 -5 5 5 7 15 10 24 6 10
-3 4 7 -12 24 -17 17 -35 31 -40 31 -6 -1 -1 -9 12 -19 27 -23 28 -31 3 -31
-11 0 -28 -11 -39 -25 l-20 -25 -27 32 c-15 18 -23 34 -17 36 6 2 9 9 6 17 -4
9 0 12 14 9 13 -4 27 4 43 23 13 15 30 28 37 29 28 2 31 5 26 19 -4 8 -11 12
-18 8 -6 -4 -4 2 4 12 14 17 13 18 -3 12 -11 -4 -16 -3 -12 4 4 5 16 7 27 3
12 -3 18 -2 15 3 -4 5 1 10 10 10 12 0 11 -5 -7 -19 -12 -10 -17 -18 -12 -18
6 0 28 -10 49 -22 44 -27 63 -31 57 -13 -7 17 -65 45 -79 39 -5 -3 -1 2 10 11
11 9 18 22 17 28 -2 7 0 9 3 5 4 -4 22 4 40 17 17 14 36 25 41 25 5 1 25 15
44 32 19 17 30 28 24 25 -6 -3 -11 0 -11 7 0 11 4 12 18 3 13 -8 21 -7 32 5 9
9 13 19 9 23 -4 5 -2 5 5 2 6 -4 19 0 27 9 9 8 16 13 16 9 0 -3 11 6 25 21 14
15 25 24 25 20 0 -4 5 -4 11 0 8 4 7 9 -2 16 -10 6 -6 7 11 3 14 -4 32 -14 40
-22 13 -13 11 -14 -17 -8 -37 8 -42 -4 -13 -30 18 -16 20 -16 46 4 l26 21 -30
26 c-28 25 -33 54 -10 54 5 0 6 -6 2 -12 -4 -8 -3 -10 2 -5 5 5 9 14 9 20 0 7
7 12 15 13 32 2 70 17 64 25 -3 5 2 6 11 2 11 -4 13 -8 6 -13z m-3711 -111 c0
-12 -1 -12 83 11 213 59 456 71 652 32 61 -12 132 -29 160 -37 27 -9 51 -12
53 -8 7 22 22 37 29 30 4 -4 3 -15 -3 -25 -9 -14 4 -24 95 -69 132 -66 218
-130 347 -258 117 -117 175 -190 234 -298 78 -146 171 -445 169 -552 0 -31 -2
-36 -9 -20 -8 19 -9 19 -9 -2 -1 -12 2 -29 6 -39 6 -16 7 -16 15 2 7 15 7 14
3 -6 -2 -14 -5 -50 -6 -80 -1 -30 -3 -46 -6 -35 -29 136 -48 207 -64 243 -11
23 -17 48 -13 55 4 7 4 9 -1 5 -4 -4 -30 26 -57 67 -51 78 -62 86 -72 59 -5
-14 -4 -15 9 -4 21 18 19 3 -5 -27 -18 -23 -20 -24 -26 -7 -3 11 -10 27 -15
37 -5 10 -7 22 -3 28 3 5 1 15 -5 22 -6 8 -7 18 0 27 8 12 9 11 7 -4 -2 -11 4
-20 14 -21 16 -3 16 -1 2 20 -13 20 -13 26 6 57 21 37 66 159 52 143 -5 -6
-23 -44 -42 -85 -18 -41 -45 -93 -60 -115 -43 -65 -95 -160 -90 -165 3 -3 9
-4 13 -2 5 1 6 -2 2 -8 -4 -6 7 -32 23 -58 26 -41 149 -280 175 -338 6 -15 5
-35 -3 -60 -19 -59 -81 -174 -90 -169 -5 3 -6 -4 -3 -15 3 -11 0 -20 -6 -20
-6 0 -11 -7 -11 -15 0 -8 -5 -15 -11 -15 -5 0 -7 5 -4 10 3 6 1 10 -5 10 -7 0
-9 -7 -6 -16 6 -17 -22 -74 -37 -74 -4 0 -6 -4 -3 -9 3 -4 -4 -17 -15 -27 -11
-10 -17 -24 -14 -31 3 -8 0 -11 -6 -8 -6 4 -8 13 -5 21 3 7 1 16 -4 19 -6 4
-10 -5 -10 -19 0 -14 -9 -31 -22 -40 -12 -9 -17 -16 -10 -16 8 0 9 -7 1 -27
-6 -16 -11 -30 -11 -33 -1 -14 -17 -44 -17 -34 -2 24 -43 7 -124 -51 -49 -34
-83 -64 -80 -72 10 -27 -123 -247 -185 -305 -35 -33 -62 -48 -62 -34 0 2 -3
13 -6 23 -4 13 -3 15 4 4 8 -11 14 -9 36 10 14 12 26 28 26 35 0 7 8 19 18 26
27 20 64 77 57 88 -4 6 1 7 11 3 14 -5 16 -3 11 11 -4 9 -3 15 2 12 15 -10 23
45 9 62 -10 12 -10 14 0 8 7 -4 12 -2 12 7 0 8 12 22 26 32 14 9 23 19 21 22
-3 3 -25 -8 -49 -25 -24 -16 -89 -54 -145 -84 -99 -54 -101 -55 -112 -34 -10
19 -11 19 -6 1 4 -17 -14 -29 -123 -84 -70 -35 -148 -77 -174 -93 -32 -20 -54
-27 -68 -23 -11 3 -20 10 -20 14 0 5 -13 14 -30 21 -16 7 -30 16 -30 20 0 4
-11 11 -24 14 -14 3 -75 30 -135 60 -61 29 -111 52 -111 49 0 -2 -19 7 -42 20
-24 14 -49 22 -57 20 -8 -4 -11 -1 -7 6 4 6 5 11 2 11 -2 0 -13 3 -23 7 -17 6
-17 6 -1 -10 9 -9 19 -22 21 -29 4 -10 7 -10 14 -1 5 7 14 9 22 4 11 -7 10
-11 -5 -20 -18 -10 -17 -13 14 -39 18 -15 30 -31 26 -35 -4 -4 -9 -17 -11 -28
-5 -35 -32 -89 -44 -89 -6 0 -9 6 -6 13 3 8 0 14 -7 14 -7 0 -39 18 -72 40
-32 22 -97 62 -144 88 -47 26 -104 61 -128 77 l-43 30 5 -39 6 -38 -13 39 c-7
22 -19 41 -27 43 -9 3 -11 1 -5 -4 6 -4 11 -13 10 -20 0 -16 -15 -29 -15 -14
0 7 -7 11 -14 8 -11 -4 -13 -1 -9 10 5 13 2 15 -11 10 -18 -7 -124 44 -138 66
-6 9 -8 9 -8 0 0 -11 71 -73 85 -73 11 0 85 -73 97 -95 8 -13 -1 -9 -26 13
-20 18 -42 29 -48 26 -7 -4 -8 -2 -4 4 4 7 2 12 -5 12 -7 0 -21 7 -31 17 -10
9 -18 12 -18 7 0 -5 39 -46 87 -91 47 -46 81 -83 76 -83 -20 0 -235 221 -229
236 3 7 0 13 -5 11 -24 -5 -140 187 -189 315 -102 263 -104 601 -6 949 45 161
72 219 161 354 57 86 102 139 200 233 123 118 206 178 345 247 30 15 58 32 61
37 4 6 3 26 -2 47 -14 61 -10 68 16 22 14 -23 25 -47 25 -52z m2708 -84 l62
-57 -32 -22 c-18 -13 -85 -60 -148 -106 -63 -45 -129 -89 -147 -98 -31 -15
-33 -14 -80 20 -68 49 -81 55 -58 29 11 -12 15 -21 9 -19 -6 2 -46 -20 -90
-48 -104 -67 -107 -68 -150 -39 -20 14 -41 25 -45 25 -20 0 -7 31 17 40 14 6
51 29 82 53 59 44 200 139 332 222 41 26 86 57 99 69 14 12 21 15 17 6 -4 -10
-2 -9 6 2 11 15 14 15 37 -2 15 -10 54 -44 89 -75z m1766 -7 c-6 -10 32 -29
41 -20 3 4 6 3 4 -3 -1 -5 6 -28 15 -49 21 -48 15 -112 -15 -150 -28 -35 -98
-66 -151 -66 -38 0 -50 7 -105 55 -33 30 -64 55 -68 55 -7 0 -15 6 -65 49 -31
27 -33 31 -20 45 8 8 31 18 50 21 19 3 46 17 60 30 14 13 42 31 62 39 42 18
143 21 153 6 3 -5 14 -10 23 -9 11 0 12 2 4 6 -6 2 -9 9 -6 15 4 6 9 5 15 -3
4 -7 6 -16 3 -21z m-385 -217 c17 -21 31 -42 31 -47 0 -4 -3 -5 -6 -2 -7 7
-74 -59 -74 -73 0 -6 -10 -8 -22 -4 -18 5 -20 4 -8 -4 12 -9 9 -11 -15 -11
-17 0 -35 -4 -40 -9 -27 -24 -52 -21 -90 14 -22 19 -37 36 -35 38 54 40 97 74
105 80 23 20 91 55 107 56 9 1 30 -17 47 -38z m872 -32 c3 -6 18 -12 32 -12
14 -1 24 -4 22 -6 -2 -2 2 -9 8 -16 9 -10 15 -10 26 -2 11 10 13 8 7 -11 -9
-26 2 -29 20 -5 8 12 9 22 3 30 -7 8 -5 10 10 6 19 -5 19 -7 5 -28 -14 -21
-14 -24 2 -27 22 -4 27 -48 6 -48 -19 0 -52 -29 -52 -45 0 -6 11 -17 25 -23
14 -6 25 -16 25 -22 0 -16 -57 -12 -64 5 -11 30 -24 15 -16 -20 7 -29 5 -37
-10 -45 -31 -16 -47 -12 -75 22 -26 30 -27 31 -23 7 3 -21 -1 -24 -32 -24 -25
0 -44 9 -69 32 -37 33 -35 48 4 55 32 5 28 31 -7 52 -32 20 -32 20 -9 24 29 5
61 32 39 33 -10 0 -10 2 -1 6 10 3 9 8 -2 20 -8 8 -15 19 -15 24 0 12 56 4 74
-11 15 -11 56 -6 56 9 0 4 -10 8 -22 8 -18 2 -20 0 -8 -7 11 -7 12 -10 2 -10
-12 0 -42 23 -42 32 0 9 75 7 81 -3z m-1901 -37 c30 -28 30 -29 13 -49 -30
-34 -61 -38 -89 -12 -17 16 -24 18 -24 8 0 -20 12 -34 33 -42 11 -4 15 -12 11
-19 -5 -7 -2 -9 8 -6 9 4 15 0 15 -8 0 -8 -4 -14 -9 -14 -4 0 -8 -6 -8 -14 0
-7 -9 -16 -19 -19 -13 -3 -18 0 -15 7 3 7 -20 30 -50 52 -30 21 -57 45 -61 53
-4 10 -2 11 7 4 21 -16 55 -21 69 -11 11 8 10 9 -3 4 -10 -3 -18 -1 -18 4 0
15 33 50 48 50 7 0 15 7 18 15 5 12 9 13 21 4 8 -7 13 -8 12 -3 -6 31 3 30 41
-4z m1110 -48 c0 -8 -4 -14 -10 -14 -16 0 -12 -48 6 -75 10 -15 12 -25 5 -25
-6 0 -11 4 -11 9 0 10 -38 24 -57 22 -7 -1 -27 -16 -45 -33 -18 -18 -24 -25
-13 -17 18 13 19 13 7 -3 -8 -10 -20 -14 -29 -11 -11 4 -14 2 -9 -6 4 -6 4
-11 -1 -10 -21 4 -34 -2 -27 -13 5 -7 3 -8 -5 -4 -8 5 -14 0 -18 -14 -4 -13
-8 -17 -13 -11 -4 8 -24 -2 -56 -26 -27 -20 -51 -39 -54 -42 -3 -3 -9 -6 -15
-7 -34 -3 -74 -18 -69 -26 4 -6 -4 -4 -17 2 -17 10 -24 10 -27 1 -2 -6 -10
-11 -17 -11 -7 0 -16 -8 -18 -17 -3 -11 -5 -8 -6 9 -1 24 4 29 39 38 60 16
201 116 254 180 38 46 97 82 113 69 12 -11 29 23 25 51 -3 13 -2 13 7 0 6 -8
19 -16 30 -16 18 -1 19 2 9 20 -10 19 -10 20 5 7 10 -7 17 -20 17 -27z m390
-147 c0 -7 -6 -19 -12 -26 -10 -11 -10 -13 0 -7 7 4 12 1 12 -8 0 -17 -126
-116 -147 -116 -8 0 -13 -14 -13 -35 0 -58 -68 -105 -150 -105 -43 0 -103 21
-122 43 -11 12 -17 15 -13 7 4 -8 -1 -6 -9 4 -9 11 -16 24 -16 29 0 4 -4 6 -9
2 -6 -3 -8 -14 -6 -25 2 -12 0 -18 -5 -15 -5 3 -19 -4 -31 -16 -12 -12 -29
-19 -40 -16 -10 3 -23 -1 -29 -8 -15 -18 -60 -26 -53 -9 2 6 -1 15 -8 20 -7 4
-10 3 -5 -4 3 -6 2 -13 -3 -16 -5 -4 -12 2 -14 11 -4 14 -5 12 -6 -5 -1 -19
-3 -21 -15 -10 -18 17 -11 33 21 47 15 7 72 43 128 80 113 77 176 111 202 111
10 0 25 5 33 11 13 9 13 10 -1 6 -9 -3 -22 -1 -30 4 -15 9 -14 10 40 14 24 2
30 0 20 -7 -10 -6 -1 -8 26 -3 22 3 35 2 28 -3 -9 -6 -5 -13 16 -25 27 -16 30
-15 77 10 27 14 65 36 84 49 41 27 50 29 50 11z m-7063 -121 c24 -16 40 -33
36 -39 -3 -6 -1 -7 5 -3 13 8 107 -51 138 -86 10 -12 14 -18 7 -15 -11 7 -133
-61 -133 -74 0 -4 10 -10 23 -13 41 -11 52 -23 38 -39 -10 -13 -9 -15 7 -10
11 2 32 -3 46 -12 25 -16 56 -15 56 2 0 5 -19 21 -42 35 -41 27 -41 27 -16 37
27 10 116 -3 132 -19 7 -7 4 -10 -7 -10 -20 0 -24 -45 -4 -54 6 -2 3 -4 -8 -3
-11 2 -26 6 -33 11 -11 7 -12 4 -3 -12 9 -17 8 -21 -7 -25 -12 -3 -9 -5 8 -7
23 -1 23 -2 5 -9 -12 -5 -23 -4 -27 3 -5 8 -14 7 -30 -3 -12 -7 -36 -14 -54
-16 -30 -2 -32 0 -27 29 3 23 1 27 -6 16 -10 -13 -11 -13 -11 0 0 20 -58 75
-88 84 -42 14 -18 -30 33 -59 17 -9 22 -14 13 -11 -9 3 -34 10 -55 16 -44 12
-77 35 -70 47 3 5 -3 9 -13 9 -10 0 -16 -4 -13 -9 3 -5 -4 -4 -15 2 -11 6 -22
14 -24 19 -4 10 -109 65 -114 59 -2 -2 17 -19 44 -37 26 -19 63 -48 83 -65 28
-25 33 -34 22 -44 -10 -9 -13 -9 -13 4 0 16 -42 57 -111 107 -22 16 -37 33
-34 38 7 11 -26 29 -42 23 -25 -9 -13 13 20 37 124 93 214 144 232 131 6 -4
29 -20 52 -35z m6004 -64 c-6 -2 -24 -14 -39 -26 -45 -37 -333 -237 -357 -248
-13 -6 -26 -19 -28 -29 -9 -34 -53 -40 -245 -37 -173 3 -185 4 -201 24 -16 20
-22 21 -176 15 -173 -7 -169 -6 -298 -84 -65 -39 -215 -102 -223 -94 -3 3 18
18 48 32 29 15 109 59 177 99 l125 71 183 0 c148 0 185 -3 192 -14 12 -18 90
-29 206 -30 113 -1 157 10 209 48 38 28 146 103 350 241 44 31 83 51 85 46 2
-6 -1 -12 -8 -14z m1555 -14 c1 -13 3 -222 5 -465 4 -476 7 -453 -47 -453
l-24 0 0 431 c0 236 -3 428 -7 426 -5 -3 -9 11 -9 31 -1 21 1 27 3 15 2 -13 9
-23 14 -23 5 0 7 12 4 28 -4 20 -3 22 3 7 8 -17 10 -17 18 -4 5 9 16 19 24 22
8 3 15 6 15 6 0 1 0 -9 1 -21z m-1340 -38 c52 0 101 -26 113 -61 43 -125 -125
-184 -231 -82 -16 15 -28 23 -28 17 0 -5 -46 -31 -102 -59 -153 -75 -214 -146
-206 -236 6 -54 -8 -57 -18 -5 -15 81 66 181 198 247 63 31 99 59 151 112 37
39 67 77 67 86 1 14 2 13 11 -1 6 -12 22 -18 45 -18z m-4633 -25 c20 -4 37
-10 37 -14 0 -3 -9 -33 -19 -66 -10 -33 -24 -108 -31 -167 -7 -60 -16 -108
-19 -108 -26 1 -32 20 -25 81 4 35 7 82 6 104 0 24 2 34 7 26 6 -9 10 -2 13
20 6 40 0 46 -64 54 -37 5 -46 10 -38 19 5 7 6 17 2 21 -4 5 -2 5 4 2 6 -4 20
5 30 19 13 16 26 23 39 20 11 -3 37 -8 58 -11z m-1897 -40 c3 -19 10 -35 16
-35 5 0 6 5 3 10 -3 6 -2 10 4 10 20 0 24 -23 6 -37 -11 -7 -14 -13 -8 -13 17
0 8 -62 -11 -72 -14 -8 -15 -12 -4 -26 11 -15 11 -15 -3 -5 -9 7 -20 9 -25 5
-4 -4 -3 0 4 9 6 9 8 20 4 24 -4 5 0 5 8 0 8 -5 12 -5 8 0 -12 12 -70 17 -63
5 4 -6 10 -8 15 -5 5 3 11 1 15 -5 3 -5 0 -10 -7 -10 -19 1 -68 47 -68 65 0 8
-5 15 -11 15 -5 0 -7 5 -4 10 4 6 11 7 17 4 6 -4 8 -2 4 4 -8 13 41 72 60 72
8 0 14 5 14 11 0 23 20 -4 26 -36z m751 14 c18 -6 64 -42 103 -80 39 -38 73
-69 75 -69 12 0 -2 26 -25 47 l-25 24 39 -16 c40 -15 70 -14 104 4 16 9 31 2
88 -39 38 -27 110 -79 160 -115 114 -81 122 -90 101 -113 -9 -10 -75 -55 -146
-101 -96 -61 -136 -81 -151 -76 -24 7 -287 202 -313 232 -16 19 -16 21 3 38
11 10 17 22 14 26 -3 5 1 6 9 3 8 -3 18 0 23 7 4 7 3 10 -4 5 -6 -3 -13 -2
-16 3 -3 5 2 12 11 15 14 6 10 12 -21 34 -21 14 -33 28 -27 30 11 4 70 -34 83
-53 5 -6 8 -3 8 7 0 31 -108 98 -230 142 -25 9 -52 20 -60 26 -49 31 108 46
197 19z m6808 0 c-5 -13 -3 -19 3 -15 5 3 9 -2 8 -12 0 -9 5 -16 12 -14 7 1
12 -3 11 -10 -3 -29 2 -40 16 -34 14 5 14 2 1 -23 -9 -16 -12 -32 -8 -36 4 -5
-1 -5 -10 -2 -9 3 -28 -3 -42 -14 -14 -11 -26 -18 -26 -15 0 3 -19 -1 -41 -9
-23 -8 -47 -15 -53 -15 -7 0 -19 28 -28 63 -9 34 -19 72 -23 83 -5 18 -1 23
26 33 17 6 51 11 74 11 22 0 50 7 61 15 25 19 27 19 19 -6z m-3185 -110 c0
-28 34 -24 54 6 18 28 30 26 47 -8 12 -21 11 -22 -8 -4 -18 16 -22 16 -33 2
-8 -10 -9 -15 -1 -15 6 0 11 6 11 13 1 7 6 5 14 -5 7 -10 18 -18 24 -18 7 0
20 -17 30 -37 17 -34 18 -47 8 -115 -13 -104 -32 -103 -41 2 -7 79 -7 80 -35
80 -19 0 -30 -6 -34 -17 -2 -10 -2 0 1 22 3 22 11 43 17 47 20 13 -1 18 -32 7
-35 -12 -87 6 -61 21 10 7 10 11 0 23 -10 13 -9 16 6 19 25 6 33 0 33 -23z
m3199 -86 c22 -6 22 -6 -9 -19 -18 -8 -44 -14 -59 -14 -14 0 -33 -5 -41 -10
-20 -13 -7 -12 74 5 38 8 72 13 74 10 3 -3 -1 -5 -9 -5 -8 -1 -27 -7 -44 -15
l-30 -14 31 6 c18 3 35 0 38 -6 4 -6 1 -11 -6 -11 -9 0 -9 -3 -2 -8 6 -4 17
-18 23 -31 18 -32 4 -237 -20 -316 -11 -37 -19 -90 -19 -138 0 -86 -16 -131
-51 -142 -19 -6 -20 -7 -2 -21 11 -8 13 -13 6 -14 -7 0 -13 -8 -13 -18 0 -10
-17 -27 -43 -41 -109 -60 -221 6 -370 217 -21 29 -35 58 -31 65 4 7 4 9 -1 5
-4 -4 -28 17 -54 46 -25 30 -84 87 -131 127 -152 133 -153 135 -147 177 8 45
50 86 104 101 22 7 150 11 311 11 167 0 271 4 267 9 -3 5 9 11 27 13 19 2 32
8 31 15 -2 9 4 10 23 3 17 -7 31 -7 42 0 15 10 14 10 -3 6 -11 -3 -27 -1 -35
4 -11 7 -8 10 15 10 17 0 41 -3 54 -7z m-1700 -228 c67 -43 121 -81 121 -86 0
-4 -5 -11 -10 -14 -6 -4 -7 -12 -4 -18 4 -7 4 -9 -1 -5 -5 5 -14 -1 -22 -12
-8 -11 -21 -20 -29 -20 -9 0 -12 -5 -8 -12 4 -6 3 -9 -2 -6 -13 9 -89 -36 -89
-52 0 -7 -7 -15 -15 -17 -13 -4 -13 -3 0 6 8 6 11 11 7 11 -4 0 -25 -12 -45
-26 -20 -15 -28 -23 -17 -20 15 5 17 4 9 -4 -6 -6 -19 -12 -28 -14 -9 -1 -25
-12 -36 -24 -11 -12 -32 -25 -45 -28 -14 -3 -25 -10 -25 -15 0 -5 -7 -9 -15
-9 -8 0 -15 -4 -15 -9 0 -5 -12 -12 -27 -16 -43 -10 -78 -36 -63 -45 16 -10 4
-30 -19 -30 -31 0 -304 180 -316 208 -3 8 11 30 30 49 19 19 35 37 35 39 0 2
-65 4 -145 4 -80 0 -145 4 -145 9 0 9 145 21 272 21 75 0 94 3 123 23 19 12
35 26 35 31 0 5 8 15 18 23 11 10 12 12 2 8 -10 -4 -9 -2 2 8 10 8 14 17 10
22 -4 4 4 4 18 0 14 -4 27 -7 30 -7 23 0 30 4 24 14 -4 7 -3 8 5 4 6 -4 24 0
39 10 163 108 171 108 341 -1z m-4013 -42 c-6 -97 -1 -169 20 -300 l7 -43 -76
0 c-71 0 -77 2 -82 23 -11 50 -3 65 37 69 37 3 38 3 38 -29 0 -20 5 -33 13
-33 9 0 11 47 9 210 l-3 210 22 0 c22 0 22 -1 15 -107z m4874 -155 c0 -9 4 -8
11 2 8 11 12 12 16 3 2 -7 16 -13 29 -13 19 0 28 -8 35 -30 6 -16 20 -32 31
-35 18 -6 18 -8 2 -20 -16 -11 -16 -13 7 -25 21 -12 23 -12 11 3 -20 24 16 11
53 -19 17 -14 23 -22 14 -19 -13 5 -15 1 -12 -19 8 -41 -20 -43 -85 -4 -31 19
-69 39 -84 46 -15 6 -35 27 -46 47 -16 33 -20 35 -32 21 -11 -14 -10 -16 4
-10 12 5 15 2 9 -12 -4 -10 -2 -15 3 -11 6 3 15 -9 22 -26 10 -29 10 -30 -3
-13 -8 11 -18 16 -22 13 -7 -7 26 -35 57 -49 12 -5 12 -7 -2 -7 -10 -1 -18 -5
-18 -11 0 -6 -31 -9 -75 -8 -77 2 -81 4 -76 46 1 6 -3 12 -9 12 -5 0 -10 9
-10 19 0 35 -11 53 -26 40 -9 -7 -10 -17 -4 -35 8 -20 5 -26 -18 -38 -18 -9
-33 -11 -43 -5 -8 5 -9 9 -4 9 16 0 45 59 38 76 -4 11 -8 12 -13 4 -6 -10 -12
-10 -26 0 -15 9 -16 10 -2 6 12 -3 15 -1 11 10 -3 7 -12 14 -20 14 -13 0 -13
2 0 15 8 8 29 13 46 12 23 -1 33 -9 42 -29 11 -27 27 -33 72 -28 10 1 25 -4
34 -12 14 -11 16 -10 11 10 -5 18 1 26 30 43 34 19 24 21 -23 4 -17 -6 -17 -4
4 14 26 23 61 28 61 9z m-403 -73 c-1 -5 4 -9 11 -7 6 1 12 -2 12 -7 0 -5 20
-21 45 -34 50 -29 61 -23 16 8 -37 24 -34 30 5 10 37 -19 50 -19 58 1 4 9 9
14 12 11 4 -3 -3 -19 -15 -35 l-21 -30 26 -17 c15 -9 23 -12 20 -6 -5 7 -1 9
8 5 9 -3 13 -11 10 -16 -4 -6 4 -4 17 2 34 18 38 24 12 16 -13 -4 -23 -3 -23
2 0 5 10 12 23 14 20 4 23 1 23 -25 -1 -18 -7 -32 -16 -34 -13 -4 -13 -3 0 6
9 7 10 11 3 11 -23 0 -23 -19 -1 -34 22 -16 22 -16 3 -31 -43 -33 -354 -245
-360 -245 -12 0 -260 167 -278 188 -19 20 -18 21 57 74 166 116 290 187 323
185 17 -1 31 -6 30 -12z m-4658 -32 c-7 -8 -35 -26 -62 -40 -52 -26 -162 -97
-284 -184 l-72 -51 -257 1 c-141 1 -261 4 -265 7 -26 16 13 19 238 19 184 0
253 3 268 13 17 10 -10 12 -150 8 -139 -4 -154 -3 -85 4 47 5 126 9 176 8 l92
-2 145 97 c147 98 243 150 259 141 5 -3 3 -12 -3 -21z m-1575 -9 c17 -7 20
-34 10 -105 -6 -44 -6 -45 -41 -41 -25 3 -34 1 -29 -7 5 -8 -9 -11 -46 -11
-38 0 -49 3 -38 10 12 8 10 10 -8 10 -13 0 -21 -4 -18 -8 3 -5 -1 -9 -9 -9 -8
0 -15 5 -15 10 0 5 -11 6 -25 3 l-25 -6 0 80 0 80 114 0 c63 0 121 -3 130 -6z
m269 -8 c3 -8 3 -127 0 -265 l-6 -250 -119 -3 -118 -3 0 266 0 267 119 1 c96
2 120 -1 124 -13z m-265 -361 c1 -99 0 -213 -4 -252 l-6 -73 -57 0 c-32 0 -86
3 -119 6 l-62 7 1 249 0 249 122 -3 122 -3 3 -180z m5312 39 c69 -42 130 -77
137 -77 6 0 9 -6 6 -12 -2 -7 11 -25 29 -40 30 -26 31 -28 9 -22 -17 4 -29 1
-38 -11 -8 -9 -12 -12 -9 -6 5 10 -42 39 -53 34 -2 -1 -8 5 -13 14 -5 9 -13
16 -18 16 -8 0 -243 151 -259 166 -2 2 -2 6 1 9 6 7 53 -21 145 -87 36 -27 71
-48 77 -48 6 0 29 -12 50 -26 27 -18 41 -23 49 -15 7 7 0 15 -23 28 -66 36
-300 195 -300 204 0 5 19 -4 43 -20 23 -16 98 -64 167 -107z m1319 84 c31 -17
75 -44 99 -60 23 -16 47 -26 52 -23 6 4 9 1 8 -7 -2 -7 5 -12 14 -12 10 1 15
-3 11 -9 -4 -6 0 -8 11 -4 9 4 15 3 11 -2 -3 -5 10 -19 29 -30 40 -25 47 -26
39 -5 -3 8 -11 13 -17 11 -6 -3 -16 1 -23 8 -9 10 -7 13 13 11 13 0 24 -4 24
-8 0 -5 7 -8 15 -8 18 0 20 17 3 23 -7 2 1 4 19 4 l31 0 -24 -20 c-19 -15 -22
-22 -14 -32 15 -18 37 -9 43 16 6 23 27 25 27 3 0 -21 -39 -56 -53 -47 -6 3
-7 1 -3 -5 4 -6 14 -8 23 -5 10 4 14 2 9 -5 -3 -6 -1 -14 5 -18 8 -4 9 -3 5 4
-4 7 -1 12 6 12 9 0 9 3 -2 10 -8 5 -11 10 -7 10 5 0 21 -10 35 -22 15 -11 19
-18 10 -15 -10 3 -20 2 -22 -2 -6 -8 71 -64 131 -95 22 -11 32 -23 30 -35 -5
-30 -28 -52 -48 -46 -9 3 -20 1 -24 -4 -3 -6 -46 -38 -95 -72 -51 -34 -87 -66
-83 -72 3 -5 1 -7 -5 -3 -6 3 -26 -1 -46 -10 l-35 -17 -88 59 c-48 32 -96 58
-105 58 -9 0 -15 3 -13 7 6 9 -97 73 -114 70 -8 -1 -10 2 -5 10 4 7 3 10 -4 5
-6 -3 -17 1 -26 10 -9 8 -20 13 -26 9 -14 -9 37 -50 205 -164 82 -56 162 -113
177 -126 27 -24 27 -27 13 -49 -12 -18 -13 -25 -4 -28 9 -3 7 -7 -5 -11 -9 -4
-15 -3 -11 2 3 5 1 12 -5 16 -5 3 -10 1 -10 -6 0 -7 -3 -9 -6 -6 -10 10 -94
-54 -87 -66 3 -6 1 -7 -5 -3 -11 7 -133 -68 -140 -86 -2 -4 -9 -8 -16 -8 -7 0
-21 -8 -32 -18 -10 -9 -35 -28 -54 -41 -19 -12 -27 -20 -17 -17 9 3 53 30 96
60 72 50 80 54 93 39 11 -14 11 -16 -4 -10 -23 8 -69 -35 -57 -54 5 -8 9 -11
9 -6 0 17 2 23 12 35 6 6 15 12 20 12 6 0 5 -7 -2 -15 -7 -8 -9 -15 -4 -15 4
0 -1 -6 -11 -14 -11 -8 -24 -12 -28 -9 -5 3 -22 -4 -38 -16 -30 -23 -44 -27
-34 -11 3 6 2 10 -4 10 -5 0 -13 -4 -16 -10 -3 -5 -2 -10 3 -10 6 0 12 -7 16
-15 5 -13 2 -14 -15 -4 -11 6 -23 8 -27 5 -3 -3 0 -6 7 -6 7 0 9 -5 6 -11 -4
-6 -10 -8 -13 -5 -3 3 -20 -5 -37 -19 -18 -13 -36 -21 -40 -17 -4 4 -3 -3 3
-14 10 -19 8 -23 -18 -34 -28 -12 -34 -9 -95 30 -35 24 -61 48 -58 53 3 6 1 7
-5 3 -15 -9 -73 24 -65 37 3 6 2 7 -4 4 -14 -9 -85 42 -77 55 4 6 3 8 -4 4
-13 -8 -103 51 -99 66 1 6 -5 13 -13 15 -13 4 -13 3 0 -6 11 -8 11 -11 2 -11
-7 0 -15 7 -18 15 -4 8 -10 12 -15 9 -5 -3 -9 -1 -9 4 0 5 -11 14 -25 20 -21
10 -25 18 -25 55 0 52 7 62 85 117 90 64 108 82 93 93 -9 6 -7 7 6 3 17 -6
118 44 131 64 3 5 -26 27 -65 50 -81 47 -100 78 -75 116 14 22 141 109 400
275 50 32 101 58 114 59 13 0 49 -14 80 -32z m-5223 -85 c-2 -10 -7 -18 -12
-18 -5 -1 -19 -6 -32 -14 -17 -9 -109 -14 -333 -18 -283 -6 -309 -5 -309 10 0
10 3 17 8 17 4 0 150 2 326 4 275 4 321 6 334 20 20 20 21 20 18 -1z m373 -32
c8 -14 6 -20 -12 -29 -62 -31 -105 -40 -213 -47 -66 -4 -129 -11 -141 -16 -18
-7 -162 -117 -183 -139 -3 -3 -22 -16 -43 -28 -33 -19 -53 -22 -153 -22 -123
0 -132 -3 -203 -56 -24 -19 -48 -31 -54 -27 -5 3 -7 1 -3 -5 8 -13 -33 -44
-47 -35 -6 3 -7 1 -4 -4 4 -6 -1 -17 -10 -24 -11 -10 -14 -10 -9 -2 5 9 2 11
-9 7 -9 -4 -14 -12 -11 -19 3 -8 -2 -11 -13 -8 -10 2 -24 -3 -32 -13 -13 -16
-12 -16 11 -4 16 8 21 8 14 1 -6 -6 -21 -13 -33 -16 -26 -5 -53 -24 -47 -34 2
-3 -7 -7 -20 -7 -14 -1 -21 2 -18 8 4 6 -2 8 -15 4 -11 -3 -30 -9 -41 -12 -11
-3 -20 -3 -20 0 0 3 18 10 40 16 21 6 45 16 52 23 42 40 164 140 223 183 l69
49 141 5 c81 3 135 9 127 13 -7 5 -18 7 -25 4 -21 -8 -271 11 -297 22 -19 9
18 10 155 6 99 -3 196 -1 216 3 20 5 80 42 134 83 l98 74 132 6 c120 5 138 9
177 32 52 32 55 32 67 8z m-2470 -281 c2 8 2 22 1 30 -1 10 3 9 14 -5 14 -18
15 -19 16 -2 0 10 5 15 11 12 6 -4 8 -13 5 -21 -4 -10 3 -14 23 -14 16 0 32 6
34 13 4 7 6 6 6 -5 1 -9 6 -18 13 -20 25 -9 -5 -28 -43 -28 -27 0 -38 -4 -33
-11 3 -6 -5 -3 -20 6 -15 10 -28 16 -31 14 -2 -3 -5 -28 -7 -58 -5 -92 -23
-78 -21 17 0 48 -2 77 -5 65 -5 -17 -11 -20 -22 -13 -8 5 -25 10 -37 10 -14 0
-23 6 -23 16 0 11 6 15 20 11 11 -3 20 -1 20 4 0 5 -4 9 -9 9 -5 0 -11 7 -14
14 -4 10 -1 13 9 9 10 -4 12 0 8 11 -3 9 -1 16 5 16 6 0 11 -8 12 -17 1 -12 4
-10 9 7 7 21 8 22 9 5 2 -20 2 -20 16 -1 11 14 16 50 17 120 2 89 3 82 8 -54
3 -85 7 -148 9 -140z m1294 191 c-13 -11 -23 -24 -23 -30 0 -15 -79 -53 -97
-47 -10 4 -13 1 -9 -12 5 -14 -9 -25 -63 -54 -38 -20 -67 -39 -63 -43 8 -8
-26 -35 -45 -35 -44 0 31 88 122 141 32 19 83 48 114 66 64 36 99 43 64 14z
m5209 -119 c-3 -10 -1 -13 6 -8 19 11 90 -32 115 -69 12 -19 27 -33 34 -30 7
2 15 1 17 -4 11 -17 -30 -7 -52 12 -12 12 -30 22 -39 23 -9 2 -19 7 -22 11 -3
5 -20 15 -37 22 -18 7 -42 22 -53 32 -12 11 -27 19 -33 17 -6 -2 37 -34 96
-72 58 -37 106 -70 106 -73 0 -22 -257 -196 -279 -188 -33 13 -188 115 -211
140 l-25 27 35 29 c39 33 185 124 219 137 12 4 46 8 75 8 44 1 53 -2 48 -14z
m-927 -146 l60 -42 6 -214 c4 -118 7 -442 8 -720 l0 -505 28 0 28 0 5 145 c3
80 7 141 9 135 1 -5 6 -1 11 10 6 14 9 -2 11 -55 2 -41 4 -91 5 -110 1 -19 3
-54 3 -77 l1 -41 136 -1 c135 -2 230 -13 247 -30 5 -5 16 -7 25 -4 10 4 13 2
8 -5 -4 -7 -2 -12 3 -12 6 0 49 -38 96 -85 50 -51 93 -85 105 -85 50 0 113
-46 247 -181 l138 -139 54 0 c66 0 181 -20 181 -32 0 -4 -19 -8 -42 -9 -48 0
-110 -7 -115 -13 -12 -12 16 -37 55 -51 56 -18 112 -51 112 -65 0 -15 -28 -12
-56 6 -59 39 -26 1 73 -81 119 -102 183 -169 183 -196 0 -17 -15 -20 -37 -6
-9 6 -13 1 -13 -16 0 -27 -73 -97 -101 -97 -9 0 -23 10 -31 21 -13 20 -15 20
-30 5 -9 -9 -21 -16 -27 -16 -6 0 -11 -4 -11 -9 0 -5 -12 -22 -27 -38 -16 -16
-46 -49 -68 -74 -33 -36 -50 -46 -93 -55 -53 -11 -65 -8 -131 31 -22 12 -26
11 -43 -10 -11 -14 -41 -36 -69 -49 -59 -30 -167 -131 -215 -202 -18 -28 -34
-54 -34 -58 0 -3 -12 -25 -26 -47 -19 -31 -28 -38 -38 -30 -7 6 -15 9 -18 6
-7 -7 -78 80 -78 94 0 6 -4 11 -10 11 -5 0 -10 4 -10 9 0 14 -64 122 -90 151
-41 47 -99 155 -120 225 -38 121 -49 149 -82 200 -67 102 -117 193 -159 290
-23 55 -52 114 -63 130 -28 42 -174 184 -181 176 -4 -3 -5 -1 -3 4 4 13 -37
66 -46 58 -3 -3 -6 -1 -6 6 0 21 -42 69 -71 82 -16 6 -29 15 -29 20 0 5 -7 9
-16 9 -9 0 -43 18 -75 40 -32 22 -63 40 -68 40 -21 0 -87 79 -99 116 -17 58
-2 94 53 129 25 15 45 32 45 36 0 5 12 9 27 9 14 0 23 -3 19 -7 -8 -8 34 -19
210 -57 116 -25 203 -61 247 -102 14 -13 29 -24 32 -24 3 0 5 229 5 509 l0
509 -27 32 c-15 18 -114 90 -220 161 -168 113 -210 149 -173 149 13 0 317
-196 367 -236 23 -19 43 -34 45 -34 7 0 3 286 -5 297 -4 6 -44 37 -90 69 -105
73 -167 123 -167 135 0 9 120 -62 225 -135z m2631 -67 c46 -33 84 -62 84 -64
0 -2 -39 21 -87 51 -78 49 -88 53 -103 39 -9 -9 -51 -39 -93 -68 -72 -50 -139
-102 -178 -139 -11 -10 -21 -18 -24 -18 -7 1 -78 -52 -87 -65 -4 -5 -3 -14 2
-21 15 -17 1 -24 -25 -12 -22 10 -23 12 -9 33 8 13 46 46 84 75 38 28 75 57
82 63 7 7 39 30 72 52 32 22 68 49 81 61 19 17 104 72 113 74 2 0 42 -27 88
-61z m-6106 21 c0 -6 -54 -10 -142 -10 -79 0 -148 -4 -154 -8 -6 -4 -10 -15
-8 -24 1 -10 -2 -20 -6 -23 -5 -3 -7 4 -5 15 2 11 1 20 -2 20 -11 0 -68 -54
-65 -62 1 -5 -2 -7 -7 -3 -12 7 -51 -15 -51 -29 0 -5 -8 -16 -17 -25 -10 -9
-23 -32 -30 -51 -11 -31 -11 -33 2 -16 8 11 15 24 15 29 0 5 24 -4 53 -21 28
-16 57 -27 64 -25 6 2 15 -1 19 -8 5 -8 3 -10 -7 -4 -8 4 -4 -2 9 -14 25 -25
29 -51 7 -51 -8 0 -15 -4 -15 -10 0 -12 -22 -9 -32 4 -3 5 -20 9 -37 9 -17 0
-31 5 -31 11 0 6 -5 4 -10 -4 -5 -8 -10 -10 -10 -4 0 5 4 14 9 20 6 5 2 19
-11 34 -14 17 -22 21 -25 12 -4 -10 -8 -9 -18 4 -10 15 -10 20 1 32 8 7 14 18
14 25 0 6 -7 2 -16 -9 -13 -16 -15 -16 -10 -2 5 15 3 16 -14 5 -11 -6 -18 -18
-15 -25 3 -7 0 -10 -5 -7 -11 7 -53 -19 -45 -27 3 -3 -1 -8 -9 -11 -9 -4 -18
-2 -21 3 -7 12 69 75 210 175 l120 85 148 0 c91 0 147 -4 147 -10z m803 -107
c31 -27 56 -51 56 -54 1 -3 -14 -23 -32 -44 l-33 -38 -62 58 c-34 31 -62 63
-62 70 0 14 48 54 66 55 6 0 36 -21 67 -47z m-936 -27 c56 -51 59 -45 -57
-115 -75 -45 -117 -61 -104 -40 5 8 9 25 10 39 0 14 7 41 16 60 9 19 21 49 27
65 17 46 50 44 108 -9z m3928 -26 c-3 -4 1 -7 8 -7 9 1 76 -27 96 -40 2 -2 -3
-11 -12 -21 -22 -24 -24 -50 -2 -32 8 7 15 19 15 26 0 25 7 20 151 -84 l46
-34 -21 -23 c-25 -29 -48 -16 -28 15 8 13 8 20 2 20 -6 0 -13 -7 -16 -15 -7
-16 -34 -21 -34 -6 0 5 7 14 15 21 9 7 13 15 10 18 -3 3 -13 -2 -22 -11 -16
-13 -21 -14 -37 -1 -19 13 -19 14 -1 34 10 11 16 22 13 25 -3 3 -13 -4 -23
-15 -25 -27 -35 -26 -84 16 -30 26 -39 40 -32 47 6 6 11 16 11 22 0 5 -7 1
-15 -9 -12 -16 -17 -17 -30 -6 -12 10 -13 16 -3 29 11 14 11 14 -2 5 -8 -6
-22 -11 -31 -11 -20 0 -20 34 1 47 16 10 33 3 25 -10z m2412 -31 c-31 -28 -57
-56 -57 -62 0 -12 -173 -144 -211 -161 -13 -6 -24 -5 -32 3 -9 10 -4 20 28 48
56 48 161 123 175 123 6 0 39 22 73 50 81 65 97 64 24 -1z m-5069 -115 l22
-15 -19 -37 c-32 -62 -40 -65 -100 -36 -57 29 -73 50 -50 68 8 6 22 23 32 39
17 27 18 27 55 12 20 -9 47 -23 60 -31z m-424 -59 c-6 -16 -337 -236 -438
-291 -53 -29 -68 -34 -63 -20 4 10 7 21 7 26 0 4 44 34 98 65 53 32 138 84
187 115 50 32 108 67 131 78 22 11 46 28 53 36 15 18 33 12 25 -9z m2331 -231
c346 -228 368 -247 346 -306 -7 -19 -9 -18 -21 11 -18 43 -47 66 -369 281
-169 113 -277 192 -279 203 -5 25 28 6 323 -189z m-2249 161 c-25 -39 -124
-105 -386 -261 -58 -34 -124 -77 -148 -94 -24 -18 -46 -29 -49 -26 -12 12 28
53 93 95 178 113 295 184 359 221 39 21 86 52 105 69 41 34 50 32 26 -4z
m3640 -26 c26 -26 34 -41 34 -70 0 -107 -151 -145 -225 -57 -37 43 -30 90 21
137 33 31 40 33 86 29 39 -4 56 -12 84 -39z m-1718 -28 c31 -17 164 -102 296
-189 183 -123 234 -161 219 -166 -33 -10 -598 -16 -582 -5 8 5 126 9 263 9
l249 0 -23 25 c-21 22 -196 144 -407 283 -46 30 -83 59 -83 63 0 13 5 12 68
-20z m-1818 -1 c0 -5 -5 -10 -11 -10 -5 0 -8 -4 -5 -9 11 -17 -369 -257 -454
-287 -114 -40 -114 -43 0 -43 96 -1 110 2 166 28 33 15 101 55 151 88 90 60
220 133 236 133 4 0 6 -4 3 -9 -8 -12 -255 -176 -321 -213 l-50 -28 78 0 c90
0 82 -3 247 105 161 105 161 105 120 59 -47 -51 -52 -55 -150 -114 l-85 -51
90 4 c71 3 109 11 181 38 50 19 98 40 106 46 15 13 28 8 28 -9 0 -5 -4 -6 -10
-3 -5 3 -10 -1 -10 -9 0 -9 -3 -15 -7 -14 -5 1 -30 -9 -58 -22 l-50 -23 50 -8
c28 -4 70 -12 95 -16 43 -9 42 -10 -45 -16 -120 -9 -724 -7 -730 2 -2 5 -38 8
-80 7 -41 -1 -76 3 -78 8 -5 14 -84 -4 -111 -25 -19 -15 -26 -31 -29 -67 l-3
-47 -2 48 c-2 42 2 53 27 78 25 24 37 29 80 29 28 0 51 4 51 9 0 5 15 15 33
22 17 7 102 56 187 108 85 51 191 115 236 142 44 26 86 55 93 63 15 18 31 21
31 6z m4560 -145 c22 -14 43 -25 47 -25 5 0 2 4 -6 9 -10 7 -7 9 12 8 30 -2
33 -7 15 -27 -11 -12 -10 -12 4 -1 13 10 22 9 46 -3 16 -8 32 -22 36 -31 4
-11 12 -14 27 -10 15 5 19 4 14 -4 -5 -8 1 -10 21 -5 26 7 27 6 21 -27 -5 -21
-4 -29 2 -20 12 19 34 3 28 -20 -3 -10 0 -22 5 -26 6 -3 8 -1 5 4 -8 12 20 26
34 17 5 -3 7 -10 4 -15 -4 -5 -1 -9 5 -9 7 0 9 -7 6 -16 -5 -13 -2 -15 14 -11
14 3 30 -3 47 -19 21 -19 23 -23 7 -18 -10 3 16 -15 59 -42 42 -27 77 -51 77
-54 0 -3 -23 -17 -51 -33 -27 -15 -47 -32 -44 -37 3 -5 0 -12 -6 -16 -8 -4 -9
-3 -5 4 15 24 -10 10 -54 -29 -70 -64 -160 -129 -178 -129 -13 0 -177 105
-504 323 -54 36 -58 49 -22 65 16 8 22 17 18 25 -4 6 -4 9 1 5 4 -4 27 9 52
29 24 20 46 33 50 30 3 -4 18 1 34 10 26 15 29 15 56 -2 l28 -18 -24 27 c-23
25 -51 35 -51 18 0 -4 -10 -13 -21 -21 l-22 -13 22 31 c23 32 117 100 139 101
7 0 30 -11 52 -25z m-718 -18 c20 -12 46 -34 58 -50 21 -27 78 -63 93 -59 4 1
7 -2 7 -7 0 -5 3 -17 6 -26 4 -9 3 -15 -2 -14 -22 4 -33 -2 -39 -21 -4 -13
-15 -20 -30 -20 -32 0 -40 16 -15 33 16 11 19 21 14 45 -4 18 -11 32 -17 32
-6 0 -7 -3 -4 -7 4 -3 -7 -16 -24 -29 -38 -28 -55 -20 -94 42 -23 36 -30 41
-56 38 -17 -2 -34 -6 -39 -9 -5 -3 -11 -1 -14 4 -7 11 81 71 103 71 9 0 33
-10 53 -23z m-4782 -91 c0 -18 -50 -60 -95 -82 -19 -9 -35 -20 -35 -25 0 -5
-4 -9 -9 -9 -8 0 -102 -58 -128 -80 -7 -6 -18 -10 -26 -10 -7 0 -18 -5 -25
-12 -9 -9 -12 -6 -12 14 0 23 16 37 115 100 196 125 215 134 215 104z m4423
-153 c9 -2 17 -11 17 -18 0 -25 -40 -38 -100 -32 -54 6 -60 5 -108 -31 -28
-20 -96 -68 -151 -105 l-100 -69 27 -24 c15 -13 21 -24 15 -24 -7 0 -13 4 -13
8 0 5 -11 15 -25 22 -32 17 -32 22 8 45 17 10 50 33 73 50 41 30 114 84 213
156 56 40 71 42 144 22z m-3405 -50 l3 -33 -204 0 c-186 0 -205 2 -210 18 -2
9 -8 25 -12 35 -7 16 5 17 206 15 l214 -3 3 -32z m390 1 l-3 -36 -145 1 c-185
2 -211 6 -206 35 3 11 5 24 5 29 1 4 80 7 177 7 l175 0 -3 -36z m1422 -38 c43
-63 60 -79 60 -56 0 29 119 -68 167 -136 l22 -31 -27 0 c-38 0 -120 -50 -142
-85 l-18 -29 -30 74 c-36 85 -51 157 -33 157 14 0 6 39 -22 100 -35 76 -37 81
-29 76 4 -2 28 -34 52 -70z m3464 8 c9 -3 16 -12 16 -19 0 -21 17 -27 39 -13
17 10 23 10 33 0 11 -11 8 -18 -16 -37 -25 -20 -28 -26 -16 -40 11 -13 10 -18
-6 -29 -16 -12 -22 -12 -38 0 -25 17 -52 18 -60 2 -5 -10 -7 -10 -12 0 -3 6
-17 12 -30 12 -31 0 -33 33 -2 47 l23 10 -23 12 c-29 16 -28 31 3 31 14 0 25
-4 25 -10 0 -19 17 -10 28 15 13 27 13 28 36 19z m-5396 -86 l-3 -33 -110 -3
c-60 -2 -125 0 -142 3 -28 5 -33 10 -33 35 l0 30 146 0 145 0 -3 -32z m268 7
c4 -14 3 -29 -1 -33 -10 -11 -155 -14 -199 -5 -33 7 -40 13 -43 36 l-4 27 120
0 121 0 6 -25z m514 -4 c0 -27 -3 -30 -51 -36 -28 -4 -89 -4 -135 0 l-84 7 0
29 0 29 135 0 135 0 0 -29z m268 -8 l3 -33 -109 0 c-117 0 -131 6 -116 52 5
17 15 18 112 16 l107 -3 3 -32z m-924 -109 c3 -9 6 -24 6 -35 0 -19 -8 -19
-207 -17 -191 3 -208 4 -211 21 -9 46 -4 47 207 47 172 0 200 -2 205 -16z
m670 0 c3 -9 6 -24 6 -35 0 -18 -11 -19 -309 -19 -332 0 -321 -2 -321 51 0 18
11 19 309 19 272 0 310 -2 315 -16z m411 -19 c0 -38 -6 -39 -202 -30 -149 7
-153 8 -153 29 0 13 3 26 7 30 4 3 84 5 177 4 l171 -3 0 -30z m301 21 c15 -12
17 -18 8 -33 -10 -16 -26 -18 -125 -18 -113 0 -114 0 -117 24 -2 13 2 28 10
32 23 15 202 11 224 -5z m2922 -28 c21 -21 13 -55 -19 -82 -37 -32 -75 -33
-106 -4 -34 32 -30 66 10 83 40 18 99 19 115 3z m-620 -39 c23 -17 39 -36 35
-41 -3 -7 -1 -8 5 -4 7 4 28 -6 48 -21 21 -15 52 -37 70 -48 136 -82 514 -348
514 -362 0 -3 -8 1 -18 10 -10 10 -22 17 -26 17 -4 0 -19 8 -34 18 -139 94
-185 121 -194 116 -7 -4 -8 -2 -4 4 4 7 1 12 -7 12 -7 0 -24 11 -37 25 -13 14
-29 25 -36 25 -6 0 -14 7 -18 15 -3 8 -12 12 -19 9 -8 -3 -23 6 -34 20 -11 14
-32 31 -47 37 -14 7 -26 16 -26 21 0 4 -7 8 -15 8 -7 0 -18 6 -22 13 -9 14
-79 67 -88 67 -14 0 -104 63 -109 76 -9 23 18 16 62 -17z m-2610 -78 c2 -13
-2 -28 -10 -32 -19 -13 -455 -11 -479 1 -10 6 -19 16 -19 23 0 35 21 37 265
35 l240 -3 3 -24z m2656 -39 c34 -27 91 -68 128 -92 37 -24 65 -46 62 -49 -9
-10 -43 -10 -49 -1 -3 6 -11 10 -17 10 -6 0 -6 -6 2 -15 10 -13 9 -19 -6 -36
-31 -34 -61 -41 -91 -22 -26 17 -26 17 -14 -4 6 -12 16 -25 22 -28 7 -5 6 -12
-3 -22 -11 -14 -10 -15 9 -9 28 9 87 -39 80 -66 -3 -10 -2 -16 2 -13 5 2 17
-2 27 -10 18 -13 17 -14 -8 -11 -30 3 -171 83 -211 120 -14 13 -28 22 -30 19
-4 -3 -53 24 -96 54 -2 2 6 12 19 23 31 27 20 36 -12 11 l-25 -20 -37 31 -37
30 41 30 40 30 28 -24 c15 -13 38 -34 52 -46 14 -12 36 -30 50 -41 22 -17 23
-22 13 -40 -12 -20 -12 -20 15 -9 15 7 46 30 70 53 23 22 48 39 55 37 9 -3 9
0 -1 10 -8 8 -15 9 -20 3 -9 -13 -89 -65 -100 -65 -5 0 -17 8 -26 19 -20 22
-14 61 14 86 16 15 20 15 51 -4 19 -12 38 -21 43 -21 12 0 -89 76 -126 96 -16
8 -26 22 -25 33 2 27 34 13 111 -47z m-3401 6 c26 -8 34 -14 25 -20 -10 -6
-10 -10 2 -18 10 -7 -115 -9 -375 -7 l-390 2 -3 33 -3 34 353 -6 c215 -4 368
-11 391 -18z m4731 -60 c-5 -7 -2 -9 8 -6 8 4 21 3 28 -2 7 -4 24 -1 39 6 23
12 26 12 30 -3 2 -9 -3 -21 -11 -27 -8 -6 -15 -27 -16 -46 -2 -86 -133 -112
-163 -33 -14 38 6 80 50 103 45 23 43 22 35 8z m-4563 -28 c10 -6 19 -19 19
-30 0 -31 -32 -40 -135 -40 l-96 0 3 33 c3 32 3 32 68 38 109 9 121 9 141 -1z
m-615 -22 c12 -39 -17 -48 -158 -48 l-128 0 -6 26 c-4 17 -2 29 7 35 8 5 73 9
146 9 126 0 132 -1 139 -22z m374 -4 c6 -14 10 -30 10 -35 0 -5 -75 -9 -180
-9 -190 0 -187 -1 -174 48 6 22 9 22 170 22 l164 0 10 -26z m-385 -139 l0 -30
-134 0 c-112 0 -135 3 -144 16 -6 9 -7 24 -4 33 6 15 23 16 144 14 l138 -3 0
-30z m403 8 c3 -17 -3 -26 -23 -33 -29 -11 -217 -14 -289 -4 -43 6 -46 9 -46
36 l0 28 178 -2 c175 -3 177 -3 180 -25z m337 -8 l0 -30 -137 0 c-75 0 -140 3
-143 7 -4 4 -4 19 -1 33 l7 26 137 -3 137 -3 0 -30z m4345 -80 c16 -8 37 -12
47 -8 17 6 16 5 -2 -16 l-19 -22 28 11 c23 8 27 8 23 -4 -4 -10 0 -12 15 -8
17 4 20 2 15 -12 -4 -9 -3 -15 2 -11 16 9 37 -5 38 -26 2 -21 1 -21 -19 -3
-16 15 -15 11 6 -20 15 -22 29 -50 32 -63 11 -42 -2 -123 -25 -153 -11 -16
-23 -39 -24 -51 -6 -35 -94 -80 -170 -86 -50 -4 -73 -1 -115 17 -54 23 -132
97 -132 125 0 9 -5 13 -11 10 -6 -4 -5 2 2 13 9 15 10 36 3 84 -5 36 -6 69 -1
74 4 5 21 25 37 44 17 20 27 27 23 16 -6 -19 -6 -19 19 0 17 13 22 21 14 26
-6 5 -2 8 11 8 16 0 21 4 17 15 -5 12 1 14 27 10 27 -4 30 -3 14 4 -17 8 -15
10 15 11 28 1 31 3 15 10 -16 6 -10 9 25 12 25 3 49 5 53 6 4 1 21 -5 37 -13z
m-2866 -9 c18 -8 45 -29 59 -48 40 -52 110 -214 156 -360 6 -20 14 -78 17
-130 8 -136 10 -157 17 -165 4 -3 7 -21 7 -40 0 -18 5 -33 10 -33 6 0 10 -6 9
-12 -3 -22 13 -98 22 -104 5 -3 9 -12 9 -20 0 -8 8 -24 18 -35 11 -10 25 -32
33 -47 7 -15 39 -52 70 -82 31 -30 66 -70 78 -87 25 -37 35 -40 59 -17 15 15
17 15 32 -6 27 -39 108 -190 199 -371 69 -136 89 -183 87 -210 -4 -50 -5 -51
-18 -43 -7 4 -10 4 -6 -1 10 -10 -10 -47 -22 -40 -5 3 -11 -3 -15 -14 -3 -11
-13 -25 -22 -33 -12 -9 -15 -9 -9 -1 5 9 2 11 -8 7 -9 -3 -16 -13 -16 -21 0
-8 -8 -13 -17 -12 -10 1 -20 0 -23 -1 -3 -1 -14 -3 -25 -4 -11 -2 -32 -7 -47
-11 -22 -6 -28 -4 -28 9 0 9 -8 16 -20 16 -11 0 -20 -4 -20 -10 0 -5 -7 -10
-16 -10 -20 0 -64 45 -64 64 0 8 -7 16 -15 20 -8 3 -15 11 -15 17 0 6 -16 26
-35 45 -19 18 -35 36 -35 41 0 5 -9 15 -20 23 -11 8 -20 19 -20 25 0 10 -51
86 -75 111 -16 17 -115 64 -135 64 -18 0 -34 -25 -25 -39 2 -4 -2 -8 -10 -8
-10 0 -11 5 -4 18 12 23 12 32 -1 24 -6 -3 -7 1 -3 10 4 12 8 13 13 5 5 -8 9
-7 13 3 8 21 -31 13 -48 -9 -11 -16 -14 -14 -29 12 -29 48 -59 65 -96 54 -17
-5 -100 -9 -184 -9 -143 -1 -156 1 -204 24 -29 14 -56 25 -62 25 -5 0 -10 5
-10 10 0 6 87 10 240 10 153 0 240 4 240 10 0 6 -99 10 -276 10 l-276 0 -30
26 c-18 14 -38 23 -47 20 -42 -15 29 26 78 45 75 29 164 38 364 39 103 0 166
4 162 9 -3 6 -92 8 -223 6 -119 -3 -224 -2 -233 0 -28 9 -17 35 20 46 20 6
119 14 221 16 102 3 188 8 192 11 4 4 -11 59 -33 122 -22 63 -43 127 -46 143
-3 15 -10 30 -16 34 -6 3 -7 1 -3 -5 4 -7 4 -12 1 -12 -13 0 -45 89 -51 142
-5 43 -2 64 13 99 25 57 47 148 38 157 -4 4 -65 9 -136 11 -111 3 -129 1 -129
-12 0 -9 12 -25 28 -37 23 -19 36 -21 92 -17 36 2 72 7 81 11 12 5 20 -1 29
-25 12 -29 12 -33 -8 -49 -44 -36 -161 -36 -233 1 -91 46 -116 196 -47 284 47
61 155 82 234 46 38 -17 84 -66 84 -89 0 -6 5 -14 10 -17 13 -8 7 20 -26 128
-23 75 -31 158 -18 192 4 9 23 27 43 40 41 29 103 33 155 11z m-574 -341 c0
-251 -1 -265 -19 -275 -30 -15 -49 -12 -56 10 -6 18 -8 18 -29 5 -13 -9 -45
-18 -72 -21 -68 -8 -129 25 -162 87 -20 38 -23 54 -19 117 4 78 19 107 69 145
36 27 114 33 161 14 l37 -16 0 93 c0 51 3 96 7 99 3 4 24 7 45 7 l38 0 0 -265z
m-1850 65 c0 -197 6 -226 55 -248 47 -22 101 -15 137 17 l33 29 3 191 3 191
46 0 45 0 -4 -197 c-4 -232 -11 -256 -87 -301 -63 -37 -165 -38 -229 -2 -80
45 -87 66 -90 298 l-4 202 46 0 46 0 0 -180z m630 17 c13 -7 35 -28 47 -46 21
-31 23 -45 23 -172 l0 -139 -40 0 -40 0 0 118 c0 144 -9 162 -75 162 -66 0
-75 -18 -75 -162 l0 -118 -40 0 -40 0 0 180 0 180 35 0 c21 0 38 -6 41 -14 4
-11 12 -10 42 5 42 22 86 24 122 6z m376 2 c24 -6 47 -15 50 -20 3 -5 0 -25
-6 -45 -9 -27 -16 -34 -29 -29 -99 42 -174 6 -173 -83 1 -54 16 -81 57 -98 29
-12 40 -11 85 2 29 8 53 14 55 12 1 -2 5 -18 8 -35 9 -47 -24 -67 -112 -67
-56 -1 -72 4 -106 26 -49 33 -73 72 -81 130 -12 87 27 166 100 199 47 21 89
24 152 8z m339 -8 c74 -34 105 -85 105 -173 0 -114 -69 -181 -186 -182 -54 -1
-68 3 -105 29 -55 39 -79 86 -79 153 0 63 17 107 57 145 52 49 138 60 208 28z
m3598 -548 c89 -60 133 -85 228 -125 14 -6 35 -24 45 -40 10 -16 65 -65 121
-108 157 -123 149 -134 -12 -19 -83 60 -84 60 -114 45 -16 -9 -43 -16 -59 -16
-55 0 -109 67 -92 115 5 15 -2 26 -34 49 -23 17 -45 29 -51 27 -5 -1 -7 1 -3
4 4 4 -20 26 -54 49 -55 37 -102 86 -83 86 4 0 53 -30 108 -67z m-280 -127
c18 -14 39 -26 47 -28 8 -2 19 -6 25 -11 5 -4 42 -28 80 -54 39 -25 72 -49 75
-52 3 -3 33 -30 68 -60 60 -51 78 -81 48 -81 -8 0 -22 7 -30 16 -9 8 -16 13
-16 9 0 -3 -14 3 -30 15 -17 12 -37 19 -45 16 -8 -3 -15 0 -15 6 0 6 -3 9 -6
5 -3 -3 -24 5 -46 19 -34 22 -42 24 -56 12 -10 -8 -29 -15 -44 -17 -21 -2 -30
4 -43 30 -21 39 -25 111 -7 115 7 1 8 0 3 -2 -11 -6 -3 -34 10 -34 4 0 6 7 3
15 -4 9 -1 15 7 15 7 0 5 6 -6 14 -11 8 -24 12 -29 9 -5 -4 -6 -1 -3 4 4 6 -2
18 -13 28 -19 17 -26 35 -14 35 3 0 20 -11 37 -24z m-7133 -57 c0 -8 -12 -10
-33 -6 -19 3 -40 1 -48 -4 -9 -7 3 -9 38 -7 29 1 56 -1 59 -5 4 -4 -4 -7 -19
-7 -14 0 -29 -4 -32 -10 -3 -5 -1 -10 6 -10 8 0 9 -3 0 -13 -12 -15 -5 -27 16
-27 7 0 13 11 13 26 0 23 2 25 15 14 26 -21 58 -71 51 -78 -4 -3 -11 0 -16 7
-4 8 -21 15 -37 17 -23 2 -25 1 -10 -7 9 -6 21 -8 26 -5 10 7 31 -46 31 -79 0
-24 -22 -49 -33 -38 -4 3 -7 16 -7 27 0 38 -28 66 -65 66 -41 0 -65 -29 -65
-77 0 -34 27 -68 68 -84 44 -17 16 -47 -33 -35 -50 13 -97 132 -70 175 5 9 4
12 -3 7 -6 -3 -18 4 -26 16 -19 26 -20 38 -5 38 5 0 7 -4 4 -10 -3 -5 -1 -10
4 -10 6 0 11 7 11 15 0 8 6 15 13 15 26 0 28 -14 5 -32 -13 -11 -17 -17 -8
-16 23 5 35 21 38 51 1 23 -2 27 -23 27 -16 0 -25 6 -25 15 0 10 10 15 30 15
17 0 30 -4 30 -10 0 -5 5 -10 10 -10 18 0 11 18 -10 25 -27 8 -25 23 3 28 46
9 97 7 97 -4z m3591 -104 c4 11 8 14 8 8 1 -7 4 -12 9 -12 38 6 40 -5 45 -269
4 -196 4 -204 -16 -223 -26 -24 -42 -24 -67 1 -18 18 -20 33 -20 188 0 93 3
211 7 263 6 83 8 90 16 59 8 -31 10 -32 18 -15z m-440 -29 c6 -6 9 -5 9 3 0 7
5 9 10 6 6 -3 10 -1 10 6 0 7 3 9 6 6 4 -3 15 -2 25 4 18 9 19 3 19 -157 0
-142 -3 -170 -17 -186 -20 -22 -46 -23 -67 -2 -14 13 -16 44 -15 197 1 100 4
171 6 157 3 -14 9 -29 14 -34z m-141 4 c2 18 4 20 7 8 5 -21 8 -21 34 -8 15 9
19 7 20 -7 0 -16 1 -16 9 2 5 13 9 -24 9 -102 1 -115 0 -123 -21 -137 -28 -20
-43 -20 -62 0 -13 13 -16 40 -15 147 1 83 4 121 9 102 7 -29 8 -29 10 -5z
m430 19 c0 -8 4 -8 14 0 10 8 16 9 21 1 3 -6 10 -8 15 -5 23 14 30 -42 28
-222 l-3 -187 -27 -16 c-26 -14 -29 -13 -47 5 -24 24 -25 33 -23 258 1 110 6
177 12 177 6 0 10 -5 10 -11z m-3230 -19 c0 -5 7 -10 16 -10 11 0 14 -6 9 -20
-3 -11 -2 -20 3 -20 14 0 22 -53 10 -67 -8 -10 -6 -13 5 -13 8 0 17 -9 20 -21
3 -11 15 -23 26 -26 12 -3 24 -16 27 -29 3 -13 12 -24 20 -24 8 0 14 -7 14
-15 0 -8 7 -15 16 -15 14 0 14 3 4 15 -19 23 -4 18 23 -7 21 -21 42 -58 32
-58 -2 0 -16 5 -32 11 -22 8 -24 12 -13 19 11 7 8 10 -12 10 -16 0 -28 5 -28
10 0 6 -12 15 -26 20 -15 6 -23 15 -19 22 4 7 0 4 -9 -7 -8 -11 -20 -25 -25
-32 -7 -7 -6 -13 4 -17 15 -6 39 17 28 28 -4 4 0 4 10 0 22 -8 21 -13 -5 -41
-25 -27 -38 -29 -38 -8 0 18 -26 20 -33 3 -3 -8 -6 -5 -6 5 -1 11 -6 15 -13
11 -8 -5 -9 0 -6 14 7 24 -2 28 -19 11 -8 -8 -11 -6 -10 7 1 11 -4 18 -11 16
-10 -2 -10 2 -2 17 12 24 13 78 2 83 -11 4 -23 78 -14 78 4 0 13 14 20 30 13
29 32 41 32 20z m2803 -446 c15 -8 27 -17 27 -20 0 -2 -17 -36 -37 -74 l-38
-69 -47 4 -47 4 -4 -62 c-3 -60 -3 -60 -5 16 -2 67 2 88 30 153 31 74 31 75
62 68 17 -3 43 -13 59 -20z m171 -60 c26 -9 50 -22 52 -29 6 -14 -54 -150 -62
-142 -3 2 4 28 16 56 22 56 25 71 12 56 -5 -6 -17 -36 -28 -69 -10 -32 -24
-60 -30 -63 -16 -6 -84 36 -84 52 0 7 11 38 25 69 14 31 25 63 25 71 0 19 15
19 74 -1z m412 -143 c106 -11 154 -31 208 -91 46 -52 56 -77 56 -148 0 -78
-35 -133 -114 -179 -26 -15 -12 -17 15 -3 13 8 19 7 19 0 0 -6 6 -8 13 -5 6 4
3 -1 -8 -10 -85 -70 -193 -85 -288 -40 -110 52 -136 87 -144 201 -3 40 -9 72
-12 70 -14 -9 3 80 18 92 9 7 10 11 4 7 -22 -11 -14 14 7 25 11 6 20 18 20 27
0 12 3 13 14 4 11 -9 13 -6 10 15 -2 21 1 25 17 21 12 -3 17 -1 12 6 -4 6 0 8
9 5 8 -4 21 -2 29 3 8 5 16 9 19 9 3 0 46 -5 96 -9z"/>
<path d="M8780 7929 c-38 -15 -70 -50 -70 -75 0 -13 13 -33 31 -48 25 -21 41
-26 85 -26 98 0 149 38 129 99 -15 48 -111 75 -175 50z"/>
<path d="M5125 5758 c3 -19 -25 -34 -35 -18 -4 6 -13 4 -26 -6 -16 -13 -16
-15 -1 -10 9 3 17 2 17 -2 0 -4 -20 -14 -45 -21 -27 -8 -42 -17 -38 -24 4 -6
0 -8 -10 -4 -18 7 -62 -13 -94 -43 -12 -11 -27 -20 -33 -20 -6 0 -8 -4 -5 -10
3 -5 -1 -10 -9 -10 -9 0 -16 -4 -16 -10 0 -15 16 -12 55 10 122 69 178 101
198 115 28 20 40 19 90 -6 23 -12 55 -23 70 -25 29 -4 81 -34 60 -34 -7 0 -14
4 -17 9 -3 5 -15 11 -27 14 -29 8 -15 -4 45 -39 27 -15 46 -23 42 -16 -5 8 -2
10 8 6 9 -3 16 -13 16 -21 0 -10 6 -13 16 -9 10 4 13 2 8 -6 -5 -8 -2 -9 10
-5 9 4 15 3 12 -1 -7 -12 123 -84 157 -88 16 -2 25 0 22 6 -3 5 6 12 21 16 17
4 22 9 14 14 -9 6 -9 9 0 15 7 4 16 2 21 -6 4 -7 11 -10 16 -6 4 5 1 12 -7 17
-11 7 -11 11 -1 24 19 23 5 20 -19 -4 -27 -27 -52 -26 -48 3 2 14 11 23 26 25
23 4 31 22 10 22 -7 1 -2 7 11 14 17 10 20 14 9 18 -20 8 -68 -2 -68 -14 0 -6
7 -8 15 -4 19 7 19 1 1 -17 -8 -7 -15 -34 -17 -58 -3 -60 -6 -63 -33 -34 -13
14 -26 22 -29 18 -4 -3 -7 -2 -7 4 0 10 -92 73 -108 73 -5 0 -21 12 -36 27
-14 14 -29 23 -33 20 -3 -4 -12 2 -20 13 -8 11 -21 20 -29 20 -8 0 -26 7 -39
16 -13 9 -32 17 -42 18 -10 2 -18 8 -18 14 0 6 -6 17 -14 24 -11 10 -14 10
-18 1 -3 -7 -8 -13 -13 -13 -5 0 -10 6 -13 13 -2 6 -3 4 -2 -5z"/>
<path d="M5817 5614 l5 -90 -73 -14 c-41 -8 -78 -15 -84 -15 -5 0 -12 -3 -15
-6 -3 -3 -21 -10 -40 -16 l-35 -11 45 1 c25 1 48 6 52 12 4 5 25 10 47 10 22
0 34 3 28 7 -8 5 -5 8 8 8 11 0 30 3 43 6 21 6 22 4 22 -71 0 -87 -18 -164
-32 -143 -6 8 -8 2 -4 -17 l6 -30 -14 24 c-8 14 -11 32 -8 40 5 14 3 14 -11 2
-9 -7 -14 -18 -10 -24 3 -6 1 -7 -5 -3 -6 4 -45 -12 -87 -35 l-75 -41 1 -54
c1 -31 -3 -60 -9 -66 -9 -9 -12 -9 -12 0 0 6 -18 21 -39 31 -21 11 -46 28 -56
37 -9 9 -52 38 -95 64 -44 26 -76 51 -72 55 4 5 -1 5 -10 2 -9 -3 -22 1 -28 9
-7 8 -20 14 -30 14 -10 0 -23 7 -30 15 -11 13 -10 14 6 9 17 -6 16 -4 -3 18
-28 29 -28 37 -5 54 15 12 15 12 -5 7 -19 -4 -23 -1 -23 16 0 12 -6 21 -15 21
-11 0 -15 -13 -17 -52 l-1 -53 -6 55 c-4 34 -10 54 -18 53 -24 -5 -102 -61
-95 -68 4 -5 2 -5 -4 -2 -14 8 -76 -22 -69 -33 3 -5 17 -3 31 5 32 16 54 10
54 -16 0 -12 -11 -24 -27 -30 -28 -10 -58 -5 -49 9 2 4 -5 14 -17 22 -20 12
-21 12 -8 -3 7 -10 10 -17 5 -17 -4 0 0 -6 10 -13 17 -12 15 -15 -17 -40 -20
-15 -46 -27 -59 -27 -15 0 -19 -3 -10 -8 9 -6 6 -12 -12 -21 -13 -8 -30 -10
-37 -6 -8 6 -10 4 -4 -5 9 -14 -36 -57 -75 -71 -26 -10 -58 -49 -40 -49 5 0
10 -8 10 -17 0 -10 23 -41 50 -70 33 -35 50 -61 50 -78 0 -14 5 -25 10 -25 14
0 57 -40 44 -41 -5 -1 5 -5 21 -9 22 -6 7 -8 -52 -9 -45 0 -85 -5 -88 -11 -4
-6 38 -10 119 -10 101 0 126 -3 126 -14 0 -17 -22 -26 -65 -26 -35 0 -60 -19
-28 -21 13 -1 11 -3 -6 -8 -25 -7 -42 -31 -22 -31 6 0 11 5 11 10 0 26 28 5
38 -29 16 -50 16 -50 -10 -60 -22 -9 -21 -10 15 -25 34 -15 52 -46 26 -46 -5
0 -8 4 -5 8 3 5 -10 15 -29 22 -32 13 -40 21 -36 42 0 5 -3 7 -7 5 -8 -2 -38
26 -91 86 -24 26 -24 27 -5 49 18 23 18 23 -1 6 -18 -16 -20 -16 -51 20 -28
32 -35 36 -52 25 -21 -12 -117 -29 -141 -24 -26 5 0 -19 47 -42 26 -14 84 -43
130 -67 51 -26 82 -48 83 -58 0 -11 2 -12 6 -4 3 9 12 7 31 -7 68 -48 123 -73
137 -61 15 13 39 4 30 -10 -9 -15 10 -18 23 -4 10 10 10 14 1 14 -7 0 -10 3
-6 6 3 3 14 1 24 -5 10 -6 13 -11 7 -11 -7 0 -15 -7 -18 -15 -4 -12 -2 -14 11
-7 12 7 28 4 55 -10 21 -11 38 -23 38 -28 0 -12 72 -3 80 10 4 7 11 12 16 13
5 1 8 6 6 10 -1 5 2 5 8 2 13 -8 93 25 161 67 27 16 56 28 63 25 8 -3 16 2 19
11 2 9 33 32 68 51 35 19 82 45 104 57 22 13 92 51 155 85 64 33 127 69 140
79 l25 19 5 243 c6 272 3 371 -11 362 -5 -3 -9 2 -9 11 0 12 -8 14 -40 9 -35
-6 -39 -4 -34 10 3 9 2 16 -3 16 -5 0 -9 10 -10 21 -1 12 -9 30 -19 40 -9 10
-20 33 -25 51 -5 21 -6 -1 -2 -58z m-368 -471 c2 -2 -2 -9 -8 -17 -8 -10 -9
-16 -1 -21 6 -3 8 -11 4 -16 -3 -5 -10 -7 -15 -3 -5 3 -6 10 -3 16 4 6 1 8 -7
6 -8 -3 -13 -11 -11 -17 1 -7 -2 -10 -7 -6 -14 8 -62 -25 -54 -38 3 -6 1 -7
-5 -3 -7 4 -55 -18 -108 -49 l-97 -57 6 -50 c5 -37 3 -50 -8 -54 -15 -6 -124
50 -238 123 -37 24 -72 43 -77 43 -14 0 -22 39 -18 94 l3 47 116 62 117 61 46
-23 c46 -24 46 -24 81 -5 19 10 35 22 35 27 0 6 185 -84 249 -120z"/>
<path d="M8973 6693 c-29 -6 -53 -40 -53 -74 0 -33 50 -79 86 -79 34 0 94 26
96 42 4 39 2 75 -4 71 -5 -2 -8 0 -8 6 0 14 -54 41 -77 40 -10 -1 -28 -4 -40
-6z"/>
<path d="M8822 6115 c-18 -15 -32 -34 -32 -44 0 -51 76 -89 140 -71 40 11 50
24 50 66 0 41 -28 65 -83 71 -36 4 -48 1 -75 -22z"/>
<path d="M7478 5524 c-15 -8 -32 -23 -37 -33 -9 -16 -4 -23 29 -46 23 -16 44
-24 51 -19 9 5 10 2 6 -9 -4 -11 -2 -14 8 -11 8 3 11 13 8 22 -5 11 -2 14 10
9 19 -7 57 24 57 47 0 22 -49 56 -79 56 -14 -1 -38 -7 -53 -16z"/>
<path d="M7667 4003 c-27 -4 -57 -44 -57 -77 0 -22 49 -56 80 -56 39 0 80 35
80 69 0 45 -44 72 -103 64z"/>
<path d="M5633 2443 c-13 -2 -32 -16 -44 -31 -28 -36 -22 -111 11 -147 30 -32
86 -34 124 -4 23 18 26 27 26 83 0 47 -4 67 -17 78 -20 18 -67 28 -100 21z"/>
<path d="M5224 2443 c-35 -7 -57 -39 -62 -91 -4 -41 0 -52 23 -80 22 -27 34
-32 70 -32 36 0 48 5 70 32 23 28 27 39 22 81 -2 30 -12 56 -23 67 -20 19 -66
30 -100 23z"/>
<path d="M4482 9580 c58 -45 77 -154 38 -218 -11 -18 -17 -39 -14 -45 4 -7 4
-9 -1 -5 -4 4 -31 -6 -59 -23 -84 -47 -195 -39 -256 20 -68 64 -68 182 -2 256
l27 30 -32 -29 c-42 -38 -67 -103 -60 -156 6 -48 -6 -53 -21 -7 -11 32 -11 32
-5 -8 7 -51 33 -102 69 -139 53 -52 70 -59 174 -64 98 -5 100 -4 150 28 69 44
100 99 100 175 0 39 -7 73 -21 101 -20 43 -80 104 -101 104 -6 0 1 -9 14 -20z"/>
<path d="M6623 9148 c-45 -49 -37 -109 16 -141 43 -25 50 -21 16 9 l-30 26 32
-21 c17 -12 39 -21 50 -22 16 0 16 -1 -2 -9 -12 -5 -14 -9 -5 -8 27 0 95 42
105 66 5 12 13 22 17 22 17 0 6 21 -29 55 -28 27 -44 35 -73 35 -46 0 -90 -37
-90 -75 0 -15 -4 -24 -10 -20 -16 10 -11 45 11 76 24 35 21 38 -8 7z"/>
<path d="M4183 9117 c-2 -4 -1 -16 2 -28 6 -19 13 -20 156 -17 149 3 150 3
156 -20 10 -40 17 -38 -172 -40 -123 -2 -131 -3 -132 -22 -2 -19 4 -20 147
-20 142 0 149 -1 155 -21 4 -11 4 -23 0 -27 -12 -12 -284 -5 -300 8 -13 10
-15 9 -15 -9 0 -12 5 -19 10 -16 6 3 10 0 10 -8 0 -10 7 -13 21 -10 17 5 20 2
17 -13 -2 -10 -9 -20 -16 -20 -6 -1 -16 -2 -22 -3 -5 0 -10 -10 -10 -21 0 -11
-6 -20 -14 -20 -20 0 -11 -49 12 -66 10 -8 46 -13 89 -14 40 0 84 -5 98 -12
25 -11 27 -19 30 -93 1 -16 5 -28 11 -25 5 3 8 8 6 13 -1 4 5 7 13 7 8 0 15
-9 15 -20 0 -14 7 -20 23 -20 12 0 34 -8 47 -17 25 -17 25 -16 7 4 -16 19 -17
29 -7 109 6 48 13 90 15 94 2 3 0 24 -5 46 -5 21 -11 77 -15 124 -3 47 -8 108
-11 135 l-5 50 -155 0 c-86 0 -158 -3 -161 -8z"/>
<path d="M3420 9028 l0 -29 -22 21 c-12 11 -28 20 -35 20 -20 0 -40 -60 -36
-110 2 -35 1 -40 -7 -25 -9 18 -9 18 -7 -5 2 -24 11 -32 133 -120 l49 -36 -3
141 c-1 77 -5 145 -7 151 -2 6 -17 14 -34 16 -28 4 -31 2 -31 -24z"/>
<path d="M2460 8902 c0 -6 22 -31 49 -57 58 -56 71 -84 35 -80 -29 3 -29 0 1
-49 13 -22 40 -47 59 -57 33 -16 37 -16 46 -1 8 15 9 15 10 -3 0 -15 2 -17 9
-7 4 8 12 14 16 14 4 0 12 -6 16 -14 5 -8 9 9 9 44 0 47 -3 56 -15 52 -13 -5
-13 -3 0 22 19 37 19 68 0 84 -20 17 -61 0 -70 -29 -7 -24 -18 -27 -34 -7 -19
23 -131 98 -131 88z"/>
<path d="M3990 8840 c0 -20 42 -90 52 -84 14 9 28 -45 28 -112 0 -65 0 -65 27
-62 l27 3 2 117 c3 130 1 134 -63 122 -25 -5 -39 -2 -53 11 -14 12 -20 14 -20
5z"/>
<path d="M1375 8682 c6 -4 23 -26 39 -49 16 -24 32 -43 35 -43 4 0 16 -8 27
-19 11 -10 56 -35 99 -55 44 -21 100 -50 125 -65 70 -43 148 -84 122 -64 -64
50 -118 90 -128 94 -22 9 -124 85 -124 92 0 5 12 -1 26 -12 40 -32 50 -25 14
10 -17 17 -42 46 -56 65 -15 19 -30 32 -34 29 -5 -3 -10 1 -13 7 -4 10 -7 11
-18 1 -15 -15 -63 -18 -54 -4 3 5 0 13 -6 17 -8 4 -9 3 -5 -4 4 -7 1 -12 -8
-12 -8 0 -18 5 -21 10 -3 6 -12 10 -18 10 -8 0 -8 -3 -2 -8z"/>
<path d="M4084 8416 c2 -19 -1 -23 -18 -19 -19 4 -19 3 -3 -7 9 -6 27 -8 40
-4 17 5 19 3 11 -6 -9 -9 -5 -19 19 -41 33 -32 47 -36 47 -15 0 20 35 29 60
16 12 -7 24 -10 26 -7 2 2 -7 10 -21 17 -22 12 -34 30 -20 30 16 0 66 -33 79
-52 21 -30 22 -61 1 -34 -9 12 -20 16 -32 11 -15 -6 -16 -8 -3 -14 28 -11 70
-43 70 -52 0 -5 -12 -9 -26 -9 -15 0 -23 -4 -19 -11 4 -6 13 -8 19 -6 18 7 40
-9 32 -22 -4 -6 -19 -11 -34 -12 -24 0 -25 -1 -7 -8 l20 -8 -20 -5 c-14 -4
-10 -6 13 -7 40 -1 41 -15 1 -31 -26 -11 -32 -11 -41 1 -7 10 -7 7 -3 -9 6
-19 -4 -34 -53 -83 -32 -32 -65 -59 -73 -59 -8 0 1 10 19 21 26 17 30 24 21
35 -6 8 -16 11 -22 7 -6 -3 -7 -1 -3 5 10 16 -5 15 -27 -2 -13 -11 -15 -15 -5
-19 7 -3 -1 -4 -19 -2 -30 3 -31 2 -21 -21 17 -37 1 -41 -35 -8 -52 48 -75 61
-38 22 56 -61 14 -83 -46 -23 -19 19 -43 35 -53 35 -24 0 -37 20 -13 20 26 1
57 26 43 35 -7 4 -17 2 -23 -4 -30 -30 -37 -12 -37 104 0 85 3 115 13 115 8 0
8 3 -2 9 -8 5 -12 18 -8 30 3 12 1 24 -4 27 -5 3 -9 -88 -9 -219 0 -196 2
-226 16 -231 9 -3 150 -6 315 -6 l299 0 0 270 0 270 -214 0 -214 0 2 -24z"/>
<path d="M1550 8246 c0 -4 17 -23 38 -42 20 -20 53 -51 74 -70 20 -19 40 -34
45 -34 4 0 19 -10 33 -23 14 -12 59 -44 100 -71 41 -26 86 -56 100 -67 74 -56
127 -89 145 -89 49 1 79 110 41 148 -14 14 -20 15 -37 4 -17 -11 -20 -11 -17
3 4 20 -173 149 -183 134 -4 -6 -9 -3 -13 8 -7 16 -9 16 -19 3 -7 -8 -21 -20
-32 -26 -11 -7 -19 -19 -19 -27 1 -10 -4 -13 -15 -9 -26 10 -152 92 -198 130
-24 19 -43 31 -43 28z"/>
<path d="M2244 8189 c-75 -43 -135 -48 -212 -16 -34 13 -62 22 -62 19 0 -3 11
-29 25 -59 21 -43 32 -55 55 -60 17 -3 30 -9 30 -13 0 -5 14 -11 30 -15 17 -4
30 -10 30 -14 0 -16 113 10 141 32 46 37 55 72 34 138 -8 24 -10 24 -71 -12z"/>
<path d="M1541 7683 c-25 -24 -71 -56 -102 -71 -32 -15 -58 -30 -58 -33 -1 -4
17 -18 39 -33 22 -14 40 -31 40 -37 0 -6 7 -9 15 -5 8 3 15 0 15 -7 0 -8 4 -6
10 3 7 11 10 11 10 2 0 -9 5 -10 19 -2 31 16 41 12 41 -19 0 -68 9 -77 224
-229 60 -42 134 -95 165 -117 72 -53 176 -125 274 -192 43 -29 97 -71 119 -93
23 -22 46 -40 50 -40 5 0 27 -17 51 -39 23 -21 52 -42 65 -45 12 -4 22 -12 22
-17 0 -5 6 -9 13 -9 6 0 28 -14 47 -30 19 -17 46 -40 59 -51 62 -53 95 -73
166 -99 58 -22 83 -26 105 -20 53 15 52 21 -7 56 -66 39 -103 77 -103 103 0
20 67 85 106 103 23 11 19 15 -98 94 -68 46 -159 109 -203 140 -195 139 -359
245 -371 240 -7 -3 -16 0 -20 6 -4 7 -3 8 4 4 22 -14 12 12 -10 26 -13 8 -35
23 -50 33 -33 21 -35 16 -8 -15 11 -12 17 -26 14 -31 -3 -5 3 -6 12 -2 14 5
16 3 11 -11 -4 -9 -3 -15 2 -12 5 3 11 -2 13 -12 3 -10 12 -19 21 -19 9 0 14
4 11 9 -3 4 2 5 10 2 9 -3 13 -10 10 -15 -3 -5 0 -9 5 -9 6 0 11 -5 11 -11 0
-5 -4 -8 -8 -5 -5 3 -9 -1 -9 -9 0 -10 6 -11 24 -4 15 5 22 5 18 0 -3 -5 8
-12 25 -16 27 -6 29 -9 19 -28 -9 -20 -9 -20 4 -4 8 9 17 17 21 17 3 0 14 -8
24 -17 10 -10 28 -25 40 -33 12 -8 22 -22 22 -32 0 -9 5 -20 12 -24 6 -4 8 -3
4 4 -3 6 -1 14 5 18 7 4 9 3 6 -2 -3 -6 -2 -16 3 -24 6 -10 2 -23 -13 -40 -12
-14 -15 -19 -7 -12 20 17 30 15 24 -5 -2 -10 1 -8 7 5 7 12 17 22 24 22 21 0
96 -55 93 -69 -5 -22 -48 -23 -90 -1 -21 11 -38 16 -38 11 0 -11 54 -51 69
-51 5 0 14 -7 19 -16 5 -8 16 -16 25 -18 9 -1 34 -17 57 -35 22 -17 40 -26 40
-20 0 7 2 10 5 7 11 -10 -7 -39 -19 -31 -7 5 -4 1 6 -8 17 -16 17 -17 -3 -22
-12 -3 -18 -3 -15 0 3 3 -11 15 -32 25 -114 61 -283 175 -288 195 -4 12 -36
42 -77 69 -40 27 -76 53 -82 60 -5 6 -28 21 -50 34 -22 13 -57 37 -78 53 -20
16 -43 30 -50 31 -6 1 -36 20 -64 43 -29 23 -81 58 -115 79 -35 21 -70 44 -79
53 -10 9 -56 42 -103 75 -86 59 -96 72 -74 94 14 14 18 31 19 87 1 34 -15 98
-23 93 -2 0 -23 -21 -47 -45z"/>
<path d="M1442 7360 c-13 -22 -127 -80 -157 -80 -12 0 -47 15 -78 34 -31 19
-57 32 -57 30 0 -25 40 -86 88 -134 31 -32 56 -64 53 -71 -2 -6 39 17 90 53
l94 65 1 56 c2 59 -13 80 -34 47z"/>
<path d="M1135 6909 c-4 -11 -14 -14 -31 -11 -14 2 -24 0 -24 -7 0 -6 4 -11 9
-11 16 0 -98 -109 -131 -126 -48 -25 -99 -13 -181 43 -40 26 -75 50 -80 51
-12 6 4 -31 30 -65 13 -18 21 -33 18 -33 -11 0 78 -64 121 -87 23 -13 51 -23
63 -23 11 0 21 -4 21 -8 0 -5 20 -10 45 -10 25 -1 45 2 45 8 0 5 14 10 30 10
45 0 108 43 119 82 5 18 10 27 10 20 1 -7 6 -10 12 -7 7 5 5 15 -5 31 -18 26
-22 48 -5 24 8 -11 9 -9 3 10 -10 38 -30 83 -47 105 -14 17 -16 18 -22 4z"/>
<path d="M2978 6494 c-9 -9 -34 -20 -55 -24 -33 -7 -35 -9 -15 -15 12 -4 22
-11 22 -16 0 -5 11 -9 25 -9 14 0 28 -7 31 -15 4 -8 10 -13 14 -10 5 3 15 2
24 -1 14 -5 14 -8 1 -21 -8 -8 -15 -21 -15 -29 0 -8 -7 -14 -16 -14 -12 0 -15
-6 -11 -21 5 -18 4 -19 -12 -7 -9 7 -7 3 6 -9 13 -13 30 -20 39 -16 8 3 14 1
12 -4 -2 -5 10 -21 27 -35 l29 -26 28 21 c27 20 28 20 48 2 11 -10 17 -22 14
-26 -3 -5 0 -9 5 -9 6 0 11 5 11 12 0 6 3 8 7 4 4 -4 -3 -15 -15 -25 -21 -16
-22 -17 -3 -17 11 0 17 4 15 8 -3 4 2 8 10 8 9 0 16 -8 17 -17 1 -24 7 -54 11
-57 2 -2 20 -15 40 -30 l36 -27 8 57 c5 45 9 53 17 39 5 -10 7 -40 4 -66 -5
-42 -3 -50 13 -59 11 -6 20 -9 21 -8 0 2 2 10 4 18 2 8 8 26 14 40 9 22 10 20
5 -15 -4 -22 -7 -43 -8 -46 -1 -7 59 -59 68 -59 3 0 6 9 6 20 0 10 14 61 30
112 17 51 30 94 30 96 0 2 -8 1 -18 -2 -33 -11 -124 45 -422 256 -91 65 -82
61 -102 42z"/>
<path d="M753 5998 c-6 -7 -12 -22 -14 -33 -2 -11 -14 -24 -27 -30 -12 -5 -24
-17 -27 -25 -8 -25 -62 -43 -111 -36 -56 7 -57 -6 -6 -65 22 -24 37 -49 35
-55 -2 -7 8 -14 22 -18 22 -6 65 14 95 44 3 3 14 10 25 16 11 6 26 24 34 40 8
16 20 34 26 39 7 6 15 19 19 30 6 16 5 18 -5 8 -7 -7 -16 -13 -20 -13 -8 0
-19 34 -24 73 -4 35 -9 41 -22 25z"/>
<path d="M638 5438 c-2 -13 -15 -28 -29 -35 -24 -12 -25 -14 -18 -79 4 -36 12
-70 19 -74 11 -7 94 32 105 49 2 4 -9 18 -25 30 -17 12 -30 29 -30 37 0 13 5
12 28 -4 25 -19 33 -22 48 -22 4 0 1 -6 -5 -14 -8 -10 -9 -15 -1 -18 6 -2 -15
-20 -47 -41 -31 -21 -63 -35 -70 -33 -20 8 -16 -38 5 -56 9 -8 32 -20 49 -28
18 -7 31 -16 28 -20 -2 -4 4 -17 14 -29 14 -16 21 -18 24 -9 3 7 6 3 6 -9 1
-12 9 -24 21 -28 11 -3 20 -10 20 -14 0 -4 25 -25 55 -45 30 -21 52 -42 49
-47 -16 -27 19 -2 66 47 30 30 72 70 94 87 37 29 39 30 52 12 8 -10 14 -14 14
-9 0 14 -74 81 -111 99 -37 20 -62 13 -106 -31 -18 -19 -37 -34 -42 -34 -4 0
-23 14 -41 30 -18 17 -40 30 -47 30 -19 0 -16 24 9 56 l22 29 -28 -25 -28 -25
13 28 c7 15 16 27 21 27 4 0 8 5 8 12 0 9 -3 9 -12 0 -15 -15 -28 -15 -28 0 0
6 3 8 6 5 9 -9 44 32 44 52 0 13 -2 13 -9 3 -9 -15 -22 -4 -77 66 -14 18 -34
37 -44 42 -15 8 -19 6 -22 -12z"/>
<path d="M420 5094 c0 -14 25 -50 52 -73 33 -28 126 -80 144 -81 17 0 44 45
44 74 0 48 -92 95 -153 78 -20 -6 -40 -6 -48 -1 -16 10 -39 12 -39 3z"/>
<path d="M908 4079 c-2 -5 -19 -11 -39 -12 -43 -4 -114 -70 -100 -95 4 -7 36
-36 71 -63 61 -47 89 -61 74 -38 -4 7 0 9 12 5 11 -3 45 -2 76 3 31 4 55 4 52
-1 -10 -16 13 -8 29 10 11 12 17 36 17 70 0 56 -14 79 -67 105 -36 18 -120 30
-125 16z"/>
<path d="M498 3304 c-2 -11 -1 -34 3 -52 4 -17 3 -35 -2 -38 -17 -10 26 -128
59 -163 7 -7 15 -25 18 -40 3 -15 15 -31 27 -36 12 -6 23 -20 25 -32 3 -19 10
-23 37 -23 47 0 53 -18 8 -23 -21 -2 3 -3 52 -2 89 1 92 2 161 47 65 42 120
60 183 60 17 0 20 3 12 11 -17 17 -13 26 10 20 19 -5 20 -3 11 14 -6 11 -9 39
-7 63 4 39 3 41 -9 24 -8 -10 -16 -17 -18 -14 -2 3 -13 19 -26 37 -12 18 -22
40 -22 50 0 15 -2 16 -10 3 -7 -11 -10 -6 -11 20 0 29 -2 31 -9 15 -7 -15 -9
-10 -9 23 -1 23 -5 42 -11 42 -5 0 -10 -4 -10 -8 0 -5 -50 -41 -110 -82 -101
-66 -113 -72 -136 -62 -34 16 -131 87 -176 129 -31 31 -37 33 -40 17z"/>
<path d="M1170 2786 c0 -17 -27 -46 -41 -46 -6 0 -7 5 -4 11 4 6 -2 5 -14 -3
-23 -14 -26 -24 -11 -33 5 -3 2 -13 -8 -23 -79 -78 -149 -72 -249 22 -22 20
-33 25 -34 15 0 -7 -2 -24 -3 -36 -2 -12 2 -19 7 -16 6 4 8 -2 5 -13 -3 -11 1
-25 9 -32 8 -8 11 -23 7 -37 -4 -17 -1 -27 9 -31 8 -3 18 -20 22 -37 6 -28 8
-30 15 -12 8 17 9 18 9 2 1 -10 11 -22 24 -27 21 -8 21 -9 -5 -9 -21 -1 -28
-6 -28 -21 0 -17 7 -20 39 -20 22 0 43 -4 46 -10 3 -5 21 -10 39 -10 18 0 44
-9 58 -20 20 -15 28 -16 38 -7 10 9 14 9 17 -1 5 -12 34 20 63 68 8 12 11 13
18 2 7 -11 10 -10 15 3 4 9 3 13 -3 10 -6 -3 -10 1 -10 9 0 10 6 13 15 10 8
-4 15 -1 15 5 0 6 -5 11 -11 11 -5 0 -8 4 -4 10 3 5 13 6 22 3 11 -4 14 -2 9
5 -4 6 -2 20 4 32 5 11 15 29 20 40 15 29 2 68 -42 123 -21 27 -38 55 -38 63
0 8 -4 14 -10 14 -5 0 -10 -6 -10 -14z"/>
<path d="M1437 2515 c-94 -36 -157 -115 -157 -197 0 -53 18 -105 42 -126 12
-10 11 -4 -3 26 -21 43 -17 68 12 77 30 10 22 22 -11 17 -21 -3 -30 0 -30 10
0 23 31 60 46 54 10 -4 14 2 14 19 0 30 35 58 107 85 84 31 147 28 224 -11 40
-20 94 -93 104 -140 9 -40 26 -37 18 4 -14 75 -59 134 -127 169 -53 27 -184
34 -239 13z"/>
</g>
</svg>
