<?xml version="1.0" standalone="no"?>
<!DOCTYPE svg PUBLIC "-//W3C//DTD SVG 20010904//EN"
 "http://www.w3.org/TR/2001/REC-SVG-20010904/DTD/svg10.dtd">
<svg version="1.0" xmlns="http://www.w3.org/2000/svg"
 width="1024.000000pt" height="1024.000000pt" viewBox="0 0 1024.000000 1024.000000"
 preserveAspectRatio="xMidYMid meet">

<g transform="translate(0.000000,1024.000000) scale(0.100000,-0.100000)"
fill="#000000" stroke="none">
<path d="M5788 8885 l-3 -86 -118 -2 c-92 -2 -120 -5 -127 -17 -5 -8 -10 -68
-10 -132 0 -136 5 -131 -103 -103 -32 8 -62 15 -66 15 -5 0 -37 -21 -71 -46
-44 -32 -65 -42 -74 -35 -19 16 -55 1 -70 -28 -17 -35 -6 -72 26 -91 25 -13
29 -13 55 6 20 15 28 30 29 52 0 26 9 38 55 71 l55 39 63 -14 c35 -8 78 -14
95 -12 l31 3 5 130 5 130 111 3 111 3 7 -32 c3 -17 6 -45 6 -62 l0 -30 72 7
c39 3 74 8 76 10 2 3 6 25 9 50 5 51 1 53 -87 58 l-45 3 -3 98 c-2 76 -6 97
-17 97 -11 0 -15 -20 -17 -85z m-562 -450 c7 -27 -10 -55 -33 -55 -18 0 -27
24 -19 55 9 34 43 34 52 0z"/>
<path d="M4255 8936 c-86 -37 -86 -160 -1 -200 98 -46 208 71 150 160 -33 50
-91 65 -149 40z m99 -37 c20 -16 26 -29 26 -59 0 -47 -35 -80 -86 -80 -81 0
-89 133 -9 153 36 9 42 7 69 -14z"/>
<path d="M3325 8906 c-14 -14 -25 -29 -25 -34 0 -16 58 -64 64 -53 4 5 -1 14
-10 19 -22 12 -15 58 9 54 21 -4 22 11 2 28 -11 9 -19 7 -40 -14z"/>
<path d="M4820 8886 c-36 -24 -101 -66 -145 -94 -193 -120 -701 -442 -818
-519 -101 -66 -132 -91 -143 -118 -10 -25 -14 -79 -14 -200 0 -152 -1 -166
-17 -163 -37 7 -43 44 -38 225 6 186 2 231 -21 212 -9 -7 -14 -8 -14 -1 0 5
-6 12 -12 15 -10 3 -12 -36 -10 -181 5 -243 5 -242 -62 -276 -30 -15 -71 -42
-93 -60 -21 -18 -63 -47 -93 -65 l-54 -33 -61 31 c-33 17 -80 43 -105 57 -25
15 -65 38 -90 52 -25 13 -52 34 -61 45 l-17 20 -11 -22 c-10 -17 -20 -21 -44
-19 l-32 3 -3 133 c-3 147 -9 133 62 136 40 3 27 25 -16 28 l-43 3 -3 113 -3
113 -45 43 c-33 32 -44 51 -44 73 0 48 -56 121 -120 157 l-55 31 -575 3 c-400
2 -586 0 -613 -8 -20 -6 -53 -25 -73 -42 -34 -30 -84 -113 -84 -140 0 -7 -12
-21 -28 -31 -15 -11 -36 -31 -47 -45 -20 -26 -20 -43 -20 -847 0 -842 0 -834
37 -937 6 -16 14 -28 19 -28 5 0 9 -6 9 -12 0 -7 16 -24 35 -38 19 -14 35 -29
35 -33 0 -4 -106 -7 -235 -5 -249 3 -263 6 -249 50 3 9 -2 30 -10 45 -15 28
-15 27 -16 -31 0 -47 -5 -65 -22 -83 -25 -27 -17 -44 10 -20 16 15 47 17 253
16 129 -1 326 -5 439 -8 l205 -6 -70 -41 c-38 -23 -119 -72 -180 -109 -60 -38
-183 -113 -271 -167 -193 -118 -244 -160 -280 -235 -24 -47 -28 -69 -28 -137
1 -131 20 -346 32 -358 7 -7 12 -9 12 -5 0 4 13 1 29 -8 31 -15 54 -12 83 13
15 12 20 12 40 -2 12 -9 18 -16 13 -16 -5 0 6 -16 25 -35 19 -20 40 -33 48
-30 7 2 10 0 7 -5 -8 -13 4 -13 72 5 78 21 114 57 121 123 8 91 -34 142 -118
142 -32 0 -47 -7 -80 -38 -22 -22 -40 -36 -40 -32 0 3 -7 15 -16 26 -8 10 -13
14 -10 8 3 -6 -1 -11 -7 -11 -9 0 -12 11 -9 31 7 46 -7 26 -17 -25 l-9 -44 -1
63 c-2 137 17 166 175 264 49 31 148 93 219 138 311 199 314 200 400 200 87 0
87 0 555 -261 96 -53 214 -120 263 -148 87 -50 161 -81 196 -81 46 0 133 44
341 173 124 77 277 171 340 209 140 85 180 122 217 202 28 61 28 61 31 306 l3
245 59 -3 59 -4 6 -61 c4 -34 5 -201 3 -372 -3 -294 -4 -312 -25 -355 -26 -54
-81 -108 -148 -145 -27 -16 -177 -107 -332 -204 -155 -97 -309 -192 -341 -211
-32 -19 -80 -48 -107 -64 -31 -20 -66 -31 -100 -34 -48 -4 -62 1 -156 48 -57
29 -111 58 -120 66 -8 8 -18 14 -21 14 -3 0 -8 -29 -10 -64 -8 -99 -47 -149
-188 -240 -101 -66 -170 -122 -170 -138 0 -11 49 16 255 140 209 126 182 118
269 88 41 -14 92 -26 113 -26 57 0 236 95 230 123 -1 6 9 12 23 13 28 1 152
74 153 89 1 12 23 35 33 35 3 0 1 -7 -6 -15 -16 -19 -1 -19 24 0 14 11 16 15
6 15 -8 0 2 11 22 25 20 14 44 25 53 25 9 0 14 4 11 8 -3 5 9 16 27 26 18 10
24 11 15 3 -30 -24 -20 -30 13 -6 21 14 27 24 19 29 -8 5 -7 9 5 13 9 4 13 3
10 -3 -13 -21 21 -8 87 31 38 23 66 44 64 47 -3 3 -11 0 -18 -5 -7 -6 -35 -22
-63 -37 -63 -33 -33 -10 70 55 44 27 67 38 51 24 -46 -42 -27 -36 54 15 117
75 153 101 147 107 -3 3 -23 -8 -43 -23 -21 -16 -34 -23 -30 -16 4 7 26 27 49
43 22 16 51 45 65 65 13 20 27 33 30 29 4 -3 0 -10 -8 -15 -11 -7 -11 -10 -2
-10 32 0 36 54 42 495 3 253 9 446 15 455 19 30 73 67 269 189 111 68 293 182
406 253 113 72 248 158 300 191 98 61 153 107 173 142 8 13 14 98 17 234 l5
214 210 130 c329 204 468 287 477 287 4 0 8 7 8 15 0 23 -15 19 -93 -27 -111
-65 -450 -273 -532 -327 -68 -44 -74 -47 -77 -28 -6 38 -61 60 -167 65 -118 5
-95 16 -416 -189 -132 -83 -267 -169 -300 -189 -33 -21 -113 -72 -179 -114
-65 -42 -123 -76 -127 -76 -11 0 -11 92 -2 208 6 77 8 84 33 97 20 10 37 11
71 4 88 -21 95 -17 454 211 72 46 182 115 245 155 63 39 147 92 185 117 39 25
104 66 145 91 42 26 87 59 101 74 31 33 109 212 116 264 l5 37 -68 11 c-72 11
-260 31 -298 31 -11 0 -50 -20 -86 -44z m264 -21 c71 -8 131 -17 133 -18 1 -2
-7 -14 -20 -27 -12 -14 -20 -26 -18 -28 2 -2 -9 -32 -24 -68 -17 -39 -31 -61
-35 -54 -5 9 -9 9 -14 1 -13 -21 -106 -13 -151 14 -38 21 -44 23 -62 10 -29
-21 -42 -2 -45 68 -2 31 -4 57 -4 57 -10 1 -71 -60 -66 -65 4 -5 1 -5 -6 -1
-8 5 -33 -8 -65 -32 -71 -55 -468 -302 -617 -385 -25 -13 -44 -30 -43 -35 2
-6 -3 -9 -10 -7 -6 3 -30 -6 -52 -20 -22 -13 -61 -36 -87 -50 -51 -27 -62 -40
-25 -30 17 5 19 4 7 -4 -12 -9 -13 -11 -1 -11 8 0 12 -3 9 -6 -4 -3 -15 -1
-26 5 -24 13 -55 4 -45 -13 3 -6 2 -8 -2 -3 -5 4 -19 -3 -32 -15 -13 -12 -23
-17 -23 -11 0 17 51 56 170 130 150 92 193 119 425 267 110 71 247 157 305
193 58 36 134 85 170 109 74 50 74 50 254 29z m-364 -195 c0 -5 -12 -10 -26
-10 -14 0 -23 4 -19 10 3 6 15 10 26 10 10 0 19 -4 19 -10z m35 -81 c-4 -5
-16 -9 -28 -9 -21 1 -21 1 -3 15 20 15 41 11 31 -6z m-2183 -19 c21 -6 39 -14
42 -18 2 -4 -165 -8 -372 -10 -207 -2 -384 -8 -392 -13 -11 -6 -5 -9 20 -10
28 -1 22 -3 -27 -13 -35 -7 -78 -11 -95 -9 -25 2 -28 1 -13 -5 18 -8 17 -9 -8
-16 -19 -4 -33 -2 -42 8 -13 13 -12 15 7 19 20 4 19 4 -4 6 -28 1 -37 -12 -17
-25 8 -4 7 -9 -2 -15 -9 -5 -16 -2 -21 9 -5 13 -7 11 -7 -8 l-1 -25 427 3
c444 3 513 0 513 -22 0 -19 -160 -26 -585 -26 -198 0 -354 -4 -347 -8 7 -5 39
-8 72 -7 34 1 55 -2 48 -7 -7 -4 -24 -8 -37 -8 -16 0 -21 -4 -17 -15 4 -10 -1
-15 -14 -15 -11 0 -20 5 -20 10 0 6 -10 10 -22 10 -19 0 -20 -2 -8 -10 11 -7
7 -10 -17 -11 -18 -1 -39 -2 -45 -3 -7 -2 -20 1 -28 5 -9 4 -21 -1 -32 -13
-10 -12 -19 -21 -20 -22 -2 -1 -5 -233 -8 -516 l-5 -515 -3 513 c-2 566 -5
534 62 610 69 78 53 102 -24 35 -95 -84 -90 -34 -90 -789 0 -735 -1 -719 67
-789 36 -38 87 -65 120 -65 10 0 62 -41 116 -90 l97 -90 -42 -2 c-24 -1 -115
0 -203 1 -132 3 -166 7 -197 22 -48 25 -76 66 -88 132 -7 34 -9 359 -8 879 l3
824 25 37 c14 21 43 46 65 57 39 19 61 20 590 20 347 0 564 -4 587 -10z m2085
-47 c-16 -16 -17 -16 -17 3 0 11 3 24 7 28 4 3 11 2 17 -4 7 -7 5 -16 -7 -27z
m-29 -18 c-3 -3 -9 2 -12 12 -6 14 -5 15 5 6 7 -7 10 -15 7 -18z m-2791 -21
c-3 -3 -12 -4 -19 -1 -8 3 -5 6 6 6 11 1 17 -2 13 -5z m2743 -4 c0 -5 -2 -10
-4 -10 -3 0 -8 5 -11 10 -3 6 -1 10 4 10 6 0 11 -4 11 -10z m-60 -60 c-8 -5
-19 -9 -25 -9 -5 0 -4 3 3 6 6 2 12 12 12 21 0 13 3 13 12 4 10 -10 10 -15 -2
-22z m-3273 -272 c-4 -112 -8 -250 -8 -308 -1 -76 -4 -94 -9 -65 -7 39 -7 38
-10 -20 l-3 -60 -9 85 c-8 83 -6 500 3 530 8 25 20 40 31 40 8 0 9 -58 5 -202z
m2897 64 c4 -2 6 -25 3 -50 -4 -35 -12 -52 -34 -69 -15 -12 -36 -30 -46 -38
-58 -51 -97 -33 -97 45 0 38 6 55 26 79 36 43 104 58 148 33z m-2345 -28 c27
-6 31 -11 31 -40 0 -29 -4 -34 -32 -39 -18 -3 -67 -5 -108 -3 l-75 3 -3 34
c-2 20 2 37 10 42 15 10 132 12 177 3z m511 -33 c0 -29 -5 -40 -16 -43 -10 -2
-97 -2 -195 0 l-179 3 0 33 c0 18 3 36 7 39 3 4 91 7 195 7 l188 0 0 -39z
m298 -3 l3 -38 -95 0 -96 0 0 34 c0 19 6 36 13 39 6 2 48 4 92 3 l80 -1 3 -37z
m2430 -7 c15 -9 -62 -21 -136 -21 -45 0 -79 -14 -147 -60 -22 -15 -58 -38 -80
-52 -22 -14 -85 -54 -140 -90 -55 -36 -117 -75 -138 -87 -20 -13 -34 -27 -31
-33 4 -7 2 -8 -4 -4 -15 9 -143 -74 -135 -87 3 -6 1 -7 -5 -3 -13 8 -84 -33
-77 -44 3 -4 -3 -7 -13 -6 -9 0 -16 -5 -14 -12 1 -8 -2 -11 -7 -8 -13 8 -132
-69 -123 -79 4 -5 1 -5 -6 -1 -7 5 -32 -6 -60 -26 -26 -19 -72 -49 -102 -67
-30 -19 -58 -39 -62 -45 -4 -6 -7 133 -6 309 1 176 3 303 5 283 4 -40 26 -55
62 -43 17 5 21 0 27 -32 7 -33 8 -35 13 -15 6 22 4 -202 -2 -336 -2 -61 -5
-62 95 6 102 69 678 436 848 540 29 18 50 22 130 22 52 0 101 -4 108 -9z
m-3194 -157 c11 -4 16 -19 16 -45 l0 -39 -125 0 -125 0 0 40 0 39 78 4 c42 1
91 4 109 5 17 1 38 -1 47 -4z m2961 -134 c0 -31 -31 -39 -40 -11 -8 26 2 43
23 39 11 -2 17 -13 17 -28z m-135 -66 c0 -9 -8 -22 -17 -29 -15 -11 -15 -15 5
-49 44 -75 17 -104 -34 -36 -23 31 -35 39 -58 37 -36 -3 -44 16 -14 31 13 7
38 24 57 37 39 29 61 32 61 9z m-2530 -54 l0 -40 -160 0 -160 0 0 40 0 40 160
0 160 0 0 -40z m445 0 l0 -35 -170 0 -170 0 -3 23 c-8 52 -5 53 175 50 l168
-3 0 -35z m2243 18 c-2 -15 -11 -24 -25 -26 -19 -3 -23 1 -23 22 0 21 5 26 26
26 21 0 25 -4 22 -22z m-310 -75 c2 -16 -3 -22 -20 -25 -17 -2 -24 -11 -26
-31 -4 -36 21 -45 59 -23 50 30 69 -7 23 -43 -32 -25 -90 -27 -116 -4 -12 11
-18 30 -18 59 0 36 5 46 33 68 37 30 61 30 65 -1z m-3301 -55 c-2 -13 -4 -3
-4 22 0 25 2 35 4 23 2 -13 2 -33 0 -45z m3178 -70 c24 -18 44 -38 45 -45 0
-6 -16 -17 -36 -23 -20 -7 -40 -22 -46 -35 -10 -23 -38 -42 -38 -27 0 4 -7 39
-15 77 -13 65 -13 71 2 83 21 15 30 12 88 -30z m-2027 14 l92 -2 0 -37 0 -38
-123 0 c-67 1 -155 2 -195 3 l-73 2 3 33 c3 30 6 32 48 37 46 5 81 6 248 2z
m-388 -14 c0 -7 -3 -23 -6 -35 -6 -23 -8 -23 -185 -23 l-179 0 0 35 0 35 185
0 c141 0 185 -3 185 -12z m2254 -57 c3 -22 3 -47 0 -55 -7 -18 7 -21 22 -6 11
11 44 3 44 -10 0 -9 -80 -80 -89 -80 -8 1 -81 116 -81 128 0 6 8 13 19 17 10
3 26 14 36 25 27 30 42 24 49 -19z m-3017 -33 c-2 -13 -4 -3 -4 22 0 25 2 35
4 23 2 -13 2 -33 0 -45z m2888 -40 c14 -21 14 -24 -7 -40 -31 -23 -12 -46 22
-28 18 10 24 9 35 -7 12 -16 10 -22 -25 -57 -41 -42 -64 -43 -79 -4 -5 13 -21
41 -36 63 -18 25 -23 41 -15 43 6 2 23 15 38 28 34 29 47 30 67 2z m-557 -80
l-3 -73 -54 -10 c-46 -9 -55 -14 -58 -35 -5 -33 -8 -34 -43 -20 -20 8 -30 19
-30 34 1 39 24 56 74 56 39 0 48 4 55 23 5 12 7 33 4 46 -6 36 3 51 32 51 26
0 26 -1 23 -72z m-661 41 c21 -12 45 -27 53 -33 34 -29 132 -76 142 -70 7 4 8
3 4 -4 -4 -7 10 -20 36 -33 23 -12 65 -36 92 -53 77 -48 87 -54 147 -85 30
-16 60 -36 67 -43 7 -9 10 -53 7 -133 -2 -66 -5 -203 -7 -305 -3 -174 -4 -187
-26 -222 -13 -21 -39 -47 -58 -58 -37 -24 -44 -33 -16 -23 22 8 13 -1 -17 -17
-15 -7 -21 -8 -17 -1 5 7 1 9 -8 5 -9 -3 -14 -10 -11 -14 3 -4 -1 -8 -8 -7
-31 1 -48 -4 -43 -12 3 -5 -1 -12 -10 -15 -8 -3 -12 -11 -8 -17 4 -7 3 -9 -4
-5 -5 3 -12 3 -14 -2 -7 -16 -140 -92 -150 -86 -6 4 -8 2 -5 -3 4 -6 -10 -19
-30 -28 -20 -10 -46 -26 -57 -36 -21 -21 -41 -26 -30 -8 3 6 -7 4 -24 -5 -30
-15 -32 -15 -94 20 -35 20 -88 50 -118 67 -30 16 -66 37 -80 46 -14 9 -50 30
-80 45 -30 16 -62 34 -70 41 -8 7 -26 16 -40 20 -13 4 -37 17 -52 28 -22 16
-30 18 -42 8 -11 -9 -18 -7 -35 15 -21 26 -21 34 -19 358 l3 330 140 90 c241
155 420 265 432 265 7 1 29 -8 50 -20z m1091 -70 c9 -17 25 -40 35 -51 34 -41
14 -68 -37 -48 -27 10 -27 10 -21 -21 6 -28 5 -30 -16 -27 -13 2 -28 12 -34
23 -5 11 -21 37 -34 58 -26 42 -25 45 34 76 51 27 53 27 73 -10z m-2481 -141
c-3 -7 -5 -2 -5 12 0 14 2 19 5 13 2 -7 2 -19 0 -25z m223 -98 c0 -5 -4 -10
-10 -10 -5 0 -10 5 -10 10 0 6 5 10 10 10 6 0 10 -4 10 -10z m70 0 c0 -5 -4
-10 -10 -10 -5 0 -10 5 -10 10 0 6 5 10 10 10 6 0 10 -4 10 -10z m81 -705 c24
-9 55 -25 69 -36 14 -11 20 -18 14 -15 -21 10 -180 16 -164 6 8 -5 25 -10 37
-10 12 0 24 -3 26 -7 3 -5 -43 -7 -101 -5 -70 2 -120 -1 -144 -10 -37 -13
-320 -185 -516 -313 -123 -80 -156 -121 -184 -222 l-18 -68 3 65 c5 74 37 148
84 192 15 14 143 97 283 184 329 203 368 225 410 241 48 17 148 16 201 -2z
m729 -175 c8 -5 11 -10 5 -10 -5 0 -17 5 -25 10 -8 5 -10 10 -5 10 6 0 17 -5
25 -10z m385 -875 c-16 -14 -37 -25 -45 -25 -8 1 3 12 25 25 51 31 59 31 20 0z"/>
<path d="M1735 8530 c27 -7 27 -8 6 -9 -13 0 -22 -4 -19 -7 3 -3 23 -2 44 2
36 7 37 8 14 15 -14 4 -36 7 -50 7 -22 0 -22 -1 5 -8z"/>
<path d="M1581 8407 c-8 -10 -7 -14 4 -14 8 0 16 6 19 14 3 7 2 13 -3 13 -5 0
-14 -6 -20 -13z"/>
<path d="M1564 8369 c-3 -6 -2 -15 3 -20 5 -5 9 -1 9 11 0 23 -2 24 -12 9z"/>
<path d="M1590 8350 c0 -5 7 -7 15 -4 8 4 15 8 15 10 0 2 -7 4 -15 4 -8 0 -15
-4 -15 -10z"/>
<path d="M1578 6735 c-3 -3 -42 -7 -86 -8 -63 -1 -78 -4 -70 -14 7 -9 40 -13
99 -13 82 0 89 2 89 20 0 18 -19 27 -32 15z"/>
<path d="M2785 7111 c-35 -21 -56 -50 -75 -102 -13 -36 -14 -36 -81 -42 -37
-3 -82 -13 -99 -22 -60 -31 -64 -107 -10 -184 31 -43 31 -43 12 -65 -30 -32
-52 -82 -52 -116 0 -69 50 -100 162 -100 l56 0 18 -46 c10 -26 32 -62 50 -80
26 -28 39 -34 72 -34 53 0 92 33 123 105 l24 55 63 0 c64 0 116 18 139 49 24
32 15 94 -21 145 l-34 48 34 56 c73 121 23 191 -137 192 -45 0 -46 1 -58 40
-6 22 -29 58 -50 80 -44 46 -85 53 -136 21z m102 -53 c11 -13 28 -37 36 -54
l16 -32 -55 -21 -56 -21 -44 20 -45 19 17 33 c25 51 55 78 84 78 15 0 36 -10
47 -22z m-210 -174 c-4 -36 -13 -54 -43 -85 -21 -21 -43 -39 -50 -39 -13 0
-54 77 -54 102 0 32 60 65 124 67 28 1 29 0 23 -45z m277 20 c9 -34 1 -41 -22
-21 -10 10 -24 17 -30 17 -19 0 -14 18 6 23 34 9 40 7 46 -19z m166 -3 c35
-25 36 -56 5 -103 l-27 -41 -43 44 c-32 33 -44 55 -49 88 l-7 43 48 -6 c26 -4
59 -15 73 -25z m-333 11 c8 -5 -2 -15 -28 -30 l-39 -23 0 24 c0 13 3 27 7 30
9 9 45 9 60 -1z m111 -50 l33 -18 -53 2 c-49 1 -84 -9 -99 -29 -4 -5 -17 -14
-30 -21 -16 -7 -26 -23 -30 -46 -6 -33 -6 -33 -8 11 -1 51 8 63 74 97 49 26
70 26 113 4z m-228 -134 l0 -61 -25 23 c-14 13 -25 28 -25 33 0 8 41 65 48 66
1 1 2 -27 2 -61z m379 -24 c-12 -13 -26 -24 -31 -24 -4 0 -8 26 -8 58 l1 57
30 -34 31 -33 -23 -24z m-375 -107 c14 -70 11 -77 -43 -77 -55 0 -101 28 -101
62 0 11 12 42 26 69 l27 48 42 -36 c27 -22 45 -47 49 -66z m454 54 c44 -78 19
-121 -73 -129 l-55 -4 0 43 c0 38 5 47 46 86 26 24 50 43 54 43 3 0 16 -17 28
-39z m-360 -109 c-35 -15 -48 -6 -48 35 l0 21 40 -21 40 -22 -32 -13z m189 -8
c-6 -6 -67 7 -67 15 0 3 15 15 33 27 l32 21 3 -29 c2 -17 2 -32 -1 -34z m-73
-24 c51 -23 53 -27 30 -73 -22 -44 -54 -77 -74 -77 -29 0 -90 84 -90 124 0 8
19 21 43 29 23 9 43 16 43 16 1 1 22 -8 48 -19z"/>
<path d="M2280 6375 c0 -14 29 -35 35 -26 3 6 -4 15 -15 21 -11 6 -20 8 -20 5z"/>
<path d="M3910 7283 c0 -5 5 -15 10 -23 9 -13 11 -13 20 0 15 22 12 30 -10 30
-11 0 -20 -3 -20 -7z"/>
<path d="M6703 8909 c-18 -12 -33 -25 -33 -29 0 -5 16 -18 36 -31 21 -13 44
-38 54 -62 11 -25 20 -34 24 -25 3 7 4 0 1 -17 -2 -16 -2 -24 1 -18 4 8 15 11
29 7 21 -5 25 -1 36 36 10 32 25 52 61 78 38 29 45 38 33 45 -8 4 -20 5 -27 1
-6 -4 -8 -3 -5 3 4 6 0 16 -8 23 -13 10 -20 8 -41 -14 -34 -34 -75 -34 -100
-1 -22 30 -21 30 -61 4z"/>
<path d="M1670 8891 c0 -6 4 -13 10 -16 6 -3 7 1 4 9 -7 18 -14 21 -14 7z"/>
<path d="M1700 8890 c0 -5 11 -10 25 -10 14 0 25 5 25 10 0 6 -11 10 -25 10
-14 0 -25 -4 -25 -10z"/>
<path d="M2496 8893 c-3 -4 3 -16 15 -29 l20 -22 -22 -16 c-18 -12 -21 -18
-11 -28 9 -9 18 -6 41 16 25 24 28 32 18 47 -13 20 -52 41 -61 32z"/>
<path d="M2580 8869 c0 -14 5 -19 14 -16 8 3 16 -2 19 -14 6 -21 -9 -36 -16
-17 -2 7 -7 10 -11 7 -9 -8 4 -39 16 -39 5 0 20 10 34 23 l25 23 -27 27 c-32
32 -54 35 -54 6z"/>
<path d="M2880 8845 c0 -13 4 -14 20 -5 11 6 20 13 20 15 0 3 -9 5 -20 5 -11
0 -20 -7 -20 -15z"/>
<path d="M2883 8813 c-8 -3 -13 -24 -13 -59 0 -43 3 -52 15 -48 8 4 17 16 20
28 7 31 -8 84 -22 79z"/>
<path d="M7667 8783 c-14 -15 -21 -15 -37 -5 -16 10 -18 9 -14 -3 4 -8 13 -15
21 -15 9 0 22 -8 30 -17 13 -16 13 -16 3 5 -6 13 -7 22 -1 22 5 0 11 -6 14
-12 2 -7 4 -1 3 14 0 16 -1 28 -1 28 -1 0 -9 -8 -18 -17z"/>
<path d="M1814 8779 c-3 -6 -1 -16 5 -22 8 -8 11 -5 11 11 0 24 -5 28 -16 11z"/>
<path d="M3870 8750 l-27 -29 -11 24 c-7 15 -20 25 -32 25 -25 0 -26 -18 -2
-36 15 -11 15 -16 4 -34 -18 -29 -11 -33 36 -25 34 5 41 11 46 36 4 23 11 29
31 29 20 0 27 -6 32 -30 7 -39 33 -40 33 -2 0 32 -36 72 -64 72 -10 0 -30 -13
-46 -30z"/>
<path d="M2100 8760 c0 -5 5 -10 10 -10 6 0 10 5 10 10 0 6 -4 10 -10 10 -5 0
-10 -4 -10 -10z"/>
<path d="M2935 8760 c-3 -6 1 -7 9 -4 18 7 21 14 7 14 -6 0 -13 -4 -16 -10z"/>
<path d="M3430 8741 c0 -23 -16 -37 -22 -20 -5 14 -48 3 -48 -12 0 -5 11 -9
24 -9 15 0 26 -7 29 -19 2 -10 14 -24 25 -30 18 -10 24 -8 38 14 11 17 25 25
45 25 19 0 29 5 29 15 0 9 -9 15 -23 15 -13 0 -32 9 -42 20 -24 26 -55 26 -55
1z"/>
<path d="M7970 8725 c14 -7 27 -11 30 -9 6 7 -22 24 -40 23 -9 0 -5 -6 10 -14z"/>
<path d="M8326 8712 c-3 -5 8 -9 24 -9 16 0 27 4 24 9 -3 4 -14 8 -24 8 -10 0
-21 -4 -24 -8z"/>
<path d="M3106 8668 c5 -26 1 -38 -20 -57 -21 -20 -35 -23 -88 -23 -35 0 -76
5 -92 11 -16 6 -31 9 -35 6 -11 -12 17 -40 45 -45 l29 -5 3 -124 c2 -107 5
-121 17 -111 12 10 15 38 15 120 l0 107 40 6 c82 11 131 62 116 122 -10 39
-36 32 -30 -7z"/>
<path d="M7968 8653 c7 -3 16 -2 19 1 4 3 -2 6 -13 5 -11 0 -14 -3 -6 -6z"/>
<path d="M6205 8591 c-73 -18 -130 -77 -140 -143 -3 -24 -5 -221 -3 -438 3
-422 4 -427 54 -471 41 -36 81 -39 458 -39 366 0 372 0 416 23 38 19 47 29 62
75 17 49 18 90 16 466 l-3 413 -28 41 c-53 76 -56 77 -452 79 -192 1 -363 -2
-380 -6z m738 -56 c18 -9 41 -28 52 -43 19 -26 20 -45 23 -430 3 -383 2 -405
-17 -447 -13 -29 -29 -49 -46 -55 -16 -6 -172 -10 -388 -10 -345 0 -364 1
-395 20 -62 38 -63 46 -60 500 l3 408 25 27 c14 15 34 31 45 35 11 5 179 9
373 9 299 1 359 -1 385 -14z"/>
<path d="M3678 8440 c-2 -55 -1 -105 0 -110 2 -6 30 -10 63 -10 l59 0 0 110 0
110 -59 0 -60 0 -3 -100z m80 -13 c3 -77 2 -78 -20 -75 -21 3 -23 9 -26 67 -4
75 2 94 25 89 15 -3 18 -16 21 -81z"/>
<path d="M7407 8525 c-51 -18 -83 -49 -103 -100 -13 -36 -15 -80 -12 -286 3
-226 5 -247 25 -284 11 -22 32 -50 45 -62 25 -24 83 -50 73 -33 -4 7 31 10
107 8 l113 -3 5 -105 c5 -104 11 -130 31 -130 6 0 67 53 135 118 l125 117 237
6 c130 4 247 7 259 8 14 1 29 13 40 34 16 28 18 64 18 324 0 279 -1 293 -21
319 -31 42 -67 65 -115 75 -24 4 -242 8 -484 8 -347 0 -448 -3 -478 -14z m908
-45 c39 -4 -146 -7 -410 -8 -428 -2 -483 -4 -505 -18 -24 -17 -25 -17 -7 2 16
17 38 20 195 25 227 7 636 6 727 -1z m-954 -63 c-10 -9 -11 -8 -5 6 3 10 9 15
12 12 3 -3 0 -11 -7 -18z m634 -28 c6 -6 5 -13 -3 -18 -16 -10 -359 -24 -372
-16 -17 10 -11 43 8 48 30 9 357 -4 367 -14z m185 -194 l0 -35 -158 0 c-87 0
-161 2 -164 5 -2 3 -3 18 0 35 l4 30 159 0 159 0 0 -35z m74 -168 c16 -26 -25
-60 -57 -48 -29 11 -34 39 -10 57 23 18 53 14 67 -9z"/>
<path d="M878 8443 c5 -21 7 -23 10 -9 2 10 0 22 -6 28 -6 6 -7 0 -4 -19z"/>
<path d="M900 8450 c0 -11 4 -20 8 -20 4 0 8 9 8 20 0 11 -4 20 -8 20 -4 0 -8
-9 -8 -20z"/>
<path d="M860 8431 c0 -11 4 -22 9 -25 4 -3 6 6 3 19 -5 30 -12 33 -12 6z"/>
<path d="M3577 8344 c-3 -3 -3 -12 0 -20 6 -16 43 -19 43 -4 0 12 -35 31 -43
24z"/>
<path d="M3240 8307 c-14 -7 -41 -36 -60 -65 -31 -47 -35 -50 -42 -32 -6 17
-11 19 -28 10 -23 -12 -26 -26 -8 -32 8 -3 -2 -18 -25 -40 -50 -47 -48 -71 9
-125 39 -36 43 -43 25 -43 -24 0 -29 -25 -5 -34 27 -10 42 -7 46 12 3 11 12
-1 27 -36 26 -57 61 -92 95 -92 29 0 84 58 101 106 10 28 14 33 15 17 0 -18 6
-23 25 -23 31 0 45 28 22 42 -25 13 -21 24 23 64 41 38 66 96 54 130 -15 41
-46 64 -88 64 -35 0 -46 6 -82 45 -43 47 -62 53 -104 32z m83 -57 c25 -29 42
-40 63 -40 68 0 103 -36 89 -92 -7 -26 -85 -111 -85 -92 0 5 5 15 11 21 7 7 9
18 7 25 -8 19 -91 58 -135 64 l-38 4 39 -15 c50 -19 106 -62 106 -80 0 -8 -8
-30 -17 -50 -16 -34 -19 -35 -72 -35 -63 0 -117 23 -179 76 -67 57 -52 90 59
127 9 3 19 19 22 35 8 37 53 92 77 92 10 0 34 -18 53 -40z m-43 -319 c25 -2
47 -5 49 -7 9 -9 -37 -59 -57 -62 -22 -3 -44 23 -57 68 -7 20 -5 23 6 14 8 -6
34 -12 59 -13z"/>
<path d="M3190 8079 c0 -5 5 -7 10 -4 6 3 10 8 10 11 0 2 -4 4 -10 4 -5 0 -10
-5 -10 -11z"/>
<path d="M5592 8251 c-21 -13 1 -18 91 -20 72 -2 99 8 61 23 -23 9 -137 7
-152 -3z"/>
<path d="M5788 8235 c-23 -31 -23 -42 2 -55 24 -13 28 -65 5 -74 -8 -3 -12
-12 -9 -21 3 -8 11 -12 18 -8 6 4 6 0 -2 -9 -18 -23 4 -35 27 -14 10 9 34 16
54 16 20 0 37 4 37 9 0 14 -37 23 -59 16 -16 -5 -21 2 -30 45 -9 42 -8 55 5
75 14 22 14 24 -5 34 -25 14 -23 15 -43 -14z"/>
<path d="M8760 8110 c0 -5 5 -10 11 -10 5 0 7 5 4 10 -3 6 -8 10 -11 10 -2 0
-4 -4 -4 -10z"/>
<path d="M5420 8098 c-20 -11 -26 -23 -28 -55 -3 -37 0 -43 21 -48 13 -4 43
-5 68 -3 44 3 44 3 47 43 1 22 -2 46 -6 53 -13 19 -73 25 -102 10z m76 -42
c10 -41 -15 -57 -60 -40 -19 7 -21 50 -3 57 32 13 57 6 63 -17z"/>
<path d="M8730 8039 c0 -5 5 -7 10 -4 6 3 10 8 10 11 0 2 -4 4 -10 4 -5 0 -10
-5 -10 -11z"/>
<path d="M959 7985 c-10 -16 -11 -183 -1 -189 5 -3 11 11 14 32 6 47 -5 170
-13 157z"/>
<path d="M5379 7858 c-1 -13 -1 -29 0 -35 3 -20 -23 -15 -37 7 -22 36 -72 19
-72 -25 0 -40 50 -61 78 -33 16 16 32 -5 32 -44 0 -18 5 -28 15 -28 10 0 15
11 15 35 0 37 -4 35 72 39 10 1 18 5 18 9 0 37 0 37 -45 30 l-45 -6 0 37 c0
25 -4 36 -15 36 -9 0 -16 -10 -16 -22z m-51 -56 c3 -17 -2 -22 -17 -22 -16 0
-21 6 -21 26 0 33 33 30 38 -4z"/>
<path d="M8808 7838 c15 -15 15 -51 0 -66 -9 -9 -8 -15 8 -27 25 -19 41 -19
52 2 7 12 4 21 -12 34 -17 14 -19 20 -8 30 22 23 14 39 -20 39 -25 0 -29 -3
-20 -12z"/>
<path d="M963 7690 c0 -25 2 -35 4 -22 2 12 2 32 0 45 -2 12 -4 2 -4 -23z"/>
<path d="M8614 7699 c-8 -14 27 -80 41 -76 5 2 9 16 7 30 -2 19 1 27 12 27 9
0 15 -3 15 -7 -1 -5 -1 -19 0 -33 1 -23 2 -24 19 -7 16 17 15 20 -16 48 -33
30 -66 37 -78 18z"/>
<path d="M5494 7663 c-71 -41 -181 -107 -214 -128 -48 -31 -177 -111 -285
-177 -158 -96 -429 -269 -461 -293 -56 -43 -86 -134 -64 -200 27 -83 125 -146
205 -131 18 4 114 57 212 118 98 61 259 161 358 223 99 62 248 154 330 205 83
51 166 102 185 115 30 19 41 37 73 126 55 149 45 159 -168 159 -116 0 -146 -3
-171 -17z m296 -33 c22 -13 3 -17 -120 -25 -95 -6 -111 -9 -170 -41 -57 -32
-112 -70 -70 -50 8 4 2 -4 -13 -18 -15 -14 -33 -26 -39 -26 -7 0 -3 7 8 16 18
14 18 14 -6 3 -14 -6 -39 -22 -57 -35 -17 -13 -34 -24 -36 -24 -2 0 -34 -19
-70 -42 -36 -24 -84 -54 -107 -68 -23 -14 -50 -32 -59 -42 -10 -9 -37 -26 -61
-38 -76 -39 -233 -144 -222 -148 7 -2 9 -8 6 -14 -4 -6 -9 -6 -14 2 -9 14 -15
11 -121 -61 -73 -50 -99 -76 -100 -102 0 -21 -1 -21 -10 3 -13 33 11 87 54
121 18 14 91 61 162 106 162 101 276 172 530 331 263 165 256 162 390 162 61
0 117 -4 125 -10z m-390 -199 c0 -17 -4 -32 -9 -35 -11 -7 -24 41 -16 54 12
20 25 9 25 -19z m-55 11 c12 -8 17 -62 6 -62 -15 0 -61 25 -61 33 0 5 9 11 20
14 11 3 17 9 14 14 -6 11 7 12 21 1z m-47 -73 c12 -19 11 -19 -8 -9 -20 11
-27 2 -11 -15 6 -6 2 -20 -11 -35 -20 -24 -21 -24 -16 -3 4 13 0 27 -8 34 -18
15 -18 29 1 29 8 0 15 5 15 10 0 18 25 11 38 -11z m-76 -57 c19 -30 19 -32 2
-25 -11 3 -21 9 -24 13 -3 3 -16 11 -30 17 -18 9 -20 12 -7 12 9 1 17 6 17 12
0 19 20 5 42 -29z m-29 -21 c6 -6 7 -14 3 -18 -4 -5 -13 0 -20 10 -18 23 -29
22 -16 -2 13 -26 13 -31 -5 -31 -8 0 -15 7 -15 15 0 8 -7 15 -15 15 -17 0 -19
-9 -5 -30 5 -9 5 -19 -2 -27 -9 -11 -14 -9 -25 7 -18 25 -33 18 -25 -12 3 -14
1 -19 -6 -14 -8 4 -10 2 -6 -7 9 -23 -15 -31 -37 -11 -22 20 -25 44 -5 44 7 0
25 11 40 25 15 14 34 25 42 25 8 0 17 7 20 15 7 16 59 14 77 -4z m-199 -115
c22 -34 1 -45 -30 -15 -18 17 -21 25 -12 31 20 12 24 10 42 -16z m-126 -30
c-10 -7 -14 -17 -10 -21 4 -5 1 -5 -7 0 -12 7 -11 10 4 22 24 17 36 17 13 -1z
m-227 -166 c10 -6 19 -19 19 -30 0 -23 -43 -55 -64 -47 -23 9 -26 47 -5 68 22
22 24 22 50 9z"/>
<path d="M950 7475 c0 -8 7 -15 15 -15 8 0 15 7 15 15 0 8 -7 15 -15 15 -8 0
-15 -7 -15 -15z"/>
<path d="M946 7364 c-8 -22 -8 -23 12 -20 9 2 16 6 15 9 -2 4 -3 12 -3 17 0
16 -17 12 -24 -6z"/>
<path d="M7740 7349 c-381 -19 -605 -31 -875 -44 -199 -10 -306 -19 -343 -30
-75 -23 -205 -100 -657 -393 -194 -126 -223 -141 -237 -125 -7 9 -44 31 -83
50 -61 29 -79 33 -150 33 -76 0 -88 -3 -174 -45 -98 -48 -199 -115 -242 -162
-60 -64 -119 -191 -119 -255 0 -23 -4 -28 -24 -28 -42 0 -99 -26 -208 -96 -59
-38 -154 -98 -210 -133 -291 -183 -375 -246 -399 -303 -8 -19 -29 -38 -63 -55
-83 -42 -228 -143 -263 -182 -67 -75 -80 -178 -34 -257 l20 -34 -87 -57 c-48
-31 -141 -90 -207 -131 -274 -171 -361 -228 -387 -256 -29 -31 -35 -60 -41
-180 -3 -49 -9 -72 -20 -81 -9 -7 -13 -16 -9 -20 4 -5 -1 -5 -10 -2 -10 4 -18
2 -18 -3 0 -6 -4 -10 -10 -10 -5 0 -47 -22 -92 -49 -46 -27 -96 -53 -111 -57
l-29 -7 4 87 c3 76 1 87 -13 83 -17 -4 -299 -182 -423 -265 -64 -44 -109 -87
-118 -112 -2 -6 -14 -12 -26 -13 -13 -1 -30 -9 -38 -19 -15 -15 -14 -20 6 -47
21 -31 58 -57 72 -53 5 1 8 -4 8 -11 0 -7 -18 -23 -40 -36 -22 -12 -54 -34
-72 -49 -18 -15 -29 -20 -24 -12 6 13 6 13 -6 0 -7 -8 -44 -35 -83 -59 -38
-24 -92 -58 -120 -76 -27 -18 -73 -47 -102 -65 -45 -28 -62 -52 -63 -84 0 -6
8 -1 19 10 18 19 104 75 266 174 157 96 251 154 340 210 50 31 140 87 200 125
61 37 139 87 175 111 73 49 105 55 115 23 8 -24 -14 -47 -96 -100 -55 -35 -61
-43 -23 -29 16 7 23 7 19 0 -3 -6 2 -10 12 -10 17 -1 17 -2 -1 -15 -11 -8 -16
-15 -11 -15 10 0 -129 -92 -280 -185 -53 -33 -102 -65 -109 -70 -6 -6 -29 -22
-51 -36 -22 -14 -66 -51 -97 -82 l-58 -56 0 -84 c0 -98 3 -94 -130 -179 -265
-171 -285 -181 -328 -169 -1 1 2 10 8 20 5 11 95 76 200 146 160 106 190 130
190 151 0 28 -10 30 -48 10 -30 -16 -413 -261 -672 -431 -91 -59 -194 -127
-230 -150 -218 -141 -449 -296 -463 -310 -18 -18 -12 -45 10 -45 8 0 60 28
116 63 56 34 109 67 119 72 37 22 247 153 337 212 86 56 96 60 99 42 5 -28
-10 -43 -98 -102 -118 -79 -250 -178 -250 -188 0 -5 10 -4 22 2 20 11 22 11
10 -3 -15 -19 -2 -31 25 -22 15 6 16 4 6 -7 -16 -17 -17 -33 -1 -23 6 4 23 8
38 9 15 1 129 69 271 161 134 88 317 207 406 265 90 57 209 134 265 170 57 37
299 193 538 347 239 154 548 354 685 445 421 277 702 455 895 570 47 27 102
61 123 74 22 14 41 23 43 20 2 -2 -5 -30 -17 -63 -15 -44 -19 -78 -17 -134 l3
-75 -127 -86 c-70 -47 -137 -94 -149 -105 -32 -29 -59 -89 -59 -133 0 -49 32
-126 58 -140 15 -8 19 -21 19 -66 0 -42 8 -70 31 -118 l32 -62 -28 -23 c-15
-12 -70 -49 -122 -81 -58 -36 -114 -80 -143 -113 -72 -83 -91 -100 -143 -138
-71 -51 -157 -103 -171 -103 -7 0 -13 -4 -13 -8 0 -4 -30 -22 -66 -40 -36 -18
-68 -39 -71 -46 -3 -7 -9 -10 -14 -7 -5 3 -9 1 -9 -4 0 -5 -13 -15 -30 -22
-16 -7 -30 -16 -30 -20 0 -4 -21 -19 -47 -34 -64 -36 -87 -50 -93 -57 -3 -3
-30 -19 -60 -35 -30 -16 -57 -31 -60 -34 -3 -3 -17 -11 -32 -19 -16 -8 -28
-18 -28 -22 0 -5 -22 -18 -50 -30 -27 -12 -50 -25 -50 -29 0 -4 -11 -11 -25
-14 -16 -4 -23 -11 -19 -18 4 -6 3 -8 -3 -5 -12 8 -65 -27 -56 -37 4 -4 0 -4
-9 -1 -9 4 -19 1 -24 -6 -5 -8 -3 -10 6 -4 8 5 11 4 6 -3 -4 -6 -13 -9 -21 -6
-7 3 -23 -4 -34 -15 -12 -12 -23 -21 -26 -21 -3 0 -15 -9 -27 -20 -12 -10 -26
-17 -31 -13 -6 3 -7 2 -4 -4 6 -9 -116 -88 -178 -115 -16 -7 -41 -23 -55 -36
-14 -13 -49 -34 -77 -48 -29 -14 -53 -29 -53 -33 0 -4 -17 -15 -38 -24 -21 -9
-47 -25 -59 -36 -11 -11 -24 -17 -27 -14 -3 4 -6 2 -6 -4 0 -11 -103 -77 -137
-87 -13 -4 -23 -12 -23 -17 0 -6 -21 -20 -48 -31 -26 -11 -49 -24 -52 -27 -3
-4 -25 -19 -50 -33 -25 -14 -56 -36 -69 -47 -13 -12 -28 -21 -32 -21 -15 0
-129 -72 -129 -82 0 -5 -4 -6 -10 -3 -5 3 -10 2 -10 -3 0 -5 -6 -9 -12 -9 -7
0 -40 -18 -73 -40 -33 -22 -116 -74 -185 -115 -304 -184 -578 -363 -527 -345
22 8 23 -11 1 -20 -14 -5 -12 -8 7 -19 13 -7 33 -11 44 -8 16 4 17 3 5 -5 -12
-9 -10 -11 10 -11 23 -1 24 -2 8 -14 -23 -17 -23 -27 0 -19 15 6 15 4 -2 -16
-11 -12 -26 -19 -33 -17 -7 3 -12 2 -10 -3 1 -4 -22 -27 -50 -50 -57 -45 -61
-52 -38 -71 19 -15 39 -7 150 64 39 25 81 51 95 59 14 7 38 22 55 33 16 10 26
15 23 9 -3 -6 6 -10 23 -11 26 -1 27 0 11 12 -20 16 -9 18 19 4 23 -13 26 -2
4 14 -13 10 -12 13 7 25 21 13 22 13 9 -2 -12 -15 -11 -17 7 -17 11 0 22 -7
26 -15 3 -8 12 -15 20 -15 8 0 16 -8 18 -17 3 -16 4 -16 20 0 9 9 21 17 25 17
16 0 431 255 1158 710 683 428 741 464 1265 778 124 74 241 146 260 160 20 16
44 25 58 23 15 -2 45 12 80 37 142 98 712 452 729 452 6 0 18 -10 29 -21 10
-12 34 -28 52 -36 18 -8 32 -19 29 -26 -2 -6 -45 -39 -95 -72 -87 -57 -384
-249 -420 -270 -21 -13 -27 -35 -9 -35 6 -1 1 -10 -12 -20 -29 -25 -12 -26 20
-2 13 10 62 41 109 69 47 28 179 107 294 177 115 69 214 126 221 126 14 0 45
-32 45 -46 0 -6 -39 -35 -86 -65 -107 -67 -245 -158 -262 -171 -9 -8 -9 -14
-1 -24 18 -21 37 -17 88 20 25 18 107 68 181 111 74 43 223 131 331 197 108
65 204 118 213 118 9 0 19 -7 22 -15 4 -10 13 -13 27 -9 14 4 19 2 15 -7 -6
-18 24 -47 43 -41 8 3 3 -4 -11 -15 -49 -37 -81 -54 -92 -47 -7 4 -8 3 -4 -4
7 -11 -6 -17 -27 -13 -5 1 -6 -3 -2 -8 3 -6 -5 -15 -17 -22 -13 -6 -61 -37
-108 -68 -47 -31 -161 -103 -255 -159 -93 -57 -233 -143 -310 -193 -77 -49
-192 -121 -255 -159 -63 -39 -146 -90 -185 -114 -38 -25 -128 -80 -200 -124
-141 -86 -229 -141 -402 -250 -61 -39 -126 -78 -142 -87 l-31 -16 0 105 c0 80
-4 108 -15 120 -17 17 -174 93 -246 120 l-46 17 -94 -59 c-140 -89 -139 -87
-139 -177 0 -68 -9 -91 -25 -65 -12 19 -33 10 -157 -66 -163 -100 -158 -95
-158 -165 0 -32 -5 -78 -12 -102 -9 -36 -8 -52 7 -101 15 -48 16 -64 7 -90
-18 -50 -15 -60 30 -104 46 -46 46 -46 135 -6 28 13 55 24 60 24 4 0 37 19 73
43 36 23 97 61 136 85 79 47 120 85 110 101 -4 7 -1 8 8 5 9 -4 18 1 22 10 3
9 10 13 15 11 8 -6 89 35 159 80 125 79 148 96 161 111 13 15 12 16 -10 9 -40
-12 -15 12 57 55 37 22 99 60 137 85 39 25 106 67 150 93 44 27 127 80 185
118 58 38 119 76 135 84 17 8 50 29 75 46 25 17 74 47 110 68 36 21 67 41 70
45 3 4 32 22 65 41 33 18 98 59 145 91 47 31 101 64 120 72 19 8 54 23 78 33
40 16 62 40 25 27 -10 -3 6 10 34 30 29 21 55 37 58 37 4 0 52 29 108 66 56
36 158 100 227 142 69 42 168 107 220 143 52 36 140 92 195 124 55 32 129 77
165 101 299 194 431 274 450 274 70 0 254 82 390 173 237 159 323 369 255 622
-5 17 14 32 114 95 262 164 447 283 469 304 13 11 32 37 42 56 10 19 108 278
219 575 111 297 214 569 228 605 14 36 64 166 111 290 79 208 86 231 86 300 1
123 -48 223 -125 254 -42 17 -60 17 -299 5z m274 -58 c7 -11 -123 -31 -202
-31 -54 -1 -56 -1 -32 -15 l25 -14 -25 -2 c-17 -1 -19 -3 -8 -6 14 -3 11 -10
-18 -35 l-34 -30 -248 -14 c-136 -8 -319 -18 -407 -24 -88 -5 -212 -12 -275
-15 -166 -9 -234 -22 -309 -60 -80 -40 -753 -469 -830 -528 -86 -67 -102 -106
-171 -412 -78 -346 -106 -457 -127 -500 -16 -33 -79 -80 -165 -124 -15 -8 -37
-23 -48 -33 -11 -10 -20 -16 -20 -13 0 3 -11 -2 -25 -11 -14 -9 -22 -21 -18
-27 3 -6 1 -7 -5 -3 -11 7 -39 -11 -260 -160 -56 -38 -146 -97 -200 -132 -113
-74 -118 -77 -101 -87 8 -5 10 -4 5 3 -4 7 -5 12 -2 12 2 0 12 3 22 7 13 5 15
3 9 -7 -5 -9 -4 -11 4 -6 6 4 9 11 7 15 -3 4 13 18 35 32 22 13 97 61 167 107
202 133 240 155 253 146 8 -4 10 -3 5 4 -4 7 -4 12 1 13 32 3 51 12 91 46 47
39 82 59 82 45 0 -4 -7 -25 -15 -47 -23 -65 -18 -67 53 -16 37 27 94 66 126
87 43 28 62 48 68 69 4 17 48 203 98 415 50 212 98 401 106 422 25 56 74 97
284 231 107 68 285 182 395 252 289 185 246 172 595 191 162 9 411 23 553 33
141 9 257 13 257 9 0 -21 -78 -177 -85 -170 -4 4 -5 1 0 -6 4 -8 2 -24 -4 -35
-6 -12 -53 -128 -105 -257 -196 -489 -296 -729 -320 -765 -9 -14 -22 -23 -28
-19 -7 4 -8 3 -4 -5 4 -6 2 -19 -5 -27 -14 -17 -129 -93 -181 -120 -17 -9 -38
-22 -45 -29 -7 -7 -61 -43 -120 -80 -60 -36 -163 -101 -231 -144 -67 -43 -141
-83 -165 -89 -23 -6 -175 -20 -337 -32 -508 -37 -484 -32 -577 -102 -31 -24
-57 -37 -64 -32 -7 4 -9 3 -5 -4 4 -6 -17 -24 -51 -44 -114 -66 -144 -71 -199
-37 -38 23 -51 44 -70 104 l-12 40 -8 -45 c-9 -44 -11 -46 -149 -137 -77 -51
-171 -114 -210 -140 -38 -26 -128 -88 -200 -136 -173 -118 -225 -158 -225
-175 0 -27 -18 -1 -25 36 -15 90 44 216 133 283 28 22 52 47 52 55 0 11 5 14
16 10 14 -5 15 -4 5 8 -7 8 -9 21 -5 28 5 10 4 11 -7 1 -24 -23 -31 -14 -24
33 13 98 26 110 335 311 118 77 254 165 301 196 48 31 97 69 111 85 29 35 27
26 128 461 56 239 88 357 105 387 35 59 109 122 238 202 62 38 213 134 337
212 536 340 494 319 694 332 121 8 1144 61 1273 67 17 0 34 -3 37 -8z m-2545
-517 c28 -11 43 -24 50 -46 6 -17 9 -33 7 -35 -3 -3 -40 7 -82 22 -89 31 -146
29 -198 -6 -17 -11 -23 -18 -13 -15 9 3 24 3 32 0 11 -4 -20 -31 -96 -82 -91
-61 -115 -83 -130 -116 -10 -23 -19 -48 -19 -57 0 -9 -7 -22 -15 -29 -21 -17
-19 -2 6 67 12 32 35 73 52 91 36 37 32 43 -6 10 -14 -13 -40 -57 -59 -99 -18
-41 -41 -86 -50 -100 l-17 -24 0 26 c-2 82 63 195 154 267 66 51 164 110 212
127 51 19 124 18 172 -1z m-279 -351 c0 -5 -15 -18 -33 -31 -132 -92 -190
-138 -185 -145 2 -2 -4 -12 -12 -22 -14 -17 -14 -17 18 -1 37 19 42 30 10 21
-20 -5 -21 -4 -5 5 9 6 22 8 27 5 11 -7 101 43 97 53 -1 4 0 7 3 7 3 0 18 8
32 17 22 14 27 15 32 3 3 -9 0 -12 -10 -8 -7 3 -14 1 -14 -4 0 -11 -85 -74
-103 -77 -19 -2 -79 -46 -104 -75 -12 -14 -25 -41 -29 -58 -9 -46 -24 -31 -24
23 0 90 27 124 185 228 98 65 115 74 115 59z m-347 -149 c13 -5 12 -13 -8 -57
-13 -29 -27 -69 -30 -89 -4 -21 -11 -38 -15 -38 -5 0 -41 -22 -82 -49 -40 -26
-107 -70 -148 -96 -253 -163 -388 -252 -433 -288 -24 -18 -29 -19 -37 -7 -15
23 -12 107 5 148 29 67 36 73 465 347 96 61 184 117 195 123 22 12 65 15 88 6z
m-858 -576 c-3 -13 1 -44 8 -70 17 -56 23 -48 -108 -132 -49 -32 -102 -69
-117 -83 -32 -30 -43 -25 -51 23 -8 49 10 90 64 142 43 41 186 142 202 142 4
0 5 -10 2 -22z m730 -7 c-2 -2 5 -12 16 -24 10 -11 19 -24 19 -27 0 -16 -67
-72 -133 -111 -39 -23 -116 -71 -170 -106 -138 -89 -150 -94 -242 -102 -60 -6
-101 -17 -153 -41 -38 -18 -76 -30 -83 -28 -16 5 36 44 181 136 58 36 182 115
275 175 200 129 262 161 280 144 7 -7 11 -14 10 -16z m190 -66 c-28 -23 -170
-119 -325 -218 -136 -87 -225 -138 -284 -164 -28 -12 -50 -26 -49 -31 1 -6 -7
-8 -17 -5 -15 4 -20 0 -20 -16 0 -14 -9 -25 -26 -31 -14 -6 -22 -14 -19 -20 3
-6 -1 -7 -10 -4 -9 4 -15 2 -13 -3 2 -6 -18 -26 -44 -46 -27 -20 -48 -32 -48
-27 0 6 5 10 12 10 6 0 8 3 5 6 -10 10 -38 -17 -30 -29 3 -6 1 -7 -5 -3 -7 4
-12 2 -12 -3 0 -6 -8 -11 -17 -11 -13 0 -14 3 -5 12 7 7 12 17 12 22 0 6 -8
-1 -18 -16 -40 -61 -128 -118 -169 -110 -6 1 -14 -2 -18 -8 -4 -6 1 -7 11 -3
23 9 10 -13 -16 -27 -16 -9 -18 -8 -13 6 4 12 3 15 -5 10 -18 -11 -15 78 2
113 26 49 97 102 204 154 94 45 116 51 199 58 107 9 165 32 265 102 35 24 131
86 213 138 83 52 175 111 205 131 63 43 78 48 35 13z m-1171 -384 c8 -12 -14
-29 -124 -96 -177 -108 -253 -159 -241 -163 6 -2 23 6 38 17 20 17 28 19 35 9
13 -22 9 -28 -19 -28 -20 0 -24 -3 -14 -9 10 -7 10 -10 1 -16 -7 -4 -16 -2
-20 5 -4 7 -15 10 -25 7 -9 -4 -14 -3 -10 3 11 18 -7 10 -61 -26 -56 -36 -71
-53 -31 -34 21 11 21 11 2 -5 -11 -8 -25 -13 -32 -11 -7 3 -13 -1 -13 -8 0 -7
-10 -21 -21 -32 l-22 -19 13 25 c13 25 13 25 -7 7 -17 -15 -20 -27 -16 -80 6
-80 -6 -128 -35 -138 -22 -8 -22 -7 -22 81 0 49 -4 92 -10 95 -16 10 -58 -24
-65 -53 -4 -15 -9 -22 -12 -16 -10 29 21 66 99 118 144 95 593 376 600 376 4
0 9 -4 12 -9z m1902 -64 c-10 -7 -37 -26 -60 -43 -22 -16 -70 -48 -106 -71
-36 -22 -105 -67 -153 -99 -49 -32 -96 -64 -105 -69 -65 -40 -101 -69 -95 -78
3 -5 1 -7 -4 -4 -6 4 -27 -4 -47 -18 -20 -14 -39 -25 -43 -25 -4 0 -102 -69
-138 -98 -5 -4 -44 -31 -85 -60 -156 -108 -235 -164 -245 -177 -5 -7 -62 -46
-125 -87 -177 -113 -352 -233 -382 -263 -33 -30 -37 -17 -12 44 17 42 76 94
173 151 29 17 79 48 110 69 31 21 92 57 136 81 44 24 206 127 360 228 154 102
343 226 420 277 77 50 181 118 230 151 50 32 108 69 130 81 42 23 74 31 41 10z
m-1966 -231 c0 -13 -7 -29 -15 -36 -13 -11 -15 -7 -15 22 0 19 3 38 6 41 12
11 24 -3 24 -27z m-70 -63 c0 -13 -4 -23 -10 -23 -5 0 -10 17 -10 38 0 27 3
33 10 22 5 -8 10 -25 10 -37z m2010 8 c0 -26 -14 -38 -152 -129 -276 -181
-576 -386 -612 -419 l-36 -31 0 58 c0 78 18 99 189 211 75 49 145 96 156 104
10 8 23 15 28 15 4 0 6 4 3 8 -3 5 0 9 7 9 7 0 21 4 32 8 16 7 15 4 -5 -14
l-25 -22 25 12 c40 19 70 46 62 54 -4 5 -1 5 6 1 7 -4 29 3 50 15 99 59 131
83 125 92 -3 6 -1 7 5 3 6 -4 33 7 59 24 62 39 83 39 83 1z m-2082 -49 c-3
-14 -6 -14 -16 6 -7 12 -10 27 -6 33 9 15 27 -16 22 -39z m-70 -21 c8 -23 7
-32 -4 -42 -11 -9 -15 -8 -19 5 -3 9 -7 23 -10 32 -6 17 2 34 15 34 4 0 13
-13 18 -29z m-65 -47 c3 -18 -2 -33 -17 -48 l-21 -21 -3 33 c-2 19 -1 40 2 48
9 23 33 16 39 -12z m-83 -54 c0 -29 -4 -40 -15 -40 -10 0 -15 10 -15 33 0 19
3 37 7 40 15 16 23 5 23 -33z m-70 -40 c0 -29 -4 -40 -15 -40 -16 0 -20 35 -9
64 11 29 24 16 24 -24z m3064 -67 c-38 -27 -82 -54 -99 -61 l-30 -12 35 30
c42 37 129 89 149 90 8 0 -17 -21 -55 -47z m-3154 -3 c0 -11 -7 -20 -15 -20
-8 0 -15 9 -15 20 0 11 7 20 15 20 8 0 15 -9 15 -20z m2926 -91 c-9 -29 -16
-67 -16 -84 0 -29 -11 -38 -191 -155 -105 -69 -261 -171 -346 -228 l-156 -102
5 64 c8 95 31 133 113 187 403 266 593 384 603 375 2 -2 -4 -28 -12 -57z
m-3436 7 c0 -2 -17 -15 -37 -27 -21 -13 -40 -25 -43 -28 -9 -10 -150 -101
-156 -101 -3 0 -36 -20 -73 -43 -96 -63 -142 -90 -146 -85 -2 2 55 39 126 83
71 44 174 108 227 142 100 65 102 66 102 59z m1604 -53 c5 -11 -5 -27 -29 -50
-19 -18 -35 -30 -35 -26 0 3 -10 -3 -22 -14 -13 -11 -41 -32 -63 -47 -22 -14
-36 -26 -32 -26 5 0 5 -5 2 -10 -5 -8 -11 -7 -21 1 -8 7 -14 7 -14 1 0 -5 -7
-13 -16 -16 -8 -3 -12 -2 -9 4 9 14 -19 12 -33 -2 -7 -7 -12 -8 -12 -4 0 5 -7
3 -15 -4 -18 -15 -20 0 -2 23 17 24 259 185 278 186 9 1 20 -6 23 -16z m1325
-32 c7 -5 11 -13 9 -17 -3 -5 3 -18 14 -29 19 -20 19 -20 13 0 -5 16 -5 17 3
6 18 -26 -4 -48 -126 -127 -64 -42 -130 -88 -147 -103 -16 -15 -55 -43 -85
-62 -70 -43 -281 -189 -298 -206 -8 -8 -27 -20 -43 -28 l-29 -16 0 56 c0 61
22 116 62 151 12 12 70 51 128 87 58 35 188 117 289 181 102 64 187 116 190
116 3 0 12 -4 20 -9z m-829 -213 c0 -6 -193 -139 -216 -149 -19 -8 -191 -123
-229 -154 -59 -47 -75 -51 -75 -16 0 87 26 109 460 386 l35 22 12 -41 c7 -23
13 -44 13 -48z m-1830 27 c-85 -51 -119 -61 -44 -13 27 17 58 37 69 44 11 7
27 13 35 13 8 1 -19 -19 -60 -44z m-100 -53 c0 -5 -11 -14 -25 -20 -39 -18
-44 -14 -10 7 36 23 35 23 35 13z m-740 -6 c0 -2 -8 -10 -17 -17 -16 -13 -17
-12 -4 4 13 16 21 21 21 13z m664 -34 c-6 -4 -51 -34 -100 -66 -49 -33 -135
-90 -192 -128 -56 -37 -104 -68 -107 -68 -2 0 -39 -22 -82 -50 -43 -27 -84
-50 -90 -50 -7 0 -13 -4 -13 -9 0 -9 -61 -41 -79 -41 -22 0 -10 20 15 26 14 4
71 35 127 70 56 34 129 79 162 99 33 20 125 78 205 130 80 52 150 94 155 94 6
1 6 -2 -1 -7z m1416 -383 c7 -13 21 -33 31 -45 25 -26 35 -18 -216 -180 -110
-71 -208 -137 -218 -147 -26 -26 -37 -13 -37 43 0 100 47 159 222 276 73 49
146 96 163 106 29 16 30 16 36 -6 3 -12 12 -33 19 -47z m-926 -1130 c47 -22
86 -45 86 -50 0 -14 -4 -12 -106 32 -51 23 -91 46 -88 50 8 14 18 11 108 -32z
m-65 -36 c34 -21 61 -40 60 -43 0 -3 -37 -31 -82 -62 -93 -65 -159 -126 -151
-139 3 -5 -5 -5 -18 0 -21 8 -23 15 -26 100 l-3 91 68 44 c37 25 73 45 80 46
6 0 39 -17 72 -37z m-283 -255 c24 -17 44 -35 44 -40 0 -16 -55 -8 -89 13 -26
16 -32 17 -28 5 3 -8 1 -18 -5 -22 -7 -4 -8 -3 -4 4 4 7 5 12 2 12 -11 0 -87
-58 -87 -67 -1 -4 -3 -10 -6 -13 -4 -3 -3 1 1 8 11 18 -2 15 -36 -9 -17 -12
-27 -27 -24 -35 3 -8 0 -13 -7 -11 -8 1 -14 -17 -17 -53 l-6 -55 -5 55 c-8 90
-3 98 106 173 54 37 103 67 108 67 5 0 29 -14 53 -32z m-11 -141 c11 -42 -12
-75 -82 -121 -38 -24 -71 -42 -75 -39 -12 7 -9 101 3 108 6 4 8 14 5 22 -3 8
-1 11 4 8 5 -3 31 5 57 19 60 32 81 32 88 3z m195 -172 c-7 -8 -17 -15 -22
-15 -6 0 -5 7 2 15 7 8 17 15 22 15 6 0 5 -7 -2 -15z m-159 -105 c-13 -11 -28
-20 -34 -20 -13 0 -4 9 25 26 33 18 36 16 9 -6z"/>
<path d="M6591 6703 c-34 -7 -494 -297 -567 -358 -63 -52 -87 -109 -82 -199 3
-61 8 -80 32 -114 15 -23 43 -50 60 -60 17 -10 142 -55 277 -100 275 -92 325
-99 402 -61 55 28 84 55 110 104 21 38 22 52 22 340 l0 300 -25 45 c-44 79
-140 122 -229 103z m115 -147 l34 -34 0 -256 c0 -286 -4 -311 -62 -346 -18
-11 -49 -20 -69 -20 -20 0 -140 34 -266 75 -212 69 -234 78 -263 112 -29 33
-32 41 -28 89 5 61 19 80 92 126 28 18 123 79 211 137 217 141 234 151 279
151 30 0 45 -7 72 -34z"/>
<path d="M4180 5180 c-9 -6 -10 -10 -3 -10 6 0 15 5 18 10 8 12 4 12 -15 0z"/>
<path d="M4055 5100 c-3 -5 -1 -10 4 -10 6 0 11 5 11 10 0 6 -2 10 -4 10 -3 0
-8 -4 -11 -10z"/>
<path d="M3940 5020 c-9 -6 -10 -10 -3 -10 6 0 15 5 18 10 8 12 4 12 -15 0z"/>
<path d="M8814 7347 c-33 -13 -421 -244 -463 -276 -18 -14 -25 -29 -25 -55 0
-47 27 -74 111 -110 119 -51 119 -45 -7 -122 -61 -38 -134 -83 -162 -100 -62
-38 -78 -58 -78 -98 0 -43 7 -51 85 -93 38 -21 67 -42 65 -48 -3 -5 -43 -37
-90 -71 -66 -47 -85 -67 -85 -85 0 -14 7 -25 17 -27 14 -3 91 44 190 117 11 8
44 18 75 22 53 7 126 45 120 63 -1 4 -39 23 -82 40 -44 18 -93 40 -110 48 -16
9 -41 19 -55 23 -25 8 -25 8 -6 -14 11 -11 16 -21 12 -21 -14 0 -86 41 -86 48
0 22 70 68 337 225 101 58 138 67 131 30 -2 -9 -54 -49 -116 -88 -61 -38 -112
-73 -112 -77 0 -10 48 -34 85 -42 21 -5 26 -4 15 3 -8 6 -12 12 -10 14 6 6
201 131 258 166 215 131 219 145 52 231 -56 28 -100 56 -97 63 2 6 37 31 77
57 86 53 110 85 92 124 -20 44 -90 71 -138 53z m46 -62 c-2 -5 -18 -15 -35
-21 -51 -17 -224 -125 -221 -137 1 -7 1 -9 -1 -5 -3 4 -23 -2 -46 -14 l-42
-21 30 -13 c21 -9 25 -13 11 -14 -11 0 -16 -3 -13 -6 4 -4 -23 -21 -59 -37
-50 -24 -70 -28 -82 -20 -42 26 -31 35 243 196 159 94 230 124 215 92z m-270
-189 c0 -2 -7 -6 -15 -10 -8 -3 -15 -1 -15 4 0 6 7 10 15 10 8 0 15 -2 15 -4z
m129 -72 c86 -32 100 -47 41 -41 -60 6 -167 37 -179 51 -19 22 69 16 138 -10z"/>
<path d="M5845 7301 c-43 -22 -81 -73 -69 -93 4 -7 3 -8 -4 -4 -18 11 -15 -47
4 -86 25 -52 60 -73 124 -73 39 0 62 6 81 19 63 49 82 110 54 170 -36 75 -118
103 -190 67z m124 -47 c24 -20 31 -34 31 -62 0 -58 -10 -82 -41 -97 -63 -33
-131 -10 -147 50 -28 100 79 175 157 109z"/>
<path d="M960 7261 c0 -5 -3 -17 -6 -25 -5 -12 -2 -15 10 -10 18 7 21 29 6 39
-5 3 -10 2 -10 -4z"/>
<path d="M4245 6825 c-35 -34 -34 -86 1 -114 15 -12 34 -21 44 -21 10 0 29 9
44 21 35 27 36 86 3 117 -30 29 -62 28 -92 -3z m63 -24 c8 -4 12 -19 10 -32
-2 -18 -9 -24 -28 -24 -28 0 -39 27 -20 50 14 17 20 18 38 6z"/>
<path d="M4030 6808 c-4 -102 3 -375 9 -381 12 -12 43 4 189 98 74 47 138 85
143 85 5 0 9 -68 9 -158 l0 -158 -57 -28 c-80 -39 -283 -165 -283 -177 0 -19
29 -7 137 59 62 38 139 79 172 93 l60 23 3 66 3 65 130 77 c200 119 305 187
305 198 0 19 -21 10 -113 -48 -51 -32 -117 -73 -147 -91 -30 -18 -80 -47 -110
-66 -30 -19 -58 -34 -62 -35 -5 0 -8 54 -8 120 l0 121 -47 -28 c-27 -15 -103
-62 -171 -105 -67 -43 -125 -78 -127 -78 -3 0 -5 68 -5 151 0 142 1 151 20
156 23 6 26 23 8 41 -16 16 -58 15 -58 0z"/>
<path d="M753 6723 c26 -26 40 -34 47 -27 8 8 -1 19 -28 37 -54 38 -63 33 -19
-10z"/>
<path d="M935 6744 c-16 -9 -41 -20 -55 -24 l-25 -8 28 -1 c25 -1 107 33 107
44 0 10 -26 4 -55 -11z"/>
<path d="M780 6669 c0 -5 5 -7 10 -4 6 3 10 8 10 11 0 2 -4 4 -10 4 -5 0 -10
-5 -10 -11z"/>
<path d="M8825 6600 c-145 -8 -135 -6 -135 -20 0 -11 212 -13 274 -2 47 8 62
33 19 30 -15 -1 -86 -5 -158 -8z"/>
<path d="M990 6317 c0 -20 -35 -57 -54 -57 -9 0 -16 -4 -16 -10 0 -5 4 -10 10
-10 5 0 21 -18 35 -40 32 -50 58 -52 86 -6 11 19 26 37 34 40 21 8 18 24 -5
31 -11 3 -27 19 -37 36 -18 29 -53 40 -53 16z m50 -52 c10 -12 10 -21 0 -45
-17 -40 -40 -59 -40 -32 0 11 -7 25 -15 32 -20 16 -19 30 3 46 23 18 37 17 52
-1z"/>
<path d="M3738 6078 c-9 -13 -41 -39 -72 -58 -60 -38 -69 -49 -55 -71 19 -31
175 88 167 128 -5 26 -24 26 -40 1z"/>
<path d="M8095 6081 c-49 -22 -73 -48 -91 -98 -16 -47 -20 -746 -4 -804 6 -19
21 -46 34 -58 44 -41 99 -47 401 -40 154 4 295 9 313 11 31 5 32 4 15 -15 -17
-19 -17 -20 3 -9 12 6 30 24 40 39 18 26 19 55 22 423 2 263 0 407 -8 432 -13
45 -88 114 -139 128 -20 5 -150 10 -291 10 -226 0 -260 -3 -295 -19z m595 -51
c19 -19 19 -31 14 -362 -4 -189 -9 -346 -13 -350 -3 -4 -148 -9 -322 -13
l-317 -6 -3 38 c-2 21 -2 177 1 346 l5 309 33 29 32 29 275 0 c260 0 276 -1
295 -20z"/>
<path d="M8188 5982 c8 -5 12 -23 10 -43 -2 -26 -8 -34 -23 -34 -16 0 -20 7
-20 37 0 28 -3 34 -12 26 -19 -16 -16 -72 5 -91 25 -23 85 -22 105 1 20 22 22
75 5 90 -7 5 -29 13 -48 16 -22 5 -30 4 -22 -2z"/>
<path d="M8230 5725 l0 -35 149 0 c136 0 149 2 154 19 2 10 0 26 -5 35 -8 14
-30 16 -153 16 l-145 0 0 -35z"/>
<path d="M8458 5643 c7 -3 16 -2 19 1 4 3 -2 6 -13 5 -11 0 -14 -3 -6 -6z"/>
<path d="M8253 5583 c-13 -3 -23 -11 -23 -19 0 -11 27 -14 150 -14 144 0 150
1 150 20 0 20 -6 20 -127 18 -71 -1 -138 -3 -150 -5z"/>
<path d="M8510 5512 c0 -9 -35 -11 -140 -6 l-140 5 0 -25 c0 -26 1 -26 78 -28
227 -4 217 -5 220 21 2 13 -1 28 -7 34 -8 8 -11 8 -11 -1z"/>
<path d="M3443 5876 c-114 -75 -170 -124 -150 -131 32 -13 271 134 265 163 -6
30 -31 23 -115 -32z"/>
<path d="M1638 5767 c-37 -22 -65 -44 -62 -49 4 -5 0 -8 -7 -7 -15 3 -81 -30
-118 -59 -19 -15 -25 -32 -29 -74 -2 -31 0 -58 6 -61 5 -4 62 25 126 63 65 38
135 74 156 80 21 6 40 16 43 24 6 15 60 19 111 10 22 -5 25 -8 15 -16 -10 -7
-6 -8 13 -4 17 4 32 1 40 -7 7 -8 20 -12 30 -9 13 3 17 0 13 -11 -4 -8 1 -17
10 -21 11 -4 14 -2 9 7 -4 6 2 4 13 -5 11 -10 26 -18 34 -18 11 0 12 -2 1 -9
-13 -8 -4 -13 38 -25 3 0 19 -10 35 -22 17 -11 49 -31 72 -44 l41 -23 28 22
c14 11 32 21 39 21 7 0 18 6 24 14 9 11 -3 21 -61 51 -40 21 -133 71 -205 111
-143 78 -183 91 -280 90 -35 -1 -64 2 -65 5 -2 3 -33 -12 -70 -34z"/>
<path d="M8976 5784 c-36 -35 -5 -114 44 -114 26 0 70 43 70 67 0 10 -7 29
-16 41 -18 26 -74 30 -98 6z m54 -44 c0 -11 -4 -20 -10 -20 -5 0 -10 9 -10 20
0 11 5 20 10 20 6 0 10 -9 10 -20z"/>
<path d="M1640 5349 c-91 -56 -178 -111 -195 -123 -16 -12 -97 -62 -178 -111
-177 -105 -197 -128 -197 -221 0 -121 67 -213 167 -229 68 -11 62 -30 -23 -83
-42 -26 -128 -81 -193 -123 -64 -41 -172 -111 -241 -154 -151 -95 -230 -152
-230 -166 0 -17 28 -21 53 -7 13 7 43 23 66 36 23 12 47 20 53 16 6 -4 8 -3 4
4 -4 7 5 10 26 10 30 -1 31 -2 10 -11 -22 -10 -21 -12 25 -40 26 -16 40 -26
30 -23 -12 4 -17 0 -17 -14 0 -20 11 -14 310 173 58 36 139 86 180 112 41 25
140 87 220 137 267 168 353 218 379 220 52 3 87 -4 116 -23 33 -20 30 -24 -8
-10 -47 18 -95 21 -129 7 -18 -8 -109 -63 -203 -122 -93 -59 -199 -125 -235
-146 -36 -22 -83 -52 -105 -67 -22 -16 -47 -31 -55 -34 -10 -4 -11 -6 -2 -6 7
-1 11 -5 7 -11 -3 -5 -12 -7 -19 -4 -8 3 -17 1 -20 -5 -4 -6 8 -8 31 -6 21 2
32 1 26 -1 -15 -7 -18 -84 -3 -84 6 0 10 -4 10 -10 0 -5 -5 -9 -11 -7 -17 3
-19 -30 -3 -44 8 -6 14 -8 14 -3 0 12 20 -19 20 -31 0 -5 -5 -3 -10 5 -8 12
-10 9 -10 -12 0 -16 -9 -34 -23 -45 -13 -10 -25 -22 -28 -28 -2 -5 -8 -10 -14
-11 -5 0 -16 -2 -22 -2 -7 -1 -13 -7 -13 -13 0 -8 5 -8 15 1 11 9 15 9 15 1 0
-16 -30 -26 -39 -13 -4 7 -12 6 -24 -3 -10 -7 -14 -16 -8 -19 5 -3 12 0 15 6
5 11 7 11 12 0 3 -6 9 -10 13 -8 4 3 7 -8 6 -24 -2 -36 -13 -45 -325 -254
-202 -136 -294 -201 -241 -171 10 6 11 2 6 -16 -7 -21 -6 -22 9 -10 9 8 19 11
23 7 3 -3 1 -6 -5 -6 -18 0 -14 -18 11 -55 19 -27 26 -32 36 -22 10 9 12 9 9
-3 -2 -8 -10 -18 -18 -22 -13 -6 -13 -7 0 -7 20 -1 36 9 780 472 571 355 566
351 606 427 16 30 19 58 19 202 0 188 -3 197 -82 250 -34 23 -52 28 -114 30
-77 2 -145 -12 -186 -39 -13 -9 -26 -13 -30 -9 -3 3 -1 6 5 6 7 0 12 9 12 20
0 11 6 20 13 20 7 0 23 9 36 21 12 12 25 18 28 15 3 -3 14 5 23 17 10 12 35
31 56 41 54 28 154 99 186 132 49 52 58 91 58 239 0 131 -1 137 -25 160 -23
24 -29 25 -157 25 l-133 -1 -165 -100z m423 41 c-10 -9 -273 -33 -281 -26 -2
3 1 12 8 20 9 11 38 16 113 18 116 3 172 -1 160 -12z m-239 -49 c21 -8 32 0
-237 -174 -70 -45 -184 -119 -254 -164 -70 -46 -135 -83 -144 -83 -9 0 -22 7
-29 15 -11 13 -15 13 -21 3 -7 -10 -9 -9 -9 4 0 34 56 81 238 195 338 212 340
213 391 212 25 0 55 -4 65 -8z m133 -17 c-3 -3 -12 -4 -19 -1 -8 3 -5 6 6 6
11 1 17 -2 13 -5z m-149 -133 c8 -23 7 -32 -4 -42 -8 -6 -16 -10 -18 -8 -4 4
-9 57 -7 72 2 18 20 5 29 -22z m-71 -8 c-4 -3 -1 -16 7 -29 14 -21 12 -34 -6
-34 -5 0 -13 12 -19 27 -7 20 -6 28 3 35 16 9 24 10 15 1z m-37 -85 c0 -10 -4
-18 -10 -18 -12 0 -30 33 -30 56 0 16 1 16 20 -1 11 -10 20 -26 20 -37z m-30
-29 c0 -5 -6 -9 -12 -9 -15 0 -39 46 -29 55 6 7 41 -32 41 -46z m-60 0 c11
-26 11 -32 -1 -40 -22 -14 -26 -11 -32 24 -8 55 13 66 33 16z m-50 -10 c0 -5
-5 -7 -11 -3 -9 5 -10 -3 -5 -30 8 -43 -8 -49 -26 -10 -11 22 -10 28 7 40 23
17 35 18 35 3z m7 -41 c-3 -8 -6 -5 -6 6 -1 11 2 17 5 13 3 -3 4 -12 1 -19z
m123 -278 c0 -5 -4 -10 -10 -10 -5 0 -10 5 -10 10 0 6 5 10 10 10 6 0 10 -4
10 -10z m10 -314 c0 -8 -6 -17 -12 -19 -8 -3 -6 -6 5 -6 22 -1 23 -37 1 -45
-9 -4 -18 -5 -18 -4 -1 2 -10 16 -20 31 -14 22 -15 31 -5 43 15 18 49 18 49 0z
m-90 -39 c0 -8 9 -22 20 -32 20 -18 20 -18 -13 -41 -29 -20 -33 -21 -44 -6
-18 22 -16 52 4 74 19 21 33 23 33 5z m-290 -32 c-7 -8 -17 -15 -22 -15 -6 0
-5 7 2 15 7 8 17 15 22 15 6 0 5 -7 -2 -15z m225 -42 c5 -29 3 -40 -11 -50
-24 -17 -41 -16 -48 3 -16 43 1 84 35 84 11 0 19 -12 24 -37z m-102 -60 c3
-16 3 -30 1 -33 -7 -7 -24 23 -24 43 0 27 17 20 23 -10z m-80 -15 c-4 -7 -6
-26 -4 -43 2 -29 2 -29 -13 -10 -20 26 -20 35 2 51 22 17 25 17 15 2z m-568
-8 c-3 -5 -12 -10 -18 -10 -7 0 -6 4 3 10 19 12 23 12 15 0z"/>
<path d="M1590 4350 c0 -5 5 -10 10 -10 6 0 10 5 10 10 0 6 -4 10 -10 10 -5 0
-10 -4 -10 -10z"/>
<path d="M1505 4300 c-3 -5 1 -10 10 -10 9 0 13 5 10 10 -3 6 -8 10 -10 10 -2
0 -7 -4 -10 -10z"/>
<path d="M3110 5274 c-41 -26 -163 -99 -270 -164 -175 -105 -432 -264 -595
-367 -59 -38 -80 -68 -53 -78 8 -3 37 8 64 25 137 87 323 201 444 273 74 44
190 116 258 159 67 42 152 94 188 114 51 29 64 41 62 57 -2 11 -8 22 -13 24
-6 2 -44 -18 -85 -43z"/>
<path d="M3050 5064 c-63 -41 -140 -90 -170 -108 -87 -53 -487 -303 -575 -361
-101 -66 -111 -77 -89 -99 15 -15 19 -14 62 17 26 18 144 94 262 167 118 73
301 188 405 255 105 67 207 132 228 144 41 25 47 54 12 58 -11 2 -71 -30 -135
-73z"/>
<path d="M818 5103 c-24 -28 -28 -40 -22 -56 4 -12 12 -13 36 -7 41 12 58 28
58 56 0 20 -5 24 -28 24 -16 0 -36 -8 -44 -17z"/>
<path d="M8900 5010 c0 -23 -4 -30 -20 -30 -21 0 -27 -24 -9 -35 17 -11 28
-49 17 -62 -8 -10 -6 -13 6 -13 9 0 16 5 16 10 0 13 57 13 65 0 4 -6 11 -7 17
-4 7 4 5 10 -6 16 -17 10 -14 16 28 58 17 18 18 20 3 26 -10 3 -17 17 -17 29
0 30 -16 41 -36 24 -11 -9 -21 -9 -39 -1 -24 11 -25 10 -25 -18z m81 -64 c-18
-48 -71 -47 -71 1 0 32 9 48 30 55 22 8 50 -31 41 -56z"/>
<path d="M7200 4924 c-42 -18 -86 -59 -106 -96 -12 -22 -14 -132 -14 -640 l0
-613 24 -50 c13 -27 37 -62 53 -77 26 -25 33 -27 63 -18 19 5 36 6 39 2 7 -9
29 -11 119 -12 40 0 62 -4 62 -11 0 -9 -30 -10 -107 -7 -77 4 -101 3 -83 -4
15 -6 71 -7 140 -4 63 4 120 6 125 5 40 -6 804 -6 800 1 -2 4 -18 6 -35 5 -40
-3 -39 11 1 20 22 5 34 3 40 -6 6 -10 9 -11 9 -1 0 6 5 12 11 12 5 0 8 -4 5
-8 -2 -4 10 -7 27 -6 34 1 105 35 119 56 6 10 8 10 8 1 0 -24 16 -13 36 25 18
35 19 66 22 579 l3 542 62 4 62 3 -62 2 -63 2 0 33 c0 18 -7 56 -15 84 -18 59
-79 121 -161 163 l-49 25 -550 2 c-476 2 -555 0 -585 -13z m1138 -50 c31 -22
27 -35 -7 -21 -21 9 -136 11 -459 7 -415 -5 -432 -6 -446 -25 -14 -20 -15 -20
-38 1 -13 12 -36 25 -53 28 -38 8 -128 -8 -133 -24 -3 -9 -7 -9 -13 1 -6 11
-9 9 -9 -7 0 -27 -25 -51 -33 -31 -8 22 35 68 73 77 19 4 274 8 565 9 465 1
533 -1 553 -15z m-38 -80 c13 -32 -2 -62 -35 -70 -33 -8 -43 1 -51 42 -8 41 4
54 49 54 20 0 30 -7 37 -26z m-158 4 c15 -41 -28 -92 -59 -72 -22 14 -29 64
-11 75 20 13 65 11 70 -3z m-842 -7 c0 -5 -7 -14 -15 -21 -12 -10 -15 -10 -15
2 0 8 3 18 7 21 9 10 23 9 23 -2z m-163 -88 c-3 -10 -5 -4 -5 12 0 17 2 24 5
18 2 -7 2 -21 0 -30z m1373 -575 c0 -488 -3 -536 -38 -575 -37 -43 -35 -43
-666 -43 l-606 0 -32 29 -33 29 -3 521 -3 521 691 0 690 0 0 -482z m-620 -708
c-10 -6 2 -10 40 -13 30 -2 6 -4 -55 -4 -60 0 -123 3 -140 7 -18 5 -4 6 38 3
46 -4 67 -2 67 6 0 6 15 11 33 11 23 0 28 -3 17 -10z m114 1 c4 -5 -3 -7 -14
-4 -23 6 -26 13 -6 13 8 0 17 -4 20 -9z m-371 -18 c-7 -2 -19 -2 -25 0 -7 3
-2 5 12 5 14 0 19 -2 13 -5z"/>
<path d="M7807 4233 c-2 -5 -2 -26 1 -47 l5 -39 120 7 c66 3 151 6 188 6 65 0
69 1 75 25 13 51 -2 55 -202 55 -100 0 -185 -3 -187 -7z"/>
<path d="M7652 4114 c-12 -8 -22 -26 -22 -38 0 -21 6 -24 53 -30 79 -9 166 -7
188 4 11 6 19 21 19 35 0 35 -27 45 -127 45 -64 0 -95 -4 -111 -16z m228 -34
c0 -5 -5 -10 -11 -10 -5 0 -7 5 -4 10 3 6 8 10 11 10 2 0 4 -4 4 -10z"/>
<path d="M7327 4042 c-26 -28 -22 -60 8 -68 29 -7 94 3 113 18 7 6 46 11 87
11 47 0 75 4 75 11 0 7 -36 12 -98 14 -63 2 -105 8 -119 18 -29 18 -34 18 -26
-3 5 -16 4 -16 -9 0 -13 18 -14 18 -31 -1z m113 -42 c0 -5 -7 -10 -15 -10 -8
0 -15 5 -15 10 0 6 7 10 15 10 8 0 15 -4 15 -10z"/>
<path d="M7717 4010 c-13 -15 -14 -20 -3 -20 7 0 16 -10 19 -21 6 -21 10 -22
94 -17 110 6 133 -1 133 -42 0 -17 -4 -40 -10 -50 -12 -23 -3 -50 17 -50 7 0
25 12 40 26 25 25 27 47 8 96 -6 15 3 17 76 20 65 2 84 7 93 21 8 12 8 22 0
35 -10 15 -34 17 -230 20 -209 2 -220 1 -237 -18z"/>
<path d="M7840 3660 c0 -6 5 -20 11 -31 10 -20 18 -20 237 -14 125 3 235 5
245 5 13 0 18 6 15 23 l-3 22 -252 3 c-177 2 -253 -1 -253 -8z"/>
<path d="M2245 4920 c-40 -16 -47 -35 -24 -64 23 -29 69 -35 89 -11 10 12 10
15 -2 15 -8 0 -19 -5 -26 -12 -9 -9 -12 -9 -12 0 0 6 11 14 25 18 18 4 25 13
25 29 0 32 -32 43 -75 25z"/>
<path d="M8715 4880 c-26 -10 -50 -38 -41 -47 8 -8 79 31 84 46 4 13 -14 13
-43 1z"/>
<path d="M8788 4668 c-2 -27 -8 -34 -28 -36 -14 -2 -29 -8 -34 -12 -14 -14 13
-40 42 -40 23 0 24 -2 18 -42 -4 -24 -11 -47 -16 -52 -5 -5 -50 -11 -100 -14
-150 -8 -88 -22 104 -24 175 -1 178 -1 186 -23 12 -32 31 -41 27 -14 -1 18 5
25 31 32 36 11 44 28 10 20 -17 -3 -19 -2 -10 5 11 7 9 10 -7 15 -12 3 -21 12
-21 21 0 22 -15 20 -31 -3 -9 -12 -32 -21 -61 -25 -42 -5 -51 -3 -74 21 -18
17 -24 32 -20 47 3 11 6 24 6 27 0 17 68 37 108 32 25 -3 42 -2 42 4 0 13 -48
23 -106 23 -44 0 -44 0 -44 35 0 44 -18 46 -22 3z m17 -188 c3 -5 -1 -10 -9
-10 -9 0 -16 5 -16 10 0 6 4 10 9 10 6 0 13 -4 16 -10z"/>
<path d="M2845 4680 c-3 -6 1 -7 9 -4 18 7 21 14 7 14 -6 0 -13 -4 -16 -10z"/>
<path d="M2740 4617 c-14 -8 -32 -11 -40 -9 -8 3 -12 1 -8 -3 4 -5 3 -14 -3
-22 -6 -7 -8 -13 -3 -13 9 0 84 50 84 56 0 6 -3 5 -30 -9z"/>
<path d="M8794 4416 c-6 -7 -9 -26 -6 -44 4 -30 2 -32 -27 -32 -21 0 -31 -5
-31 -15 0 -10 8 -13 28 -11 15 2 21 1 15 -1 -18 -6 -16 -20 2 -27 10 -4 15
-20 15 -51 l0 -45 -64 0 c-74 0 -126 -9 -126 -21 0 -11 177 -12 308 -3 50 4
89 11 86 15 -3 5 -48 9 -100 9 l-94 0 4 33 c3 17 5 42 5 55 1 14 7 22 19 23
15 0 14 1 -2 8 -19 7 -18 8 5 15 23 7 23 8 4 15 -14 6 -22 20 -25 48 -4 31 -8
38 -16 29z"/>
<path d="M3726 4392 c-2 -4 -1 -14 4 -21 6 -11 10 -9 19 8 10 17 9 21 -3 21
-8 0 -17 -4 -20 -8z"/>
<path d="M3610 4318 c-138 -89 -170 -110 -170 -114 0 -3 9 0 19 6 13 7 20 7
23 -1 2 -6 46 19 99 54 52 35 101 67 109 70 11 4 10 6 -3 6 -10 1 -15 6 -12
11 10 15 4 13 -65 -32z"/>
<path d="M8870 4320 c20 -13 33 -13 25 0 -3 6 -14 10 -23 10 -15 0 -15 -2 -2
-10z"/>
<path d="M6812 4254 c-16 -11 -22 -25 -22 -53 0 -63 56 -92 108 -55 16 11 22
25 22 53 0 63 -56 92 -108 55z m58 -49 c0 -15 -6 -25 -14 -25 -16 0 -25 19
-18 38 8 22 32 13 32 -13z"/>
<path d="M3377 4176 c-50 -31 -50 -31 -30 -47 9 -8 14 -9 11 -4 -9 15 1 27 42
53 19 12 31 22 25 22 -5 -1 -27 -11 -48 -24z"/>
<path d="M2510 4180 c-9 -6 -10 -10 -3 -10 6 0 15 5 18 10 8 12 4 12 -15 0z"/>
<path d="M6640 4137 c-30 -18 -112 -66 -182 -106 -135 -77 -158 -95 -140 -113
7 -7 20 -3 44 15 18 13 106 68 196 122 89 53 162 101 162 106 0 17 -24 9 -80
-24z"/>
<path d="M2460 4150 c-8 -5 -12 -12 -9 -15 4 -3 12 1 19 10 14 17 11 19 -10 5z"/>
<path d="M2389 4103 c-13 -16 -12 -17 4 -4 16 13 21 21 13 21 -2 0 -10 -8 -17
-17z"/>
<path d="M3285 4090 c-3 -5 -1 -10 4 -10 6 0 11 5 11 10 0 6 -2 10 -4 10 -3 0
-8 -4 -11 -10z"/>
<path d="M3737 4033 c-3 -5 1 -14 9 -20 14 -14 30 0 19 17 -7 12 -22 13 -28 3z"/>
<path d="M3706 4012 c-3 -6 -1 -12 5 -14 6 -2 -13 -17 -42 -33 -35 -18 -49
-23 -40 -12 7 9 9 17 3 17 -12 0 -30 -21 -30 -35 0 -5 -6 -11 -14 -13 -9 -2
-8 0 2 7 8 6 10 11 5 11 -17 0 -56 -31 -50 -40 3 -4 -3 -7 -13 -6 -9 0 -16 -4
-15 -11 2 -7 -3 -10 -10 -8 -16 6 -89 -36 -95 -54 -3 -10 1 -12 14 -7 14 4 12
1 -6 -13 -18 -14 -29 -17 -42 -10 -26 14 -51 -11 -31 -29 8 -8 13 -9 13 -2 0
6 5 8 12 4 6 -4 8 -3 4 4 -4 6 1 10 12 9 9 0 63 29 119 66 56 37 104 67 108
67 4 0 27 15 53 33 25 17 50 35 55 38 6 4 5 14 0 24 -6 11 -13 14 -17 7z"/>
<path d="M8977 3996 c-6 -14 -31 -16 -191 -16 -174 0 -236 -10 -170 -26 36 -9
367 5 378 16 4 4 4 16 -1 25 -9 16 -11 16 -16 1z"/>
<path d="M3660 3985 c-7 -8 -9 -15 -6 -15 4 0 14 7 22 15 9 8 11 15 6 15 -5 0
-15 -7 -22 -15z"/>
<path d="M6700 3979 c-48 -29 -71 -50 -64 -60 3 -5 19 -2 35 7 17 8 33 13 36
10 4 -3 12 2 19 12 7 9 14 13 14 9 0 -5 -24 -33 -52 -64 -52 -55 -53 -55 -13
-29 22 15 43 33 47 39 5 8 8 8 8 1 0 -6 -9 -19 -20 -29 -36 -33 -26 -49 26
-41 25 3 50 8 55 12 5 3 9 39 9 80 l0 74 -32 0 c-18 0 -49 -10 -68 -21z m86
-91 c-1 -12 -10 -22 -19 -24 -20 -3 -20 -2 -6 30 14 29 30 25 25 -6z"/>
<path d="M6170 3830 c-52 -32 -115 -71 -140 -86 -305 -185 -544 -340 -570
-372 -76 -92 -65 -221 27 -303 l40 -36 -64 -42 c-35 -23 -61 -46 -58 -51 10
-17 25 -11 88 30 50 34 65 39 93 34 29 -5 47 4 156 74 68 44 175 111 238 149
153 93 365 223 416 255 71 45 87 88 100 259 8 111 15 102 -106 124 -41 7 -86
16 -100 19 -19 4 -48 -9 -120 -54z m172 0 c94 -19 98 -20 98 -29 0 -14 -30
-18 -79 -9 -73 13 -121 28 -121 38 0 13 36 13 102 0z m-42 -61 c39 -11 70 -25
70 -30 0 -12 -67 -11 -75 1 -15 24 -77 10 -143 -33 -37 -24 -159 -99 -271
-168 -236 -144 -282 -177 -296 -207 -5 -12 -18 -25 -27 -28 -10 -3 -18 -10
-18 -15 0 -6 -4 -8 -9 -5 -15 10 -43 -20 -51 -54 -8 -34 -8 -34 -9 13 -2 95
18 114 344 317 356 222 388 240 403 235 7 -3 44 -14 82 -26z m-290 -279 c0 -5
-5 -10 -11 -10 -5 0 -7 5 -4 10 3 6 8 10 11 10 2 0 4 -4 4 -10z m-152 -37 c-4
-22 -22 -20 -26 1 -2 10 3 16 13 16 10 0 15 -7 13 -17z m112 13 c0 -2 -7 -7
-16 -10 -8 -3 -12 -2 -9 4 6 10 25 14 25 6z m-216 -51 c6 -18 -2 -45 -15 -45
-5 0 -8 14 -7 30 2 32 12 39 22 15z m-166 -177 c-2 -25 -8 -34 -25 -36 -17 -3
-24 3 -29 22 -8 33 1 46 32 46 22 0 25 -4 22 -32z"/>
<path d="M6954 3870 c-69 -36 -135 -90 -150 -125 -28 -68 -12 -170 33 -205 36
-28 39 -19 10 27 -62 96 -38 177 74 249 65 43 86 61 77 69 -2 3 -22 -5 -44
-15z"/>
<path d="M2015 3869 c-11 -16 -1 -19 13 -3 7 8 8 14 3 14 -5 0 -13 -5 -16 -11z"/>
<path d="M8895 3746 c-149 -69 -155 -267 -9 -335 100 -47 195 -16 244 79 46
90 21 181 -64 238 -54 36 -117 42 -171 18z m170 -60 c90 -69 53 -222 -63 -257
-35 -10 -48 -9 -87 5 -25 10 -50 26 -56 37 -5 11 -15 16 -21 13 -7 -4 -8 -2
-4 5 4 6 3 17 -2 24 -21 25 -24 84 -7 121 44 92 156 116 240 52z"/>
<path d="M1739 3693 c-13 -16 -12 -17 4 -4 9 7 17 15 17 17 0 8 -8 3 -21 -13z"/>
<path d="M5415 3670 c3 -5 8 -10 11 -10 2 0 4 5 4 10 0 6 -5 10 -11 10 -5 0
-7 -4 -4 -10z"/>
<path d="M5275 3560 c-16 -11 -25 -20 -20 -20 10 0 64 39 55 40 -3 0 -18 -9
-35 -20z"/>
<path d="M990 3383 c-69 -47 -164 -110 -211 -141 -228 -150 -235 -156 -219
-182 11 -18 19 -14 190 97 74 47 153 96 175 108 49 26 151 91 185 118 l25 19
-25 -6 c-24 -6 -24 -6 -3 5 29 15 42 72 15 68 -4 -1 -63 -39 -132 -86z"/>
<path d="M8470 3430 c-9 -6 -10 -10 -3 -10 6 0 15 5 18 10 8 12 4 12 -15 0z"/>
<path d="M6413 3297 c-48 -37 -59 -55 -37 -64 9 -3 34 8 59 26 24 17 49 31 55
31 7 0 10 7 6 16 -3 9 -6 18 -6 20 0 14 -41 -2 -77 -29z"/>
<path d="M6755 3311 c-22 -10 -57 -38 -77 -62 -21 -24 -44 -50 -50 -57 -7 -8
-71 -48 -143 -91 -71 -42 -142 -85 -157 -95 l-28 -18 0 104 c0 146 -19 170
-97 127 -136 -77 -472 -282 -491 -299 -21 -20 -22 -26 -22 -240 0 -215 0 -219
22 -234 35 -25 55 -20 139 33 103 66 168 89 203 73 14 -6 26 -16 26 -21 0 -6
-25 -25 -55 -43 -30 -17 -52 -34 -50 -36 2 -2 15 4 29 14 15 9 29 14 32 12 8
-9 -166 -126 -243 -163 l-71 -35 -399 0 c-221 1 -412 -3 -429 -9 -70 -20 -363
-202 -884 -548 -386 -256 -622 -406 -804 -512 l-138 -81 -527 0 c-289 0 -536
-3 -548 -6 -23 -6 -32 -37 -14 -48 12 -8 7570 -8 7582 -1 5 4 9 13 9 20 0 34
-37 37 -396 33 l-354 -4 0 385 c-1 1134 -6 1637 -18 1663 -19 46 -85 110 -137
134 l-50 24 -910 0 c-859 0 -912 -1 -950 -19z m1919 -65 c54 -41 76 -82 76
-143 0 -62 -9 -91 -21 -71 -5 7 -9 21 -9 31 0 10 -8 27 -18 37 -17 18 -22 19
-58 7 -31 -11 -40 -20 -42 -41 -2 -15 1 -33 8 -40 8 -10 7 -15 -5 -19 -9 -4
-12 -13 -8 -24 5 -12 -8 -6 -38 18 -24 19 -62 46 -84 60 l-40 24 -648 3 c-426
2 -661 -1 -686 -8 -102 -27 -202 -138 -241 -268 -20 -65 -20 -88 -18 -804 2
-405 6 -740 10 -744 5 -4 24 -7 43 -6 19 1 37 -4 41 -10 5 -7 0 -9 -14 -6 -13
4 -20 2 -16 -4 3 -5 18 -7 31 -3 20 5 24 3 20 -9 -4 -9 -1 -18 5 -22 7 -4 8
-3 4 4 -14 23 10 11 47 -23 42 -40 45 -45 17 -38 -11 3 -20 9 -20 14 0 5 -5 9
-11 9 -5 0 -7 -4 -4 -10 3 -5 -1 -10 -9 -10 -9 0 -16 6 -17 13 0 9 -2 9 -6 0
-3 -9 -31 -14 -81 -15 l-77 -2 90 -6 90 -6 -105 -2 c-129 -2 -168 12 -187 71
-9 28 -14 278 -19 990 l-6 952 24 45 c15 28 40 54 64 67 l39 23 921 -3 921 -2
37 -29z m-2434 -86 c0 -16 -4 -30 -9 -30 -5 0 -56 -29 -113 -63 -57 -35 -156
-95 -221 -132 -65 -38 -120 -72 -123 -77 -10 -15 -34 -8 -34 11 0 11 22 33 58
57 52 34 434 264 440 264 1 0 2 -13 2 -30z m380 -304 l0 -294 -47 -30 c-429
-267 -416 -262 -547 -247 -62 6 -93 25 -42 25 13 0 57 22 97 48 41 27 96 61
123 77 27 16 44 31 38 33 -17 5 0 20 96 77 62 38 85 57 92 80 5 17 11 94 12
173 3 161 6 157 -77 127 -55 -20 -65 -19 -65 10 0 14 3 25 8 25 4 0 75 42 157
94 83 52 151 95 153 95 1 1 2 -131 2 -293z m1787 177 c-12 -11 -1217 -19
-1220 -8 -2 6 -23 4 -53 -6 -41 -13 -49 -19 -49 -40 0 -13 -3 -29 -8 -36 -4
-6 7 -4 25 5 29 15 67 17 325 14 258 -3 296 -6 327 -22 33 -17 34 -18 13 -24
-12 -3 -87 -6 -167 -7 -179 -1 -398 -13 -425 -23 -16 -6 -17 -6 -5 3 30 21 -8
10 -41 -12 -38 -26 -98 -110 -99 -141 -1 -12 -5 -176 -10 -366 -4 -190 -8
-364 -9 -387 -1 -33 -4 -41 -16 -37 -10 4 -16 0 -17 -12 -5 -42 -14 357 -13
589 0 136 -1 241 -3 235 -11 -41 -13 -43 -23 -28 -9 13 -10 13 -6 0 2 -8 -2
-31 -11 -50 -8 -19 -18 -55 -22 -80 -6 -37 -8 -28 -9 48 -2 171 69 314 184
368 l50 24 644 0 c354 0 641 -3 638 -7z m-1242 -33 c-11 -5 -31 -8 -45 -8 -23
0 -22 1 5 8 42 11 65 11 40 0z m110 -5 c-23 -8 -83 -10 -79 -3 3 4 24 8 47 7
23 0 38 -2 32 -4z m106 -7 c-43 -6 -68 -5 -75 2 -7 7 13 10 65 9 l74 -1 -64
-10z m-264 -158 c1 -11 -2 -22 -8 -25 -5 -4 -6 2 -2 12 6 16 5 16 -10 4 -9 -7
-14 -18 -10 -24 3 -6 1 -7 -6 -3 -11 7 -8 19 14 43 15 18 21 16 22 -7z m791
-90 c39 -69 72 -80 159 -54 19 5 27 -4 64 -71 39 -71 44 -77 70 -73 27 4 30 1
44 -48 20 -70 20 -73 -15 -85 -29 -11 -30 -13 -30 -76 0 -59 2 -66 31 -93 31
-28 32 -29 20 -77 -16 -60 -26 -73 -62 -73 -24 0 -32 -7 -50 -42 -46 -91 -55
-99 -107 -93 -66 8 -112 -18 -132 -74 l-15 -42 -88 3 c-91 2 -100 6 -110 48
-4 14 -23 36 -43 49 -32 20 -45 22 -90 17 -49 -6 -54 -4 -77 24 -14 16 -33 47
-43 69 -16 35 -23 41 -51 41 -31 0 -33 3 -53 67 -13 42 -17 69 -11 71 35 12
51 40 57 97 l6 60 -36 17 c-42 20 -43 26 -17 93 16 44 23 50 50 53 27 3 39 14
78 73 42 65 48 70 72 63 71 -21 143 9 154 66 l7 30 97 0 98 0 23 -40z m-2118
-235 c0 -1 -6 -8 -14 -14 -11 -9 -16 -9 -22 0 -5 8 -3 9 6 4 10 -6 12 -4 7 8
-4 11 -2 14 9 10 7 -3 14 -6 14 -8z m825 -353 c-2 -3 -25 14 -51 37 -66 62
-139 92 -231 97 -41 2 -77 5 -79 7 -2 2 17 16 43 30 27 15 109 64 183 111
l135 84 3 -180 c1 -100 0 -183 -3 -186z m-265 79 c98 -13 155 -44 206 -114 24
-32 44 -64 44 -71 0 -6 -10 4 -21 21 -12 18 -25 31 -29 28 -5 -3 -11 4 -15 15
-4 11 -11 18 -16 15 -5 -4 -9 -2 -9 3 0 4 -16 16 -35 25 -19 9 -35 15 -35 12
0 -3 15 -25 34 -49 35 -46 43 -77 48 -176 3 -54 3 -55 -23 -52 -24 3 -27 -1
-34 -34 -4 -23 -20 -51 -41 -72 l-35 -35 -142 6 c-78 4 -220 7 -314 7 l-173 0
0 180 0 180 249 0 c138 0 252 4 255 8 2 4 2 13 -2 19 -9 13 -987 24 -1135 13
-149 -12 -223 -53 -343 -194 -17 -20 -29 -36 -27 -36 2 0 -2 -7 -11 -15 -8 -8
-19 -15 -24 -15 -28 0 -35 -73 -40 -412 l-4 -348 -721 -2 -720 -3 44 38 c24
20 145 103 268 182 l225 145 143 0 143 0 0 -70 c0 -62 -3 -74 -25 -95 -17 -18
-35 -25 -62 -25 -110 -2 -153 -6 -165 -17 -25 -26 7 -35 110 -31 108 3 133 13
176 72 18 23 22 47 26 154 9 195 2 187 328 413 106 74 236 165 290 202 140 99
176 118 235 127 72 10 1297 11 1377 1z m-654 -122 c3 -6 2 -15 -4 -21 -5 -5
-134 -11 -313 -14 -327 -5 -373 -9 -363 -26 4 -6 3 -8 -4 -4 -15 9 -52 -8 -95
-45 -52 -44 -67 -77 -67 -146 0 -41 -3 -54 -10 -43 -15 23 -12 96 6 138 30 72
118 139 211 161 57 14 630 13 639 0z m-296 -188 c0 -29 -3 -31 -36 -31 -35 0
-35 1 -32 38 2 20 8 37 15 37 6 0 14 3 18 7 13 13 35 -20 35 -51z m-208 32 c8
-41 -3 -63 -33 -63 -22 0 -29 5 -30 20 -1 11 -2 26 -3 33 -4 21 4 27 34 27 19
0 30 -6 32 -17z m92 11 c10 -4 16 -18 16 -40 0 -32 -2 -34 -35 -34 -34 0 -35
1 -35 40 0 41 13 50 54 34z m206 -34 c0 -38 -2 -40 -30 -40 -28 0 -30 2 -30
40 0 38 2 40 30 40 28 0 30 -2 30 -40z m100 -5 c0 -14 -2 -25 -4 -25 -2 0 -6
11 -8 25 -3 14 -1 25 3 25 5 0 9 -11 9 -25z m1793 -20 c1 -5 -6 -11 -15 -13
-11 -2 -18 3 -18 13 0 17 30 18 33 0z m-22 -125 c38 0 39 -1 39 -35 l0 -35
-139 0 c-78 0 -142 4 -146 10 -3 5 -3 20 1 34 5 21 13 26 47 29 23 3 69 3 101
1 32 -2 76 -4 97 -4z m119 -30 c0 -19 -11 -26 -23 -14 -8 8 3 34 14 34 5 0 9
-9 9 -20z m-1020 -43 c37 -18 62 -79 58 -140 -3 -44 -6 -52 -26 -57 -17 -3
-28 -17 -38 -45 -7 -22 -27 -52 -44 -67 -30 -28 -31 -28 -183 -28 -83 0 -223
-3 -309 -7 l-158 -6 0 175 c0 96 2 177 4 179 2 2 154 5 338 6 254 2 339 0 358
-10z m-770 -7 c11 -7 6 -10 -20 -10 -19 0 -188 -1 -376 -2 l-341 -3 -39 -27
c-53 -37 -74 -75 -75 -140 -1 -53 -1 -53 -11 -17 -14 53 5 112 52 159 21 21
49 40 62 43 48 9 733 7 748 -3z m1640 -80 c0 -13 -7 -20 -20 -20 -13 0 -20 7
-20 20 0 13 7 20 20 20 13 0 20 -7 20 -20z m728 -7 c-2 -12 -12 -18 -28 -18
-16 0 -26 6 -28 18 -3 13 3 17 28 17 25 0 31 -4 28 -17z m142 2 c0 -10 -10
-15 -33 -15 -23 0 -34 5 -34 15 0 10 11 15 34 15 23 0 33 -5 33 -15z m-350
-40 l0 -45 -160 0 -160 0 0 45 0 45 160 0 160 0 0 -45z m-2676 -11 c10 -4 16
-18 16 -40 0 -31 -3 -34 -30 -34 -27 0 -30 3 -30 34 0 19 6 37 13 39 6 3 13 6
14 6 1 1 8 -2 17 -5z m217 -4 c5 0 9 -16 9 -35 0 -32 -2 -35 -30 -35 -27 0
-30 3 -30 33 0 38 8 50 28 42 7 -3 18 -5 23 -5z m107 -5 c1 -1 -1 -16 -4 -33
-5 -25 -12 -32 -30 -32 -20 0 -24 5 -24 33 0 19 3 37 7 40 5 6 41 0 51 -8z
m-200 -27 c-3 -29 -6 -33 -33 -33 -27 0 -30 4 -33 33 -3 31 -2 32 33 32 35 0
36 -1 33 -32z m132 -322 c380 -6 570 -14 570 -27 0 -4 19 -9 43 -11 84 -7
-493 -20 -698 -17 -185 4 -215 7 -249 24 -42 21 -64 52 -30 41 11 -3 174 -8
364 -10z m1585 -66 c3 -5 -1 -10 -10 -10 -9 0 -13 5 -10 10 3 6 8 10 10 10 2
0 7 -4 10 -10z"/>
<path d="M6802 3147 c-27 -28 -28 -58 -4 -80 26 -23 55 -21 80 6 26 28 27 45
6 75 -20 28 -55 28 -82 -1z m58 -37 c0 -33 -24 -50 -42 -32 -17 17 -1 62 22
62 16 0 20 -7 20 -30z"/>
<path d="M6866 1232 c-3 -5 1 -9 9 -9 8 0 12 4 9 9 -3 4 -7 8 -9 8 -2 0 -6 -4
-9 -8z"/>
<path d="M6340 2529 c-35 -31 -35 -31 -3 -9 18 11 35 25 38 30 10 16 2 11 -35
-21z"/>
<path d="M7023 2958 c-26 -29 -58 -97 -49 -105 3 -3 6 -1 6 5 0 6 9 26 21 44
18 29 20 30 15 8 -3 -14 -3 -19 0 -12 3 6 9 10 14 7 4 -3 13 2 19 9 9 11 9 16
0 22 -7 4 -9 3 -5 -4 3 -6 2 -13 -3 -16 -17 -11 -21 27 -5 45 10 11 15 19 12
19 -2 0 -14 -10 -25 -22z"/>
<path d="M6992 2848 c-16 -44 -9 -45 11 -3 9 19 13 35 9 35 -4 0 -13 -14 -20
-32z"/>
<path d="M6906 2705 c-3 -8 -1 -15 4 -15 6 0 10 7 10 15 0 8 -2 15 -4 15 -2 0
-6 -7 -10 -15z"/>
<path d="M7725 2484 c-56 -21 -93 -60 -110 -118 -27 -89 13 -175 102 -220 78
-39 192 7 239 96 28 55 14 150 -29 196 -53 58 -126 74 -202 46z"/>
<path d="M5870 1921 c0 -5 -3 -16 -6 -25 -4 -12 0 -16 15 -16 16 0 21 6 21 25
0 16 -6 25 -15 25 -8 0 -15 -4 -15 -9z"/>
<path d="M5976 1914 c-10 -26 -7 -34 14 -34 15 0 20 7 20 25 0 28 -24 34 -34
9z"/>
<path d="M6115 1920 c6 -10 4 -12 -8 -7 -12 5 -17 1 -17 -13 0 -13 7 -20 20
-20 22 0 28 34 8 46 -7 5 -8 3 -3 -6z"/>
<path d="M6210 1905 c0 -20 4 -26 18 -23 9 2 17 12 17 23 0 11 -8 21 -17 23
-14 3 -18 -3 -18 -23z"/>
<path d="M6320 1905 c0 -20 4 -26 18 -23 9 2 17 12 17 23 0 11 -8 21 -17 23
-14 3 -18 -3 -18 -23z"/>
<path d="M4512 1758 c-17 -17 -15 -35 5 -42 21 -8 48 17 40 38 -8 19 -28 21
-45 4z"/>
<path d="M4303 1633 c-21 -8 -15 -29 12 -47 32 -21 32 -44 -1 -56 -29 -11 -23
-30 10 -30 28 0 71 44 63 64 -4 9 -11 16 -16 16 -5 0 -12 7 -15 16 -3 8 -2 13
2 10 13 -8 35 11 28 23 -7 11 -60 14 -83 4z"/>
<path d="M4368 1404 c-36 -19 -48 -43 -48 -94 0 -58 33 -90 95 -90 37 0 51 5
70 26 32 35 40 76 21 113 -31 58 -83 75 -138 45z"/>
<path d="M5860 1515 c0 -18 5 -25 19 -25 24 0 33 13 25 34 -10 27 -44 20 -44
-9z"/>
<path d="M5976 1524 c-10 -26 -7 -34 14 -34 15 0 20 7 20 25 0 28 -24 34 -34
9z"/>
<path d="M6094 1525 c-7 -18 3 -35 22 -35 8 0 14 10 14 25 0 27 -27 35 -36 10z"/>
<path d="M6206 1525 c-9 -24 -8 -25 20 -25 19 0 25 5 22 17 -4 23 -34 28 -42
8z"/>
<path d="M6320 1520 c0 -23 35 -28 43 -6 7 18 -1 26 -25 26 -11 0 -18 -7 -18
-20z"/>
<path d="M4994 3116 c-64 -45 -136 -90 -674 -422 -423 -261 -834 -519 -858
-538 -36 -31 -78 -109 -87 -163 -8 -49 -10 -50 -128 -123 -50 -31 -92 -61 -94
-67 -2 -6 11 -16 30 -22 40 -14 67 -5 140 41 31 20 52 27 58 21 12 -12 38
-134 32 -150 -3 -7 -13 -15 -24 -18 -10 -4 -41 -24 -69 -46 l-50 -39 0 29 c0
39 -18 55 -114 101 -77 37 -81 38 -111 23 -16 -9 -49 -31 -72 -50 l-43 -34 0
-88 c0 -59 4 -92 13 -98 28 -23 148 -83 164 -83 9 0 -37 -33 -103 -74 -166
-104 -196 -125 -189 -136 13 -22 51 -7 158 62 62 40 120 72 129 72 9 0 15 2
13 5 -3 2 4 9 14 15 11 6 44 29 74 51 58 41 67 59 67 134 1 34 5 39 83 88 74
48 87 53 139 53 45 0 70 7 120 33 94 50 354 225 442 298 17 14 60 41 96 60 36
19 74 42 84 51 11 10 23 18 27 18 7 0 77 44 184 116 28 19 56 34 63 34 7 0 28
11 46 25 18 14 36 25 41 25 9 0 145 88 163 107 7 7 19 13 27 13 7 0 15 4 17 9
3 8 168 115 351 228 98 61 115 96 153 322 14 82 14 96 1 108 -9 9 -57 20 -123
29 -144 18 -135 19 -190 -20z m237 -33 c16 -3 29 -9 29 -14 0 -10 -101 -12
-188 -3 -48 5 -59 10 -55 22 5 12 21 14 95 8 50 -4 103 -9 119 -13z m-124 -54
c107 -19 72 -41 -51 -32 -85 7 -63 16 -303 -134 -101 -62 -199 -121 -218 -130
-19 -9 -35 -20 -35 -25 0 -4 -6 -8 -14 -8 -8 0 -24 -9 -37 -21 -13 -11 -17
-17 -9 -13 8 4 12 3 7 -1 -4 -5 -15 -9 -25 -10 -9 -1 -55 -26 -102 -56 -47
-31 -100 -64 -118 -75 -131 -78 -388 -240 -394 -249 -4 -5 -8 -7 -8 -2 0 4
-24 -8 -52 -26 -29 -19 -77 -49 -105 -67 -29 -17 -51 -36 -48 -40 3 -5 0 -12
-6 -16 -8 -4 -9 -3 -5 4 15 24 -14 11 -48 -22 -20 -18 -36 -31 -36 -27 -1 3
-12 -7 -25 -24 -15 -19 -25 -24 -25 -15 0 23 31 65 73 98 37 30 73 53 477 302
118 73 314 195 435 270 121 75 254 157 295 182 41 25 113 69 159 97 92 56 109
59 218 40z m-89 -129 c11 -18 9 -23 -10 -41 -40 -37 -557 -359 -577 -359 -4 0
-18 11 -30 24 l-23 24 120 79 c66 43 173 110 236 148 64 39 142 87 174 107 65
42 92 47 110 18z m-678 -449 c-1 -13 -3 -13 -15 3 -19 26 -19 42 0 26 8 -7 15
-20 15 -29z m-50 -3 c18 -23 18 -38 0 -38 -5 0 -16 14 -25 30 -19 36 -2 41 25
8z m-76 -40 c19 -36 19 -38 7 -38 -5 0 -12 11 -15 25 -4 14 -11 25 -17 25 -6
0 -7 5 -4 10 9 15 12 13 29 -22z m-40 -14 c3 -9 6 -25 5 -37 l0 -22 -9 23
c-12 28 -24 29 -15 1 5 -14 3 -19 -4 -15 -14 9 -9 66 5 66 7 0 15 -7 18 -16z
m-64 -81 c0 -31 -18 -29 -32 3 -10 20 -9 27 2 34 17 11 30 -5 30 -37z m-60
-41 c0 -12 -4 -12 -20 3 -11 10 -20 25 -20 33 0 12 4 12 20 -3 11 -10 20 -25
20 -33z m-104 -60 c-3 -2 -14 2 -25 10 -12 8 -18 18 -14 21 3 4 15 0 25 -10
10 -9 16 -18 14 -21z m-47 -9 c11 -23 10 -29 -5 -40 -26 -19 -42 -16 -49 8 -4
13 0 27 11 40 23 25 28 24 43 -8z m-69 -67 c-1 -21 -1 -21 -15 -2 -21 27 -20
53 0 36 8 -7 15 -22 15 -34z m-85 -36 c9 -16 11 -30 6 -30 -11 0 -31 32 -31
49 0 19 9 12 25 -19z m52 8 c-3 -8 -6 -5 -6 6 -1 11 2 17 5 13 3 -3 4 -12 1
-19z m-182 -93 c0 -34 -4 -39 -53 -66 -29 -17 -57 -27 -63 -23 -14 9 -4 78 17
109 17 26 47 35 79 24 15 -5 20 -15 20 -44z m275 -125 c-35 -24 -54 -31 -30
-11 14 11 30 21 35 21 6 0 3 -5 -5 -10z m-170 -108 c0 -5 -12 -14 -27 -21
l-28 -12 25 21 c29 22 30 23 30 12z m-585 -103 c48 -27 76 -49 61 -49 -2 0
-29 10 -60 21 -55 22 -57 22 -91 4 -18 -11 -37 -28 -40 -39 -7 -20 -7 -20 -12
-2 -4 15 7 31 38 58 24 20 45 38 47 38 1 0 27 -14 57 -31z"/>
<path d="M8973 3115 c5 -16 97 -19 97 -3 0 9 -16 13 -50 13 -29 0 -49 -4 -47
-10z"/>
<path d="M3934 3104 c-18 -14 -18 -15 4 -4 12 6 22 13 22 15 0 8 -5 6 -26 -11z"/>
<path d="M3844 3032 c2 -9 8 -17 15 -18 8 -2 8 -1 0 3 -8 4 -8 7 1 13 9 5 8 9
-3 13 -10 4 -14 0 -13 -11z"/>
<path d="M3806 3024 c-11 -7 -18 -16 -15 -18 2 -2 13 2 23 10 11 7 18 16 15
18 -2 2 -13 -2 -23 -10z"/>
<path d="M8966 3005 c7 -17 114 -22 114 -5 0 5 -7 6 -17 3 -11 -4 -14 -3 -9 5
5 9 -7 12 -43 12 -41 0 -49 -3 -45 -15z"/>
<path d="M3816 2995 c-11 -8 -15 -15 -9 -15 6 0 16 7 23 15 16 19 11 19 -14 0z"/>
<path d="M3755 2990 c-3 -5 1 -10 9 -10 9 0 16 5 16 10 0 6 -4 10 -9 10 -6 0
-13 -4 -16 -10z"/>
<path d="M3690 2950 c0 -5 -3 -9 -7 -9 -5 1 -23 -4 -40 -12 -35 -14 -43 -36
-17 -46 16 -6 37 15 28 28 -2 4 10 12 26 19 29 12 41 30 20 30 -5 0 -10 -4
-10 -10z"/>
<path d="M8970 2895 c0 -12 13 -15 55 -15 42 0 55 3 55 15 0 12 -13 15 -55 15
-42 0 -55 -3 -55 -15z"/>
<path d="M890 2790 c20 -13 33 -13 25 0 -3 6 -14 10 -23 10 -15 0 -15 -2 -2
-10z"/>
<path d="M8970 2785 c0 -12 13 -15 55 -15 42 0 55 3 55 15 0 12 -13 15 -55 15
-42 0 -55 -3 -55 -15z"/>
<path d="M4216 2775 c-11 -8 -16 -15 -10 -15 5 0 18 7 28 15 11 8 16 15 10 15
-5 0 -18 -7 -28 -15z"/>
<path d="M954 2751 c-18 -11 -35 -25 -40 -32 -7 -12 58 23 81 43 17 15 -9 8
-41 -11z"/>
<path d="M4030 2665 c-11 -13 -10 -14 4 -9 9 3 16 10 16 15 0 13 -6 11 -20 -6z"/>
<path d="M8980 2666 c0 -13 11 -16 50 -16 28 0 50 4 50 9 0 6 -16 7 -35 4 -21
-3 -41 -1 -50 7 -12 10 -15 10 -15 -4z"/>
<path d="M5350 2648 c-108 -55 -111 -197 -5 -248 52 -25 76 -25 126 0 105 54
104 196 -2 250 -49 25 -65 25 -119 -2z m0 -22 c0 -2 -8 -10 -17 -17 -16 -13
-17 -12 -4 4 13 16 21 21 21 13z m133 -37 c20 -21 27 -39 27 -67 -1 -40 -11
-59 -50 -85 -92 -63 -197 65 -125 152 42 49 102 49 148 0z"/>
<path d="M3942 2608 c-18 -11 -31 -22 -29 -25 5 -4 77 36 77 43 0 8 -15 2 -48
-18z"/>
<path d="M9010 2362 c0 -228 5 -285 24 -279 8 3 11 77 11 248 0 224 -1 244
-17 247 -17 3 -18 -12 -18 -216z"/>
<path d="M5160 2489 c-29 -12 -40 -27 -39 -54 1 -16 2 -16 9 5 8 24 8 23 9 -8
1 -20 -3 -31 -9 -27 -6 3 -7 -1 -4 -10 5 -12 9 -13 21 -3 10 8 13 23 9 48 -5
32 -3 36 18 38 13 1 34 6 47 11 23 9 23 10 -6 10 -16 0 -41 -5 -55 -10z"/>
<path d="M3591 2389 c-34 -21 -67 -39 -73 -39 -5 0 -7 -4 -4 -9 3 -5 -4 -11
-16 -14 -12 -4 -19 -9 -16 -13 8 -7 178 95 178 107 0 12 4 14 -69 -32z"/>
<path d="M3288 2058 c-21 -12 -38 -27 -38 -33 0 -6 -35 -32 -77 -58 -43 -26
-99 -62 -124 -80 -25 -18 -94 -63 -152 -102 -99 -64 -120 -86 -99 -99 4 -2 96
52 203 122 107 70 232 150 277 177 63 38 81 55 79 70 -3 28 -26 29 -69 3z"/>
<path d="M2434 2054 c-18 -14 -18 -15 4 -4 12 6 22 13 22 15 0 8 -5 6 -26 -11z"/>
<path d="M2385 2030 c-3 -6 1 -7 9 -4 18 7 21 14 7 14 -6 0 -13 -4 -16 -10z"/>
<path d="M2214 1921 c-45 -27 -50 -41 -9 -22 19 9 36 22 39 29 7 15 7 15 -30
-7z"/>
<path d="M2375 1896 c-22 -12 -57 -32 -78 -43 -23 -13 -33 -23 -25 -26 7 -3 2
-6 -12 -7 -23 -1 -23 -2 -5 -10 17 -7 17 -9 3 -9 -20 -1 -25 -21 -6 -21 6 0 9
-3 6 -6 -4 -3 -16 0 -28 6 -15 8 -20 8 -16 1 4 -6 0 -18 -8 -27 -9 -8 -16 -11
-16 -5 0 6 -5 11 -10 11 -21 0 -2 -69 30 -109 25 -30 36 -38 46 -30 7 5 25 12
40 13 22 2 30 11 41 42 10 27 11 46 4 66 -9 24 -7 30 16 45 124 84 139 177 18
109z m-170 -182 c-8 -16 -15 -23 -15 -16 0 13 22 53 27 48 2 -2 -3 -16 -12
-32z m81 11 c-3 -8 -1 -15 4 -15 6 0 10 -7 10 -15 0 -8 -7 -15 -15 -15 -15 0
-21 40 -8 53 11 12 15 8 9 -8z"/>
<path d="M9010 1742 c0 -136 3 -172 15 -182 22 -18 26 15 23 190 -3 138 -5
155 -20 158 -17 3 -18 -10 -18 -166z"/>
<path d="M1970 1855 c-19 -14 -31 -25 -26 -25 13 0 66 34 66 42 0 11 0 11 -40
-17z"/>
<path d="M2130 1864 c-17 -10 -18 -13 -5 -8 11 3 25 7 32 7 7 0 10 4 7 9 -6
10 -4 10 -34 -8z"/>
<path d="M2055 1851 c-3 -5 -2 -12 3 -15 5 -3 9 1 9 9 0 17 -3 19 -12 6z"/>
<path d="M3964 1817 c-10 -6 -48 -29 -84 -52 -61 -40 -158 -99 -535 -330 -179
-109 -247 -156 -253 -174 -3 -9 6 -6 26 7 16 12 33 22 37 22 31 0 792 457 848
510 18 17 18 17 -1 22 -10 3 -28 1 -38 -5z"/>
<path d="M1905 1810 c-3 -6 1 -7 9 -4 18 7 21 14 7 14 -6 0 -13 -4 -16 -10z"/>
<path d="M1808 1753 c-43 -26 -76 -49 -74 -51 4 -3 130 72 151 90 20 18 -4 6
-77 -39z"/>
<path d="M2150 1690 c0 -5 5 -10 11 -10 5 0 7 5 4 10 -3 6 -8 10 -11 10 -2 0
-4 -4 -4 -10z"/>
<path d="M2040 1675 c0 -8 -4 -15 -10 -15 -5 0 -10 4 -10 8 0 5 -7 9 -14 9
-10 0 -12 -5 -7 -16 5 -9 6 -22 3 -30 -5 -15 11 -9 41 17 19 16 23 42 7 42 -5
0 -10 -7 -10 -15z"/>
<path d="M1955 1650 c-3 -5 -2 -10 4 -10 5 0 13 5 16 10 3 6 2 10 -4 10 -5 0
-13 -4 -16 -10z"/>
<path d="M1698 1630 c-7 -24 -3 -38 8 -28 3 4 4 17 2 30 l-3 23 -7 -25z"/>
<path d="M1883 1636 c-54 -15 -78 -36 -41 -36 37 0 74 16 81 34 4 9 5 15 4 15
-1 -1 -21 -7 -44 -13z"/>
<path d="M1935 1620 c-3 -5 -1 -10 4 -10 6 0 11 5 11 10 0 6 -2 10 -4 10 -3 0
-8 -4 -11 -10z"/>
<path d="M1878 1568 c-21 -16 -38 -26 -38 -20 0 5 -19 9 -42 8 -24 -2 -46 2
-51 8 -5 7 -14 3 -26 -12 -13 -15 -33 -24 -60 -26 -23 -2 -38 1 -35 6 3 5 15
6 27 3 18 -5 19 -4 7 5 -13 10 -13 11 0 7 21 -6 50 11 50 30 0 13 -4 12 -19
-5 -10 -12 -21 -19 -24 -16 -12 12 -159 -84 -150 -99 3 -6 1 -7 -5 -3 -10 6
-77 -31 -245 -135 -23 -15 -41 -31 -40 -37 2 -6 -4 -9 -11 -6 -10 4 -13 0 -9
-14 4 -15 -4 -23 -37 -36 -23 -9 -45 -14 -49 -11 -5 2 -8 -6 -7 -18 1 -19 7
-22 46 -23 l45 -2 -45 8 c-25 4 -37 8 -27 8 11 1 15 7 11 13 -4 8 0 9 15 4 14
-4 31 1 51 15 25 18 32 19 50 8 15 -9 20 -21 17 -40 -3 -24 0 -27 27 -31 17
-2 -15 -5 -72 -5 -57 -1 -112 2 -122 8 -13 7 -26 6 -46 -4 l-27 -15 39 -3 c21
-2 -64 -5 -191 -6 -126 -2 -273 -7 -325 -10 -89 -7 -95 -9 -98 -29 -3 -17 2
-23 15 -23 10 0 304 0 653 -1 l635 0 10 21 c6 12 57 51 115 88 58 36 115 74
127 83 l23 17 -21 5 c-17 5 -20 11 -15 31 4 18 1 31 -12 43 -18 17 -18 19 22
54 23 21 38 40 35 43 -3 3 -29 -9 -57 -28 -46 -29 -58 -33 -102 -28 -35 3 -50
1 -50 -8 0 -8 10 -9 31 -5 43 10 32 -6 -39 -54 -86 -58 -134 -79 -175 -78 -27
1 -33 3 -22 10 8 4 13 13 9 18 -3 6 5 8 20 5 18 -3 24 -1 20 6 -5 8 -1 9 10 5
13 -5 17 -3 13 6 -3 7 3 24 13 37 16 21 20 22 37 10 17 -13 17 -13 1 5 -16 17
-16 19 4 37 12 10 36 18 54 18 18 0 36 5 39 10 3 6 16 10 29 10 21 0 46 17 46
31 0 3 -11 4 -25 1 -18 -3 -25 0 -25 11 0 10 6 13 21 10 18 -5 20 -3 14 16 -4
12 -2 21 4 21 6 0 11 -6 11 -14 0 -14 21 -26 46 -26 8 0 14 4 14 10 0 5 -7 7
-16 3 -35 -13 -58 55 -29 87 27 30 -27 21 -67 -12z m-131 -44 c-3 -3 -12 -4
-19 -1 -8 3 -5 6 6 6 11 1 17 -2 13 -5z m-93 -25 c6 -5 1 -11 -10 -15 -27 -10
-54 -35 -48 -45 3 -5 -2 -6 -10 -3 -9 3 -13 10 -10 15 3 5 -3 7 -13 4 -10 -3
1 4 25 15 23 12 40 26 36 31 -3 6 -13 8 -21 5 -8 -3 -11 -1 -8 5 7 10 43 3 59
-12z m253 -55 c-3 -3 -12 -4 -19 -1 -8 3 -5 6 6 6 11 1 17 -2 13 -5z m-337
-13 c0 -6 -4 -13 -10 -16 -5 -3 -10 1 -10 9 0 9 5 16 10 16 6 0 10 -4 10 -9z
m-87 -26 c-10 -7 -21 -11 -26 -8 -5 3 0 11 10 18 10 7 21 11 26 8 5 -3 0 -11
-10 -18z m51 17 c9 -15 -11 -33 -50 -48 l-39 -15 38 4 c20 2 37 -1 37 -5 0 -4
-18 -8 -40 -8 -30 0 -40 4 -40 16 0 11 -5 14 -16 10 -15 -6 -15 -4 -3 10 8 10
15 12 17 5 5 -15 43 -13 66 4 10 7 15 18 11 24 -3 6 -2 11 4 11 5 0 12 -4 15
-8z m-179 -130 c-8 -8 -25 10 -19 20 4 6 9 5 15 -3 4 -7 6 -15 4 -17z m176
-38 c-5 -35 -9 -46 -10 -28 -1 34 9 97 15 91 2 -2 0 -30 -5 -63z m-256 46 c-3
-5 -1 -10 6 -10 7 0 10 -2 7 -5 -3 -3 -13 -2 -22 1 -14 5 -15 9 -4 15 17 11
20 11 13 -1z m69 -16 c17 -6 23 -34 8 -34 -5 0 -17 9 -27 20 -18 20 -11 25 19
14z m96 -44 c0 -5 -5 -10 -11 -10 -5 0 -7 5 -4 10 3 6 8 10 11 10 2 0 4 -4 4
-10z m-107 -47 c-7 -2 -21 -2 -30 0 -10 3 -4 5 12 5 17 0 24 -2 18 -5z m140
-10 c-7 -2 -19 -2 -25 0 -7 3 -2 5 12 5 14 0 19 -2 13 -5z m88 -13 c-22 -19
-41 -26 -41 -15 0 5 51 34 60 34 3 0 -6 -9 -19 -19z m-378 -37 c-13 -2 -33 -2
-45 0 -13 2 -3 4 22 4 25 0 35 -2 23 -4z"/>
<path d="M2095 1580 c-3 -5 -1 -10 4 -10 6 0 11 5 11 10 0 6 -2 10 -4 10 -3 0
-8 -4 -11 -10z"/>
<path d="M2480 1481 c-30 -21 -80 -54 -110 -74 -72 -46 -116 -84 -107 -93 11
-11 89 29 213 111 115 76 147 103 99 85 -33 -13 -38 -13 -30 0 12 19 -10 9
-65 -29z"/>
<path d="M1818 1343 c7 -3 16 -2 19 1 4 3 -2 6 -13 5 -11 0 -14 -3 -6 -6z"/>
<path d="M1726 1324 c-5 -14 -4 -15 9 -4 17 14 19 20 6 20 -5 0 -12 -7 -15
-16z"/>
<path d="M1165 1250 c-3 -6 1 -7 9 -4 18 7 21 14 7 14 -6 0 -13 -4 -16 -10z"/>
<path d="M283 1123 c-19 -7 -16 -53 3 -60 18 -7 45 6 51 24 4 11 -23 44 -35
42 -4 0 -13 -3 -19 -6z"/>
<path d="M9772 1121 c-8 -4 -12 -19 -10 -32 4 -30 45 -33 62 -6 9 15 7 21 -8
33 -23 16 -26 17 -44 5z"/>
</g>
</svg>
